<svg width="707" height="199" viewBox="0 0 707 199" fill="none" xmlns="http://www.w3.org/2000/svg">
<rect y="8" width="706.445" height="182.891" rx="16" fill="#F43F5E" fill-opacity="0.5"/>
<g filter="url(#filter0_b_208_18)">
<rect x="128" y="8" width="450.445" height="182.891" rx="16" fill="#F43F5E"/>
<path d="M161.472 62.136V59.384L172.224 43.96H176.64V58.968H179.616V62.136H176.64V67H173.056V62.136H161.472ZM173.216 47.672L165.664 58.968H173.216V47.672ZM182.639 55.032C182.639 51.3413 183.257 48.4613 184.495 46.392C185.753 44.3013 187.908 43.256 190.959 43.256C194.009 43.256 196.153 44.3013 197.391 46.392C198.649 48.4613 199.279 51.3413 199.279 55.032C199.279 58.7653 198.649 61.688 197.391 63.8C196.153 65.8907 194.009 66.936 190.959 66.936C187.908 66.936 185.753 65.8907 184.495 63.8C183.257 61.688 182.639 58.7653 182.639 55.032ZM195.695 55.032C195.695 53.304 195.577 51.8427 195.343 50.648C195.129 49.4533 194.681 48.4827 193.999 47.736C193.316 46.968 192.303 46.584 190.959 46.584C189.615 46.584 188.601 46.968 187.919 47.736C187.236 48.4827 186.777 49.4533 186.543 50.648C186.329 51.8427 186.223 53.304 186.223 55.032C186.223 56.824 186.329 58.328 186.543 59.544C186.756 60.76 187.204 61.7413 187.887 62.488C188.591 63.2347 189.615 63.608 190.959 63.608C192.303 63.608 193.316 63.2347 193.999 62.488C194.703 61.7413 195.161 60.76 195.375 59.544C195.588 58.328 195.695 56.824 195.695 55.032ZM202.691 62.136V59.384L213.443 43.96H217.859V58.968H220.835V62.136H217.859V67H214.275V62.136H202.691ZM214.435 47.672L206.883 58.968H214.435V47.672ZM246.186 53.88V56.952H233.034V53.88H246.186ZM275.233 51.384C275.233 52.5147 274.967 53.5813 274.433 54.584C273.9 55.5867 273.047 56.408 271.873 57.048C270.7 57.6667 269.196 57.976 267.361 57.976H263.329V67H259.681V44.76H267.361C269.068 44.76 270.508 45.0587 271.681 45.656C272.876 46.232 273.761 47.0213 274.337 48.024C274.935 49.0267 275.233 50.1467 275.233 51.384ZM267.361 55C268.748 55 269.783 54.6907 270.465 54.072C271.148 53.432 271.489 52.536 271.489 51.384C271.489 48.952 270.113 47.736 267.361 47.736H263.329V55H267.361ZM277.497 58.104C277.497 56.3333 277.859 54.7653 278.585 53.4C279.331 52.0347 280.334 50.9787 281.593 50.232C282.873 49.464 284.281 49.08 285.817 49.08C287.203 49.08 288.409 49.3573 289.433 49.912C290.478 50.4453 291.31 51.1173 291.929 51.928V49.368H295.609V67H291.929V64.376C291.31 65.208 290.467 65.9013 289.401 66.456C288.334 67.0107 287.118 67.288 285.753 67.288C284.238 67.288 282.851 66.904 281.593 66.136C280.334 65.3467 279.331 64.2587 278.585 62.872C277.859 61.464 277.497 59.8747 277.497 58.104ZM291.929 58.168C291.929 56.952 291.673 55.896 291.161 55C290.67 54.104 290.019 53.4213 289.209 52.952C288.398 52.4827 287.523 52.248 286.585 52.248C285.646 52.248 284.771 52.4827 283.961 52.952C283.15 53.4 282.489 54.072 281.977 54.968C281.486 55.8427 281.241 56.888 281.241 58.104C281.241 59.32 281.486 60.3867 281.977 61.304C282.489 62.2213 283.15 62.9253 283.961 63.416C284.793 63.8853 285.667 64.12 286.585 64.12C287.523 64.12 288.398 63.8853 289.209 63.416C290.019 62.9467 290.67 62.264 291.161 61.368C291.673 60.4507 291.929 59.384 291.929 58.168ZM307.504 49.08C308.869 49.08 310.075 49.3573 311.12 49.912C312.187 50.4453 313.019 51.1173 313.616 51.928V49.368H317.296V67.288C317.296 68.9093 316.955 70.3493 316.272 71.608C315.589 72.888 314.597 73.8907 313.296 74.616C312.016 75.3413 310.48 75.704 308.688 75.704C306.299 75.704 304.315 75.1387 302.736 74.008C301.157 72.8987 300.261 71.384 300.048 69.464H303.664C303.941 70.3813 304.528 71.1173 305.424 71.672C306.341 72.248 307.429 72.536 308.688 72.536C310.16 72.536 311.344 72.088 312.24 71.192C313.157 70.296 313.616 68.9947 313.616 67.288V64.344C312.997 65.176 312.155 65.88 311.088 66.456C310.043 67.0107 308.848 67.288 307.504 67.288C305.968 67.288 304.56 66.904 303.28 66.136C302.021 65.3467 301.019 64.2587 300.272 62.872C299.547 61.464 299.184 59.8747 299.184 58.104C299.184 56.3333 299.547 54.7653 300.272 53.4C301.019 52.0347 302.021 50.9787 303.28 50.232C304.56 49.464 305.968 49.08 307.504 49.08ZM313.616 58.168C313.616 56.952 313.36 55.896 312.848 55C312.357 54.104 311.707 53.4213 310.896 52.952C310.085 52.4827 309.211 52.248 308.272 52.248C307.333 52.248 306.459 52.4827 305.648 52.952C304.837 53.4 304.176 54.072 303.664 54.968C303.173 55.8427 302.928 56.888 302.928 58.104C302.928 59.32 303.173 60.3867 303.664 61.304C304.176 62.2213 304.837 62.9253 305.648 63.416C306.48 63.8853 307.355 64.12 308.272 64.12C309.211 64.12 310.085 63.8853 310.896 63.416C311.707 62.9467 312.357 62.264 312.848 61.368C313.36 60.4507 313.616 59.384 313.616 58.168ZM338.248 57.752C338.248 58.4133 338.205 59.0107 338.12 59.544H324.648C324.754 60.952 325.277 62.0827 326.216 62.936C327.154 63.7893 328.306 64.216 329.672 64.216C331.634 64.216 333.021 63.3947 333.832 61.752H337.767C337.234 63.3733 336.264 64.7067 334.856 65.752C333.469 66.776 331.741 67.288 329.672 67.288C327.986 67.288 326.472 66.9147 325.128 66.168C323.805 65.4 322.76 64.3333 321.992 62.968C321.245 61.5813 320.872 59.9813 320.872 58.168C320.872 56.3547 321.234 54.7653 321.96 53.4C322.706 52.0133 323.741 50.9467 325.064 50.2C326.408 49.4533 327.944 49.08 329.672 49.08C331.336 49.08 332.818 49.4427 334.12 50.168C335.421 50.8933 336.434 51.9173 337.16 53.24C337.885 54.5413 338.248 56.0453 338.248 57.752ZM334.44 56.6C334.418 55.256 333.938 54.1787 333 53.368C332.061 52.5573 330.898 52.152 329.512 52.152C328.253 52.152 327.176 52.5573 326.28 53.368C325.384 54.1573 324.85 55.2347 324.68 56.6H334.44ZM368.422 67H364.774L353.798 50.392V67H350.15V44.728H353.798L364.774 61.304V44.728H368.422V67ZM380.861 67.288C379.197 67.288 377.693 66.9147 376.349 66.168C375.005 65.4 373.949 64.3333 373.181 62.968C372.413 61.5813 372.029 59.9813 372.029 58.168C372.029 56.376 372.423 54.7867 373.213 53.4C374.002 52.0133 375.079 50.9467 376.445 50.2C377.81 49.4533 379.335 49.08 381.021 49.08C382.706 49.08 384.231 49.4533 385.597 50.2C386.962 50.9467 388.039 52.0133 388.829 53.4C389.618 54.7867 390.013 56.376 390.013 58.168C390.013 59.96 389.607 61.5493 388.797 62.936C387.986 64.3227 386.877 65.4 385.469 66.168C384.082 66.9147 382.546 67.288 380.861 67.288ZM380.861 64.12C381.799 64.12 382.674 63.896 383.485 63.448C384.317 63 384.989 62.328 385.501 61.432C386.013 60.536 386.269 59.448 386.269 58.168C386.269 56.888 386.023 55.8107 385.533 54.936C385.042 54.04 384.391 53.368 383.581 52.92C382.77 52.472 381.895 52.248 380.957 52.248C380.018 52.248 379.143 52.472 378.333 52.92C377.543 53.368 376.914 54.04 376.445 54.936C375.975 55.8107 375.741 56.888 375.741 58.168C375.741 60.0667 376.221 61.5387 377.181 62.584C378.162 63.608 379.389 64.12 380.861 64.12ZM397.875 52.344V62.104C397.875 62.7653 398.024 63.2453 398.323 63.544C398.643 63.8213 399.176 63.96 399.923 63.96H402.163V67H399.283C397.64 67 396.381 66.616 395.507 65.848C394.632 65.08 394.195 63.832 394.195 62.104V52.344H392.115V49.368H394.195V44.984H397.875V49.368H402.163V52.344H397.875ZM426.926 44.76V47.736H417.486V54.296H424.846V57.272H417.486V67H413.838V44.76H426.926ZM437.954 67.288C436.29 67.288 434.786 66.9147 433.442 66.168C432.098 65.4 431.042 64.3333 430.274 62.968C429.506 61.5813 429.122 59.9813 429.122 58.168C429.122 56.376 429.517 54.7867 430.306 53.4C431.096 52.0133 432.173 50.9467 433.538 50.2C434.904 49.4533 436.429 49.08 438.114 49.08C439.8 49.08 441.325 49.4533 442.69 50.2C444.056 50.9467 445.133 52.0133 445.922 53.4C446.712 54.7867 447.106 56.376 447.106 58.168C447.106 59.96 446.701 61.5493 445.89 62.936C445.08 64.3227 443.97 65.4 442.562 66.168C441.176 66.9147 439.64 67.288 437.954 67.288ZM437.954 64.12C438.893 64.12 439.768 63.896 440.578 63.448C441.41 63 442.082 62.328 442.594 61.432C443.106 60.536 443.362 59.448 443.362 58.168C443.362 56.888 443.117 55.8107 442.626 54.936C442.136 54.04 441.485 53.368 440.674 52.92C439.864 52.472 438.989 52.248 438.05 52.248C437.112 52.248 436.237 52.472 435.426 52.92C434.637 53.368 434.008 54.04 433.538 54.936C433.069 55.8107 432.834 56.888 432.834 58.168C432.834 60.0667 433.314 61.5387 434.274 62.584C435.256 63.608 436.482 64.12 437.954 64.12ZM466.681 49.368V67H463.033V64.92C462.457 65.6453 461.699 66.2213 460.761 66.648C459.843 67.0533 458.862 67.256 457.817 67.256C456.43 67.256 455.182 66.968 454.073 66.392C452.985 65.816 452.121 64.9627 451.481 63.832C450.862 62.7013 450.553 61.336 450.553 59.736V49.368H454.169V59.192C454.169 60.7707 454.563 61.9867 455.353 62.84C456.142 63.672 457.219 64.088 458.585 64.088C459.95 64.088 461.027 63.672 461.817 62.84C462.627 61.9867 463.033 60.7707 463.033 59.192V49.368H466.681ZM480.39 49.08C481.776 49.08 483.014 49.368 484.102 49.944C485.211 50.52 486.075 51.3733 486.694 52.504C487.312 53.6347 487.622 55 487.622 56.6V67H484.006V57.144C484.006 55.5653 483.611 54.36 482.822 53.528C482.032 52.6747 480.955 52.248 479.59 52.248C478.224 52.248 477.136 52.6747 476.326 53.528C475.536 54.36 475.142 55.5653 475.142 57.144V67H471.494V49.368H475.142V51.384C475.739 50.6587 476.496 50.0933 477.414 49.688C478.352 49.2827 479.344 49.08 480.39 49.08ZM491.059 58.104C491.059 56.3333 491.422 54.7653 492.147 53.4C492.894 52.0347 493.896 50.9787 495.155 50.232C496.435 49.464 497.854 49.08 499.411 49.08C500.563 49.08 501.694 49.336 502.803 49.848C503.934 50.3387 504.83 51 505.491 51.832V43.32H509.171V67H505.491V64.344C504.894 65.1973 504.062 65.9013 502.995 66.456C501.95 67.0107 500.744 67.288 499.379 67.288C497.843 67.288 496.435 66.904 495.155 66.136C493.896 65.3467 492.894 64.2587 492.147 62.872C491.422 61.464 491.059 59.8747 491.059 58.104ZM505.491 58.168C505.491 56.952 505.235 55.896 504.723 55C504.232 54.104 503.582 53.4213 502.771 52.952C501.96 52.4827 501.086 52.248 500.147 52.248C499.208 52.248 498.334 52.4827 497.523 52.952C496.712 53.4 496.051 54.072 495.539 54.968C495.048 55.8427 494.803 56.888 494.803 58.104C494.803 59.32 495.048 60.3867 495.539 61.304C496.051 62.2213 496.712 62.9253 497.523 63.416C498.355 63.8853 499.23 64.12 500.147 64.12C501.086 64.12 501.96 63.8853 502.771 63.416C503.582 62.9467 504.232 62.264 504.723 61.368C505.235 60.4507 505.491 59.384 505.491 58.168Z" fill="white"/>
<g clip-path="url(#clip0_208_18)">
<path d="M191.445 91.8613C191.445 89.7764 190.617 87.7768 189.143 86.3025C187.668 84.8282 185.669 84 183.584 84H167.861C165.776 84 163.777 84.8282 162.303 86.3025C160.828 87.7768 160 89.7764 160 91.8613V107.584C160 109.669 160.828 111.668 162.303 113.143C163.777 114.617 165.776 115.445 167.861 115.445H183.584C185.669 115.445 187.668 114.617 189.143 113.143C190.617 111.668 191.445 109.669 191.445 107.584V91.8613ZM184.067 92.7867C184.241 92.9236 184.386 93.0934 184.494 93.2865C184.602 93.4796 184.671 93.6921 184.696 93.9119C184.722 94.1316 184.704 94.3543 184.643 94.5671C184.583 94.7799 184.481 94.9786 184.343 95.1518L175.511 106.31C175.297 106.638 175.017 106.917 174.688 107.129C174.36 107.342 173.99 107.484 173.604 107.545C173.217 107.606 172.822 107.586 172.444 107.486C172.066 107.385 171.713 107.207 171.408 106.962L167.394 103.864C167.04 103.592 166.809 103.189 166.752 102.746C166.695 102.303 166.816 101.855 167.089 101.502C167.361 101.148 167.764 100.917 168.207 100.859C168.65 100.802 169.098 100.923 169.452 101.196L172.619 103.642C172.736 103.731 172.885 103.771 173.031 103.752C173.178 103.733 173.311 103.657 173.402 103.541L181.713 93.0585C181.99 92.7113 182.393 92.4879 182.834 92.4369C183.275 92.386 183.718 92.5118 184.067 92.7867Z" fill="white"/>
<path d="M184.494 93.2865C184.386 93.0934 184.241 92.9236 184.067 92.7867C183.718 92.5118 183.275 92.386 182.834 92.437C182.393 92.4879 181.99 92.7113 181.713 93.0585L173.403 103.541C173.311 103.657 173.178 103.733 173.031 103.752C172.885 103.771 172.737 103.731 172.619 103.642L169.452 101.196C169.098 100.923 168.65 100.802 168.207 100.859C167.764 100.917 167.362 101.148 167.089 101.502C166.816 101.855 166.695 102.303 166.752 102.746C166.809 103.189 167.04 103.592 167.394 103.864L171.408 106.962C171.713 107.207 172.066 107.385 172.444 107.486C172.823 107.586 173.218 107.606 173.604 107.545C173.991 107.484 174.36 107.342 174.688 107.129C175.017 106.917 175.297 106.638 175.512 106.31L184.343 95.1519C184.481 94.9786 184.583 94.7799 184.644 94.5671C184.704 94.3543 184.722 94.1317 184.697 93.9119C184.671 93.6921 184.602 93.4796 184.494 93.2865Z" fill="#F43F5E"/>
</g>
<path d="M218.053 92.6111V94.1624H214.07V107.223H212.162V94.1624H208.158V92.6111H218.053ZM226.103 95.525C226.97 95.525 227.752 95.7137 228.451 96.091C229.15 96.4544 229.695 97.0064 230.086 97.7471C230.492 98.4878 230.694 99.3893 230.694 100.451V107.223H228.807V100.724C228.807 99.5779 228.521 98.7045 227.948 98.1035C227.375 97.4886 226.592 97.1811 225.6 97.1811C224.594 97.1811 223.79 97.4956 223.189 98.1245C222.602 98.7534 222.309 99.6688 222.309 100.871V107.223H220.401V91.7096H222.309V97.3698C222.686 96.7828 223.203 96.3286 223.86 96.0072C224.531 95.6857 225.279 95.525 226.103 95.525ZM234.796 93.8689C234.432 93.8689 234.125 93.7431 233.873 93.4915C233.622 93.24 233.496 92.9325 233.496 92.5691C233.496 92.2058 233.622 91.8983 233.873 91.6467C234.125 91.3952 234.432 91.2694 234.796 91.2694C235.145 91.2694 235.439 91.3952 235.676 91.6467C235.928 91.8983 236.053 92.2058 236.053 92.5691C236.053 92.9325 235.928 93.24 235.676 93.4915C235.439 93.7431 235.145 93.8689 234.796 93.8689ZM235.718 95.7346V107.223H233.81V95.7346H235.718ZM243.036 107.411C242.156 107.411 241.366 107.265 240.667 106.971C239.969 106.664 239.417 106.244 239.011 105.713C238.606 105.168 238.382 104.546 238.34 103.848H240.311C240.367 104.421 240.632 104.889 241.108 105.252C241.597 105.615 242.233 105.797 243.015 105.797C243.742 105.797 244.315 105.636 244.734 105.315C245.154 104.994 245.363 104.588 245.363 104.099C245.363 103.596 245.14 103.226 244.692 102.988C244.245 102.736 243.553 102.492 242.617 102.254C241.764 102.031 241.066 101.807 240.521 101.583C239.99 101.346 239.528 101.003 239.137 100.556C238.76 100.095 238.571 99.4941 238.571 98.7534C238.571 98.1664 238.746 97.6283 239.095 97.1392C239.445 96.65 239.941 96.2657 240.584 95.9862C241.226 95.6927 241.96 95.546 242.785 95.546C244.056 95.546 245.084 95.8674 245.866 96.5103C246.649 97.1532 247.068 98.0336 247.124 99.1517H245.216C245.175 98.5507 244.93 98.0686 244.483 97.7052C244.049 97.3418 243.463 97.1601 242.722 97.1601C242.037 97.1601 241.492 97.3069 241.087 97.6004C240.681 97.8939 240.479 98.2782 240.479 98.7534C240.479 99.1307 240.598 99.4452 240.835 99.6967C241.087 99.9343 241.394 100.13 241.757 100.284C242.135 100.423 242.652 100.584 243.309 100.766C244.133 100.989 244.804 101.213 245.321 101.437C245.838 101.646 246.279 101.968 246.642 102.401C247.019 102.834 247.215 103.4 247.229 104.099C247.229 104.728 247.054 105.294 246.705 105.797C246.355 106.3 245.859 106.699 245.216 106.992C244.588 107.272 243.861 107.411 243.036 107.411ZM257.419 97.8519C257.796 97.1951 258.355 96.65 259.096 96.2168C259.85 95.7696 260.724 95.546 261.716 95.546C262.736 95.546 263.659 95.7905 264.483 96.2797C265.322 96.7688 265.979 97.4606 266.454 98.3551C266.929 99.2355 267.167 100.263 267.167 101.437C267.167 102.597 266.929 103.631 266.454 104.539C265.979 105.448 265.322 106.153 264.483 106.657C263.659 107.16 262.736 107.411 261.716 107.411C260.738 107.411 259.871 107.195 259.117 106.761C258.376 106.314 257.81 105.762 257.419 105.105V112.673H255.511V95.7346H257.419V97.8519ZM265.217 101.437C265.217 100.57 265.042 99.8155 264.693 99.1726C264.343 98.5298 263.868 98.0406 263.267 97.7052C262.68 97.3698 262.031 97.2021 261.318 97.2021C260.619 97.2021 259.969 97.3768 259.368 97.7262C258.781 98.0616 258.306 98.5577 257.943 99.2146C257.593 99.8574 257.419 100.605 257.419 101.458C257.419 102.324 257.593 103.086 257.943 103.743C258.306 104.386 258.781 104.882 259.368 105.231C259.969 105.567 260.619 105.734 261.318 105.734C262.031 105.734 262.68 105.567 263.267 105.231C263.868 104.882 264.343 104.386 264.693 103.743C265.042 103.086 265.217 102.317 265.217 101.437ZM268.965 101.437C268.965 100.263 269.202 99.2355 269.678 98.3551C270.153 97.4606 270.803 96.7688 271.627 96.2797C272.466 95.7905 273.395 95.546 274.415 95.546C275.422 95.546 276.295 95.7626 277.036 96.1958C277.776 96.6291 278.329 97.1741 278.692 97.831V95.7346H280.621V107.223H278.692V105.084C278.315 105.755 277.749 106.314 276.994 106.761C276.253 107.195 275.387 107.411 274.394 107.411C273.374 107.411 272.452 107.16 271.627 106.657C270.803 106.153 270.153 105.448 269.678 104.539C269.202 103.631 268.965 102.597 268.965 101.437ZM278.692 101.458C278.692 100.591 278.517 99.8365 278.168 99.1936C277.818 98.5507 277.343 98.0616 276.742 97.7262C276.155 97.3768 275.505 97.2021 274.793 97.2021C274.08 97.2021 273.43 97.3698 272.843 97.7052C272.256 98.0406 271.788 98.5298 271.439 99.1726C271.089 99.8155 270.914 100.57 270.914 101.437C270.914 102.317 271.089 103.086 271.439 103.743C271.788 104.386 272.256 104.882 272.843 105.231C273.43 105.567 274.08 105.734 274.793 105.734C275.505 105.734 276.155 105.567 276.742 105.231C277.343 104.882 277.818 104.386 278.168 103.743C278.517 103.086 278.692 102.324 278.692 101.458ZM288.582 95.546C289.574 95.546 290.441 95.7626 291.182 96.1958C291.936 96.6291 292.495 97.1741 292.859 97.831V95.7346H294.787V107.474C294.787 108.522 294.564 109.452 294.116 110.262C293.669 111.087 293.026 111.73 292.188 112.191C291.363 112.652 290.399 112.883 289.295 112.883C287.785 112.883 286.528 112.526 285.521 111.814C284.515 111.101 283.921 110.13 283.74 108.9H285.626C285.836 109.598 286.269 110.158 286.926 110.577C287.583 111.01 288.372 111.227 289.295 111.227C290.343 111.227 291.196 110.898 291.852 110.241C292.523 109.585 292.859 108.662 292.859 107.474V105.063C292.481 105.734 291.922 106.293 291.182 106.74C290.441 107.188 289.574 107.411 288.582 107.411C287.562 107.411 286.632 107.16 285.794 106.657C284.969 106.153 284.32 105.448 283.844 104.539C283.369 103.631 283.132 102.597 283.132 101.437C283.132 100.263 283.369 99.2355 283.844 98.3551C284.32 97.4606 284.969 96.7688 285.794 96.2797C286.632 95.7905 287.562 95.546 288.582 95.546ZM292.859 101.458C292.859 100.591 292.684 99.8365 292.335 99.1936C291.985 98.5507 291.51 98.0616 290.909 97.7262C290.322 97.3768 289.672 97.2021 288.959 97.2021C288.247 97.2021 287.597 97.3698 287.01 97.7052C286.423 98.0406 285.955 98.5298 285.605 99.1726C285.256 99.8155 285.081 100.57 285.081 101.437C285.081 102.317 285.256 103.086 285.605 103.743C285.955 104.386 286.423 104.882 287.01 105.231C287.597 105.567 288.247 105.734 288.959 105.734C289.672 105.734 290.322 105.567 290.909 105.231C291.51 104.882 291.985 104.386 292.335 103.743C292.684 103.086 292.859 102.324 292.859 101.458ZM308.493 101.038C308.493 101.402 308.472 101.786 308.43 102.191H299.248C299.318 103.323 299.702 104.211 300.401 104.854C301.114 105.483 301.973 105.797 302.979 105.797C303.804 105.797 304.489 105.608 305.034 105.231C305.593 104.84 305.984 104.323 306.208 103.68H308.262C307.955 104.784 307.34 105.685 306.417 106.384C305.495 107.069 304.349 107.411 302.979 107.411C301.889 107.411 300.911 107.167 300.045 106.678C299.192 106.188 298.521 105.497 298.032 104.602C297.543 103.694 297.298 102.646 297.298 101.458C297.298 100.27 297.536 99.2285 298.011 98.3341C298.486 97.4397 299.15 96.7548 300.003 96.2797C300.869 95.7905 301.861 95.546 302.979 95.546C304.07 95.546 305.034 95.7835 305.872 96.2587C306.711 96.7339 307.354 97.3907 307.801 98.2293C308.262 99.0538 308.493 99.9902 308.493 101.038ZM306.522 100.64C306.522 99.9134 306.362 99.2914 306.04 98.7743C305.719 98.2433 305.278 97.845 304.719 97.5794C304.174 97.2999 303.566 97.1601 302.896 97.1601C301.931 97.1601 301.107 97.4676 300.422 98.0825C299.751 98.6975 299.367 99.55 299.269 100.64H306.522ZM315.887 101.437C315.887 100.263 316.125 99.2355 316.6 98.3551C317.075 97.4606 317.725 96.7688 318.549 96.2797C319.388 95.7905 320.324 95.546 321.359 95.546C322.253 95.546 323.085 95.7556 323.853 96.1749C324.622 96.5802 325.209 97.1182 325.614 97.789V91.7096H327.543V107.223H325.614V105.063C325.237 105.748 324.678 106.314 323.937 106.761C323.196 107.195 322.33 107.411 321.338 107.411C320.317 107.411 319.388 107.16 318.549 106.657C317.725 106.153 317.075 105.448 316.6 104.539C316.125 103.631 315.887 102.597 315.887 101.437ZM325.614 101.458C325.614 100.591 325.439 99.8365 325.09 99.1936C324.741 98.5507 324.265 98.0616 323.665 97.7262C323.078 97.3768 322.428 97.2021 321.715 97.2021C321.002 97.2021 320.352 97.3698 319.765 97.7052C319.178 98.0406 318.71 98.5298 318.361 99.1726C318.011 99.8155 317.837 100.57 317.837 101.437C317.837 102.317 318.011 103.086 318.361 103.743C318.71 104.386 319.178 104.882 319.765 105.231C320.352 105.567 321.002 105.734 321.715 105.734C322.428 105.734 323.078 105.567 323.665 105.231C324.265 104.882 324.741 104.386 325.09 103.743C325.439 103.086 325.614 102.324 325.614 101.458ZM335.777 107.411C334.701 107.411 333.722 107.167 332.842 106.678C331.975 106.188 331.291 105.497 330.788 104.602C330.298 103.694 330.054 102.646 330.054 101.458C330.054 100.284 330.305 99.2495 330.808 98.3551C331.326 97.4466 332.024 96.7548 332.905 96.2797C333.785 95.7905 334.771 95.546 335.861 95.546C336.951 95.546 337.936 95.7905 338.817 96.2797C339.697 96.7548 340.389 97.4397 340.892 98.3341C341.409 99.2285 341.668 100.27 341.668 101.458C341.668 102.646 341.402 103.694 340.871 104.602C340.354 105.497 339.648 106.188 338.754 106.678C337.859 107.167 336.867 107.411 335.777 107.411ZM335.777 105.734C336.462 105.734 337.105 105.573 337.705 105.252C338.306 104.931 338.789 104.448 339.152 103.806C339.529 103.163 339.718 102.38 339.718 101.458C339.718 100.535 339.536 99.7526 339.173 99.1097C338.81 98.4669 338.334 97.9917 337.747 97.6842C337.16 97.3628 336.525 97.2021 335.84 97.2021C335.141 97.2021 334.498 97.3628 333.911 97.6842C333.338 97.9917 332.877 98.4669 332.527 99.1097C332.178 99.7526 332.003 100.535 332.003 101.458C332.003 102.394 332.171 103.184 332.507 103.827C332.856 104.469 333.317 104.952 333.89 105.273C334.463 105.58 335.092 105.734 335.777 105.734ZM354.658 101.038C354.658 101.402 354.637 101.786 354.595 102.191H345.413C345.483 103.323 345.867 104.211 346.566 104.854C347.278 105.483 348.138 105.797 349.144 105.797C349.969 105.797 350.654 105.608 351.199 105.231C351.758 104.84 352.149 104.323 352.373 103.68H354.427C354.12 104.784 353.505 105.685 352.582 106.384C351.66 107.069 350.514 107.411 349.144 107.411C348.054 107.411 347.076 107.167 346.209 106.678C345.357 106.188 344.686 105.497 344.197 104.602C343.708 103.694 343.463 102.646 343.463 101.458C343.463 100.27 343.701 99.2285 344.176 98.3341C344.651 97.4397 345.315 96.7548 346.167 96.2797C347.034 95.7905 348.026 95.546 349.144 95.546C350.234 95.546 351.199 95.7835 352.037 96.2587C352.876 96.7339 353.519 97.3907 353.966 98.2293C354.427 99.0538 354.658 99.9902 354.658 101.038ZM352.687 100.64C352.687 99.9134 352.526 99.2914 352.205 98.7743C351.883 98.2433 351.443 97.845 350.884 97.5794C350.339 97.2999 349.731 97.1601 349.06 97.1601C348.096 97.1601 347.271 97.4676 346.587 98.0825C345.916 98.6975 345.531 99.55 345.434 100.64H352.687ZM361.243 107.411C360.362 107.411 359.572 107.265 358.874 106.971C358.175 106.664 357.623 106.244 357.218 105.713C356.812 105.168 356.589 104.546 356.547 103.848H358.517C358.573 104.421 358.839 104.889 359.314 105.252C359.803 105.615 360.439 105.797 361.222 105.797C361.948 105.797 362.521 105.636 362.941 105.315C363.36 104.994 363.57 104.588 363.57 104.099C363.57 103.596 363.346 103.226 362.899 102.988C362.451 102.736 361.76 102.492 360.823 102.254C359.971 102.031 359.272 101.807 358.727 101.583C358.196 101.346 357.735 101.003 357.343 100.556C356.966 100.095 356.777 99.4941 356.777 98.7534C356.777 98.1664 356.952 97.6283 357.301 97.1392C357.651 96.65 358.147 96.2657 358.79 95.9862C359.433 95.6927 360.166 95.546 360.991 95.546C362.263 95.546 363.29 95.8674 364.073 96.5103C364.855 97.1532 365.275 98.0336 365.33 99.1517H363.423C363.381 98.5507 363.136 98.0686 362.689 97.7052C362.256 97.3418 361.669 97.1601 360.928 97.1601C360.243 97.1601 359.698 97.3069 359.293 97.6004C358.888 97.8939 358.685 98.2782 358.685 98.7534C358.685 99.1307 358.804 99.4452 359.041 99.6967C359.293 99.9343 359.6 100.13 359.964 100.284C360.341 100.423 360.858 100.584 361.515 100.766C362.34 100.989 363.01 101.213 363.528 101.437C364.045 101.646 364.485 101.968 364.848 102.401C365.226 102.834 365.421 103.4 365.435 104.099C365.435 104.728 365.261 105.294 364.911 105.797C364.562 106.3 364.066 106.699 363.423 106.992C362.794 107.272 362.067 107.411 361.243 107.411ZM379.314 95.525C380.712 95.525 381.844 95.9512 382.711 96.8038C383.577 97.6423 384.01 98.8582 384.01 100.451V107.223H382.124V100.724C382.124 99.5779 381.837 98.7045 381.264 98.1035C380.691 97.4886 379.908 97.1811 378.916 97.1811C377.91 97.1811 377.106 97.4956 376.505 98.1245C375.918 98.7534 375.625 99.6688 375.625 100.871V107.223H373.717V95.7346H375.625V97.3698C376.002 96.7828 376.512 96.3286 377.155 96.0072C377.812 95.6857 378.532 95.525 379.314 95.525ZM392.137 107.411C391.061 107.411 390.082 107.167 389.202 106.678C388.335 106.188 387.651 105.497 387.147 104.602C386.658 103.694 386.414 102.646 386.414 101.458C386.414 100.284 386.665 99.2495 387.168 98.3551C387.685 97.4466 388.384 96.7548 389.265 96.2797C390.145 95.7905 391.13 95.546 392.221 95.546C393.311 95.546 394.296 95.7905 395.176 96.2797C396.057 96.7548 396.749 97.4397 397.252 98.3341C397.769 99.2285 398.027 100.27 398.027 101.458C398.027 102.646 397.762 103.694 397.231 104.602C396.714 105.497 396.008 106.188 395.114 106.678C394.219 107.167 393.227 107.411 392.137 107.411ZM392.137 105.734C392.822 105.734 393.464 105.573 394.065 105.252C394.666 104.931 395.148 104.448 395.512 103.806C395.889 103.163 396.078 102.38 396.078 101.458C396.078 100.535 395.896 99.7526 395.533 99.1097C395.169 98.4669 394.694 97.9917 394.107 97.6842C393.52 97.3628 392.884 97.2021 392.2 97.2021C391.501 97.2021 390.858 97.3628 390.271 97.6842C389.698 97.9917 389.237 98.4669 388.887 99.1097C388.538 99.7526 388.363 100.535 388.363 101.458C388.363 102.394 388.531 103.184 388.866 103.827C389.216 104.469 389.677 104.952 390.25 105.273C390.823 105.58 391.452 105.734 392.137 105.734ZM402.863 97.3069V104.078C402.863 104.637 402.981 105.035 403.219 105.273C403.457 105.497 403.869 105.608 404.456 105.608H405.86V107.223H404.141C403.079 107.223 402.283 106.978 401.752 106.489C401.221 106 400.955 105.196 400.955 104.078V97.3069H399.467V95.7346H400.955V92.8417H402.863V95.7346H405.86V97.3069H402.863ZM424.242 101.038C424.242 101.402 424.222 101.786 424.18 102.191H414.998C415.067 103.323 415.452 104.211 416.151 104.854C416.863 105.483 417.723 105.797 418.729 105.797C419.554 105.797 420.238 105.608 420.784 105.231C421.343 104.84 421.734 104.323 421.957 103.68H424.012C423.704 104.784 423.089 105.685 422.167 106.384C421.245 107.069 420.099 107.411 418.729 107.411C417.639 107.411 416.661 107.167 415.794 106.678C414.942 106.188 414.271 105.497 413.782 104.602C413.293 103.694 413.048 102.646 413.048 101.458C413.048 100.27 413.286 99.2285 413.761 98.3341C414.236 97.4397 414.9 96.7548 415.752 96.2797C416.619 95.7905 417.611 95.546 418.729 95.546C419.819 95.546 420.784 95.7835 421.622 96.2587C422.461 96.7339 423.103 97.3907 423.551 98.2293C424.012 99.0538 424.242 99.9902 424.242 101.038ZM422.272 100.64C422.272 99.9134 422.111 99.2914 421.79 98.7743C421.468 98.2433 421.028 97.845 420.469 97.5794C419.924 97.2999 419.316 97.1601 418.645 97.1601C417.681 97.1601 416.856 97.4676 416.172 98.0825C415.501 98.6975 415.116 99.55 415.019 100.64H422.272ZM432.756 107.223L430.031 102.946L427.41 107.223H425.419L429.129 101.521L425.419 95.7346H427.578L430.303 99.9902L432.903 95.7346H434.894L431.205 101.416L434.915 107.223H432.756ZM437.777 93.8689C437.414 93.8689 437.106 93.7431 436.855 93.4915C436.603 93.24 436.477 92.9325 436.477 92.5691C436.477 92.2058 436.603 91.8983 436.855 91.6467C437.106 91.3952 437.414 91.2694 437.777 91.2694C438.127 91.2694 438.42 91.3952 438.658 91.6467C438.909 91.8983 439.035 92.2058 439.035 92.5691C439.035 92.9325 438.909 93.24 438.658 93.4915C438.42 93.7431 438.127 93.8689 437.777 93.8689ZM438.7 95.7346V107.223H436.792V95.7346H438.7ZM446.018 107.411C445.137 107.411 444.348 107.265 443.649 106.971C442.95 106.664 442.398 106.244 441.993 105.713C441.588 105.168 441.364 104.546 441.322 103.848H443.293C443.348 104.421 443.614 104.889 444.089 105.252C444.578 105.615 445.214 105.797 445.997 105.797C446.724 105.797 447.297 105.636 447.716 105.315C448.135 104.994 448.345 104.588 448.345 104.099C448.345 103.596 448.121 103.226 447.674 102.988C447.227 102.736 446.535 102.492 445.599 102.254C444.746 102.031 444.047 101.807 443.502 101.583C442.971 101.346 442.51 101.003 442.119 100.556C441.741 100.095 441.553 99.4941 441.553 98.7534C441.553 98.1664 441.727 97.6283 442.077 97.1392C442.426 96.65 442.922 96.2657 443.565 95.9862C444.208 95.6927 444.942 95.546 445.766 95.546C447.038 95.546 448.065 95.8674 448.848 96.5103C449.631 97.1532 450.05 98.0336 450.106 99.1517H448.198C448.156 98.5507 447.912 98.0686 447.464 97.7052C447.031 97.3418 446.444 97.1601 445.703 97.1601C445.019 97.1601 444.474 97.3069 444.068 97.6004C443.663 97.8939 443.46 98.2782 443.46 98.7534C443.46 99.1307 443.579 99.4452 443.817 99.6967C444.068 99.9343 444.376 100.13 444.739 100.284C445.116 100.423 445.634 100.584 446.29 100.766C447.115 100.989 447.786 101.213 448.303 101.437C448.82 101.646 449.26 101.968 449.624 102.401C450.001 102.834 450.197 103.4 450.211 104.099C450.211 104.728 450.036 105.294 449.686 105.797C449.337 106.3 448.841 106.699 448.198 106.992C447.569 107.272 446.842 107.411 446.018 107.411ZM455.23 97.3069V104.078C455.23 104.637 455.349 105.035 455.587 105.273C455.824 105.497 456.237 105.608 456.824 105.608H458.228V107.223H456.509C455.447 107.223 454.65 106.978 454.119 106.489C453.588 106 453.323 105.196 453.323 104.078V97.3069H451.834V95.7346H453.323V92.8417H455.23V95.7346H458.228V97.3069H455.23Z" fill="white"/>
<path d="M207.445 100.347H458.92V101.395H207.445V100.347Z" fill="white"/>
<g clip-path="url(#clip1_208_18)">
<path d="M220.448 130.443C221.738 131.733 222.463 133.482 222.463 135.307V151.029C222.463 152.854 221.738 154.603 220.448 155.893C219.158 157.183 217.408 157.908 215.584 157.908H199.861C198.037 157.908 196.287 157.183 194.997 155.893C193.707 154.603 192.983 152.854 192.983 151.029V135.307C192.983 133.482 193.707 131.733 194.997 130.443C196.287 129.153 198.037 128.428 199.861 128.428H215.584C217.408 128.428 219.158 129.153 220.448 130.443Z" stroke="white" stroke-width="1.96533" stroke-linecap="round" stroke-linejoin="round"/>
</g>
<path d="M252.548 150.668H250.64L242.967 139.033V150.668H241.06V136.035H242.967L250.64 147.649V136.035H252.548V150.668ZM255.087 144.882C255.087 143.708 255.324 142.681 255.799 141.8C256.275 140.906 256.925 140.214 257.749 139.725C258.588 139.236 259.517 138.991 260.537 138.991C261.543 138.991 262.417 139.208 263.158 139.641C263.898 140.074 264.45 140.619 264.814 141.276V139.18H266.742V150.668H264.814V148.53C264.436 149.2 263.87 149.759 263.116 150.207C262.375 150.64 261.509 150.857 260.516 150.857C259.496 150.857 258.574 150.605 257.749 150.102C256.925 149.599 256.275 148.893 255.799 147.985C255.324 147.076 255.087 146.042 255.087 144.882ZM264.814 144.903C264.814 144.036 264.639 143.282 264.29 142.639C263.94 141.996 263.465 141.507 262.864 141.171C262.277 140.822 261.627 140.647 260.915 140.647C260.202 140.647 259.552 140.815 258.965 141.15C258.378 141.486 257.91 141.975 257.56 142.618C257.211 143.261 257.036 144.015 257.036 144.882C257.036 145.762 257.211 146.531 257.56 147.188C257.91 147.831 258.378 148.327 258.965 148.676C259.552 149.012 260.202 149.179 260.915 149.179C261.627 149.179 262.277 149.012 262.864 148.676C263.465 148.327 263.94 147.831 264.29 147.188C264.639 146.531 264.814 145.769 264.814 144.903ZM274.243 148.907L277.807 139.18H279.84L275.333 150.668H273.111L268.604 139.18H270.658L274.243 148.907ZM282.703 137.314C282.339 137.314 282.032 137.188 281.78 136.937C281.529 136.685 281.403 136.378 281.403 136.014C281.403 135.651 281.529 135.344 281.78 135.092C282.032 134.84 282.339 134.715 282.703 134.715C283.052 134.715 283.345 134.84 283.583 135.092C283.835 135.344 283.96 135.651 283.96 136.014C283.96 136.378 283.835 136.685 283.583 136.937C283.345 137.188 283.052 137.314 282.703 137.314ZM283.625 139.18V150.668H281.717V139.18H283.625ZM291.614 138.991C292.606 138.991 293.473 139.208 294.213 139.641C294.968 140.074 295.527 140.619 295.891 141.276V139.18H297.819V150.919C297.819 151.968 297.596 152.897 297.148 153.708C296.701 154.532 296.058 155.175 295.22 155.636C294.395 156.097 293.431 156.328 292.327 156.328C290.817 156.328 289.56 155.972 288.553 155.259C287.547 154.546 286.953 153.575 286.771 152.345H288.658C288.868 153.044 289.301 153.603 289.958 154.022C290.615 154.455 291.404 154.672 292.327 154.672C293.375 154.672 294.227 154.343 294.884 153.687C295.555 153.03 295.891 152.107 295.891 150.919V148.509C295.513 149.179 294.954 149.738 294.213 150.186C293.473 150.633 292.606 150.857 291.614 150.857C290.594 150.857 289.664 150.605 288.826 150.102C288.001 149.599 287.351 148.893 286.876 147.985C286.401 147.076 286.163 146.042 286.163 144.882C286.163 143.708 286.401 142.681 286.876 141.8C287.351 140.906 288.001 140.214 288.826 139.725C289.664 139.236 290.594 138.991 291.614 138.991ZM295.891 144.903C295.891 144.036 295.716 143.282 295.366 142.639C295.017 141.996 294.542 141.507 293.941 141.171C293.354 140.822 292.704 140.647 291.991 140.647C291.279 140.647 290.629 140.815 290.042 141.15C289.455 141.486 288.987 141.975 288.637 142.618C288.288 143.261 288.113 144.015 288.113 144.882C288.113 145.762 288.288 146.531 288.637 147.188C288.987 147.831 289.455 148.327 290.042 148.676C290.629 149.012 291.279 149.179 291.991 149.179C292.704 149.179 293.354 149.012 293.941 148.676C294.542 148.327 295.017 147.831 295.366 147.188C295.716 146.531 295.891 145.769 295.891 144.903ZM300.33 144.882C300.33 143.708 300.568 142.681 301.043 141.8C301.518 140.906 302.168 140.214 302.993 139.725C303.831 139.236 304.76 138.991 305.781 138.991C306.787 138.991 307.66 139.208 308.401 139.641C309.142 140.074 309.694 140.619 310.057 141.276V139.18H311.986V150.668H310.057V148.53C309.68 149.2 309.114 149.759 308.359 150.207C307.619 150.64 306.752 150.857 305.76 150.857C304.74 150.857 303.817 150.605 302.993 150.102C302.168 149.599 301.518 148.893 301.043 147.985C300.568 147.076 300.33 146.042 300.33 144.882ZM310.057 144.903C310.057 144.036 309.883 143.282 309.533 142.639C309.184 141.996 308.709 141.507 308.108 141.171C307.521 140.822 306.871 140.647 306.158 140.647C305.445 140.647 304.795 140.815 304.208 141.15C303.621 141.486 303.153 141.975 302.804 142.618C302.455 143.261 302.28 144.015 302.28 144.882C302.28 145.762 302.455 146.531 302.804 147.188C303.153 147.831 303.621 148.327 304.208 148.676C304.795 149.012 305.445 149.179 306.158 149.179C306.871 149.179 307.521 149.012 308.108 148.676C308.709 148.327 309.184 147.831 309.533 147.188C309.883 146.531 310.057 145.769 310.057 144.903ZM317.537 140.752V147.523C317.537 148.082 317.655 148.481 317.893 148.718C318.131 148.942 318.543 149.054 319.13 149.054H320.534V150.668H318.815C317.753 150.668 316.957 150.423 316.426 149.934C315.895 149.445 315.629 148.641 315.629 147.523V140.752H314.141V139.18H315.629V136.287H317.537V139.18H320.534V140.752H317.537ZM333.328 144.484C333.328 144.847 333.307 145.231 333.265 145.637H324.083C324.153 146.769 324.537 147.656 325.236 148.299C325.948 148.928 326.808 149.242 327.814 149.242C328.639 149.242 329.324 149.054 329.869 148.676C330.428 148.285 330.819 147.768 331.043 147.125H333.097C332.79 148.229 332.175 149.131 331.252 149.829C330.33 150.514 329.184 150.857 327.814 150.857C326.724 150.857 325.746 150.612 324.879 150.123C324.027 149.634 323.356 148.942 322.867 148.047C322.378 147.139 322.133 146.091 322.133 144.903C322.133 143.715 322.371 142.674 322.846 141.779C323.321 140.885 323.985 140.2 324.837 139.725C325.704 139.236 326.696 138.991 327.814 138.991C328.904 138.991 329.869 139.229 330.707 139.704C331.546 140.179 332.189 140.836 332.636 141.675C333.097 142.499 333.328 143.435 333.328 144.484ZM331.357 144.085C331.357 143.359 331.196 142.737 330.875 142.22C330.553 141.689 330.113 141.29 329.554 141.025C329.009 140.745 328.401 140.605 327.73 140.605C326.766 140.605 325.941 140.913 325.257 141.528C324.586 142.143 324.201 142.995 324.104 144.085H331.357ZM343.762 140.752V147.523C343.762 148.082 343.88 148.481 344.118 148.718C344.355 148.942 344.768 149.054 345.355 149.054H346.759V150.668H345.04C343.978 150.668 343.182 150.423 342.65 149.934C342.119 149.445 341.854 148.641 341.854 147.523V140.752H340.365V139.18H341.854V136.287H343.762V139.18H346.759V140.752H343.762ZM354.081 150.857C353.005 150.857 352.027 150.612 351.146 150.123C350.28 149.634 349.595 148.942 349.092 148.047C348.602 147.139 348.358 146.091 348.358 144.903C348.358 143.729 348.609 142.695 349.113 141.8C349.63 140.892 350.328 140.2 351.209 139.725C352.089 139.236 353.075 138.991 354.165 138.991C355.255 138.991 356.24 139.236 357.121 139.725C358.001 140.2 358.693 140.885 359.196 141.779C359.713 142.674 359.972 143.715 359.972 144.903C359.972 146.091 359.706 147.139 359.175 148.047C358.658 148.942 357.952 149.634 357.058 150.123C356.163 150.612 355.171 150.857 354.081 150.857ZM354.081 149.179C354.766 149.179 355.409 149.019 356.01 148.697C356.611 148.376 357.093 147.894 357.456 147.251C357.833 146.608 358.022 145.825 358.022 144.903C358.022 143.981 357.84 143.198 357.477 142.555C357.114 141.912 356.638 141.437 356.052 141.129C355.465 140.808 354.829 140.647 354.144 140.647C353.445 140.647 352.802 140.808 352.215 141.129C351.642 141.437 351.181 141.912 350.832 142.555C350.482 143.198 350.308 143.981 350.308 144.903C350.308 145.839 350.475 146.629 350.811 147.272C351.16 147.915 351.621 148.397 352.194 148.718C352.767 149.026 353.396 149.179 354.081 149.179ZM367.356 144.882C367.356 143.708 367.594 142.681 368.069 141.8C368.544 140.906 369.194 140.214 370.018 139.725C370.857 139.236 371.786 138.991 372.807 138.991C373.813 138.991 374.686 139.208 375.427 139.641C376.168 140.074 376.72 140.619 377.083 141.276V139.18H379.012V150.668H377.083V148.53C376.706 149.2 376.14 149.759 375.385 150.207C374.644 150.64 373.778 150.857 372.786 150.857C371.765 150.857 370.843 150.605 370.018 150.102C369.194 149.599 368.544 148.893 368.069 147.985C367.594 147.076 367.356 146.042 367.356 144.882ZM377.083 144.903C377.083 144.036 376.908 143.282 376.559 142.639C376.21 141.996 375.735 141.507 375.134 141.171C374.547 140.822 373.897 140.647 373.184 140.647C372.471 140.647 371.821 140.815 371.234 141.15C370.647 141.486 370.179 141.975 369.83 142.618C369.48 143.261 369.306 144.015 369.306 144.882C369.306 145.762 369.48 146.531 369.83 147.188C370.179 147.831 370.647 148.327 371.234 148.676C371.821 149.012 372.471 149.179 373.184 149.179C373.897 149.179 374.547 149.012 375.134 148.676C375.735 148.327 376.21 147.831 376.559 147.188C376.908 146.531 377.083 145.769 377.083 144.903ZM387.112 144.882C387.112 143.708 387.349 142.681 387.825 141.8C388.3 140.906 388.95 140.214 389.774 139.725C390.613 139.236 391.549 138.991 392.583 138.991C393.478 138.991 394.309 139.201 395.078 139.62C395.847 140.025 396.434 140.563 396.839 141.234V135.155H398.767V150.668H396.839V148.509C396.461 149.193 395.902 149.759 395.162 150.207C394.421 150.64 393.555 150.857 392.562 150.857C391.542 150.857 390.613 150.605 389.774 150.102C388.95 149.599 388.3 148.893 387.825 147.985C387.349 147.076 387.112 146.042 387.112 144.882ZM396.839 144.903C396.839 144.036 396.664 143.282 396.315 142.639C395.965 141.996 395.49 141.507 394.889 141.171C394.302 140.822 393.652 140.647 392.94 140.647C392.227 140.647 391.577 140.815 390.99 141.15C390.403 141.486 389.935 141.975 389.585 142.618C389.236 143.261 389.061 144.015 389.061 144.882C389.061 145.762 389.236 146.531 389.585 147.188C389.935 147.831 390.403 148.327 390.99 148.676C391.577 149.012 392.227 149.179 392.94 149.179C393.652 149.179 394.302 149.012 394.889 148.676C395.49 148.327 395.965 147.831 396.315 147.188C396.664 146.531 396.839 145.769 396.839 144.903ZM402.977 137.314C402.613 137.314 402.306 137.188 402.054 136.937C401.803 136.685 401.677 136.378 401.677 136.014C401.677 135.651 401.803 135.344 402.054 135.092C402.306 134.84 402.613 134.715 402.977 134.715C403.326 134.715 403.619 134.84 403.857 135.092C404.109 135.344 404.234 135.651 404.234 136.014C404.234 136.378 404.109 136.685 403.857 136.937C403.619 137.188 403.326 137.314 402.977 137.314ZM403.899 139.18V150.668H401.991V139.18H403.899ZM411.825 140.752H409.414V150.668H407.507V140.752H406.018V139.18H407.507V138.362C407.507 137.077 407.835 136.14 408.492 135.553C409.163 134.952 410.232 134.652 411.699 134.652V136.245C410.861 136.245 410.267 136.413 409.917 136.748C409.582 137.07 409.414 137.608 409.414 138.362V139.18H411.825V140.752ZM418.724 140.752H416.313V150.668H414.406V140.752H412.917V139.18H414.406V138.362C414.406 137.077 414.734 136.14 415.391 135.553C416.062 134.952 417.131 134.652 418.598 134.652V136.245C417.76 136.245 417.166 136.413 416.817 136.748C416.481 137.07 416.313 137.608 416.313 138.362V139.18H418.724V140.752ZM431.43 144.484C431.43 144.847 431.409 145.231 431.367 145.637H422.185C422.255 146.769 422.64 147.656 423.338 148.299C424.051 148.928 424.911 149.242 425.917 149.242C426.741 149.242 427.426 149.054 427.971 148.676C428.53 148.285 428.922 147.768 429.145 147.125H431.2C430.892 148.229 430.277 149.131 429.355 149.829C428.432 150.514 427.286 150.857 425.917 150.857C424.827 150.857 423.848 150.612 422.982 150.123C422.129 149.634 421.459 148.942 420.969 148.047C420.48 147.139 420.236 146.091 420.236 144.903C420.236 143.715 420.473 142.674 420.948 141.779C421.424 140.885 422.087 140.2 422.94 139.725C423.806 139.236 424.799 138.991 425.917 138.991C427.007 138.991 427.971 139.229 428.81 139.704C429.648 140.179 430.291 140.836 430.738 141.675C431.2 142.499 431.43 143.435 431.43 144.484ZM429.46 144.085C429.46 143.359 429.299 142.737 428.977 142.22C428.656 141.689 428.216 141.29 427.657 141.025C427.112 140.745 426.504 140.605 425.833 140.605C424.869 140.605 424.044 140.913 423.359 141.528C422.688 142.143 422.304 142.995 422.206 144.085H429.46ZM435.856 141.046C436.191 140.389 436.667 139.879 437.281 139.515C437.91 139.152 438.672 138.97 439.567 138.97V140.941H439.063C436.925 140.941 435.856 142.101 435.856 144.421V150.668H433.948V139.18H435.856V141.046ZM452.25 144.484C452.25 144.847 452.229 145.231 452.188 145.637H443.006C443.075 146.769 443.46 147.656 444.159 148.299C444.871 148.928 445.731 149.242 446.737 149.242C447.562 149.242 448.246 149.054 448.791 148.676C449.35 148.285 449.742 147.768 449.965 147.125H452.02C451.712 148.229 451.097 149.131 450.175 149.829C449.253 150.514 448.107 150.857 446.737 150.857C445.647 150.857 444.669 150.612 443.802 150.123C442.95 149.634 442.279 148.942 441.79 148.047C441.3 147.139 441.056 146.091 441.056 144.903C441.056 143.715 441.293 142.674 441.769 141.779C442.244 140.885 442.908 140.2 443.76 139.725C444.627 139.236 445.619 138.991 446.737 138.991C447.827 138.991 448.791 139.229 449.63 139.704C450.469 140.179 451.111 140.836 451.559 141.675C452.02 142.499 452.25 143.435 452.25 144.484ZM450.28 144.085C450.28 143.359 450.119 142.737 449.798 142.22C449.476 141.689 449.036 141.29 448.477 141.025C447.932 140.745 447.324 140.605 446.653 140.605C445.689 140.605 444.864 140.913 444.179 141.528C443.509 142.143 443.124 142.995 443.026 144.085H450.28ZM460.366 138.97C461.763 138.97 462.895 139.397 463.762 140.249C464.628 141.088 465.062 142.303 465.062 143.897V150.668H463.175V144.169C463.175 143.023 462.888 142.15 462.315 141.549C461.742 140.934 460.96 140.626 459.967 140.626C458.961 140.626 458.158 140.941 457.557 141.57C456.97 142.199 456.676 143.114 456.676 144.316V150.668H454.768V139.18H456.676V140.815C457.054 140.228 457.564 139.774 458.207 139.452C458.863 139.131 459.583 138.97 460.366 138.97ZM470.505 140.752V147.523C470.505 148.082 470.624 148.481 470.861 148.718C471.099 148.942 471.511 149.054 472.098 149.054H473.503V150.668H471.783C470.721 150.668 469.925 150.423 469.394 149.934C468.863 149.445 468.597 148.641 468.597 147.523V140.752H467.109V139.18H468.597V136.287H470.505V139.18H473.503V140.752H470.505ZM483.31 141.297C483.688 140.64 484.247 140.095 484.988 139.662C485.742 139.215 486.616 138.991 487.608 138.991C488.628 138.991 489.551 139.236 490.375 139.725C491.214 140.214 491.871 140.906 492.346 141.8C492.821 142.681 493.059 143.708 493.059 144.882C493.059 146.042 492.821 147.076 492.346 147.985C491.871 148.893 491.214 149.599 490.375 150.102C489.551 150.605 488.628 150.857 487.608 150.857C486.63 150.857 485.763 150.64 485.009 150.207C484.268 149.759 483.702 149.207 483.31 148.551V156.118H481.403V139.18H483.31V141.297ZM491.109 144.882C491.109 144.015 490.934 143.261 490.585 142.618C490.235 141.975 489.76 141.486 489.159 141.15C488.572 140.815 487.922 140.647 487.21 140.647C486.511 140.647 485.861 140.822 485.26 141.171C484.673 141.507 484.198 142.003 483.835 142.66C483.485 143.303 483.31 144.05 483.31 144.903C483.31 145.769 483.485 146.531 483.835 147.188C484.198 147.831 484.673 148.327 485.26 148.676C485.861 149.012 486.511 149.179 487.21 149.179C487.922 149.179 488.572 149.012 489.159 148.676C489.76 148.327 490.235 147.831 490.585 147.188C490.934 146.531 491.109 145.762 491.109 144.882ZM494.857 144.882C494.857 143.708 495.094 142.681 495.57 141.8C496.045 140.906 496.695 140.214 497.519 139.725C498.358 139.236 499.287 138.991 500.307 138.991C501.314 138.991 502.187 139.208 502.928 139.641C503.668 140.074 504.22 140.619 504.584 141.276V139.18H506.512V150.668H504.584V148.53C504.206 149.2 503.64 149.759 502.886 150.207C502.145 150.64 501.279 150.857 500.286 150.857C499.266 150.857 498.344 150.605 497.519 150.102C496.695 149.599 496.045 148.893 495.57 147.985C495.094 147.076 494.857 146.042 494.857 144.882ZM504.584 144.903C504.584 144.036 504.409 143.282 504.06 142.639C503.71 141.996 503.235 141.507 502.634 141.171C502.047 140.822 501.397 140.647 500.685 140.647C499.972 140.647 499.322 140.815 498.735 141.15C498.148 141.486 497.68 141.975 497.33 142.618C496.981 143.261 496.806 144.015 496.806 144.882C496.806 145.762 496.981 146.531 497.33 147.188C497.68 147.831 498.148 148.327 498.735 148.676C499.322 149.012 499.972 149.179 500.685 149.179C501.397 149.179 502.047 149.012 502.634 148.676C503.235 148.327 503.71 147.831 504.06 147.188C504.409 146.531 504.584 145.769 504.584 144.903ZM514.474 138.991C515.466 138.991 516.333 139.208 517.073 139.641C517.828 140.074 518.387 140.619 518.751 141.276V139.18H520.679V150.919C520.679 151.968 520.456 152.897 520.008 153.708C519.561 154.532 518.918 155.175 518.08 155.636C517.255 156.097 516.291 156.328 515.187 156.328C513.677 156.328 512.42 155.972 511.413 155.259C510.407 154.546 509.813 153.575 509.631 152.345H511.518C511.728 153.044 512.161 153.603 512.818 154.022C513.475 154.455 514.264 154.672 515.187 154.672C516.235 154.672 517.087 154.343 517.744 153.687C518.415 153.03 518.751 152.107 518.751 150.919V148.509C518.373 149.179 517.814 149.738 517.073 150.186C516.333 150.633 515.466 150.857 514.474 150.857C513.454 150.857 512.524 150.605 511.686 150.102C510.861 149.599 510.211 148.893 509.736 147.985C509.261 147.076 509.024 146.042 509.024 144.882C509.024 143.708 509.261 142.681 509.736 141.8C510.211 140.906 510.861 140.214 511.686 139.725C512.524 139.236 513.454 138.991 514.474 138.991ZM518.751 144.903C518.751 144.036 518.576 143.282 518.226 142.639C517.877 141.996 517.402 141.507 516.801 141.171C516.214 140.822 515.564 140.647 514.851 140.647C514.139 140.647 513.489 140.815 512.902 141.15C512.315 141.486 511.847 141.975 511.497 142.618C511.148 143.261 510.973 144.015 510.973 144.882C510.973 145.762 511.148 146.531 511.497 147.188C511.847 147.831 512.315 148.327 512.902 148.676C513.489 149.012 514.139 149.179 514.851 149.179C515.564 149.179 516.214 149.012 516.801 148.676C517.402 148.327 517.877 147.831 518.226 147.188C518.576 146.531 518.751 145.769 518.751 144.903ZM534.385 144.484C534.385 144.847 534.364 145.231 534.322 145.637H525.14C525.21 146.769 525.594 147.656 526.293 148.299C527.006 148.928 527.865 149.242 528.871 149.242C529.696 149.242 530.381 149.054 530.926 148.676C531.485 148.285 531.876 147.768 532.1 147.125H534.154C533.847 148.229 533.232 149.131 532.309 149.829C531.387 150.514 530.241 150.857 528.871 150.857C527.781 150.857 526.803 150.612 525.936 150.123C525.084 149.634 524.413 148.942 523.924 148.047C523.435 147.139 523.19 146.091 523.19 144.903C523.19 143.715 523.428 142.674 523.903 141.779C524.378 140.885 525.042 140.2 525.895 139.725C526.761 139.236 527.753 138.991 528.871 138.991C529.961 138.991 530.926 139.229 531.764 139.704C532.603 140.179 533.246 140.836 533.693 141.675C534.154 142.499 534.385 143.435 534.385 144.484ZM532.414 144.085C532.414 143.359 532.253 142.737 531.932 142.22C531.611 141.689 531.17 141.29 530.611 141.025C530.066 140.745 529.458 140.605 528.788 140.605C527.823 140.605 526.999 140.913 526.314 141.528C525.643 142.143 525.259 142.995 525.161 144.085H532.414ZM540.634 135.868C542.018 135.868 543.136 136.259 543.989 137.042C544.841 137.824 545.267 138.872 545.267 140.186C545.267 141.654 544.813 142.744 543.905 143.456C542.996 144.155 541.766 144.505 540.215 144.505L540.152 146.496H538.496L538.412 143.184H539.02C540.404 143.184 541.487 142.974 542.27 142.555C543.052 142.136 543.443 141.346 543.443 140.186C543.443 139.348 543.192 138.684 542.689 138.195C542.186 137.705 541.508 137.461 540.655 137.461C539.789 137.461 539.104 137.698 538.601 138.174C538.112 138.635 537.867 139.271 537.867 140.081H536.064C536.064 139.243 536.253 138.509 536.63 137.88C537.008 137.237 537.539 136.741 538.224 136.392C538.922 136.042 539.726 135.868 540.634 135.868ZM539.314 150.794C538.95 150.794 538.643 150.668 538.391 150.416C538.14 150.165 538.014 149.857 538.014 149.494C538.014 149.131 538.14 148.823 538.391 148.572C538.643 148.32 538.95 148.194 539.314 148.194C539.663 148.194 539.957 148.32 540.194 148.572C540.446 148.823 540.571 149.131 540.571 149.494C540.571 149.857 540.446 150.165 540.194 150.416C539.957 150.668 539.663 150.794 539.314 150.794Z" fill="white"/>
<rect x="124" y="4" width="458.445" height="190.891" rx="20" stroke="white" stroke-width="8"/>
</g>
<defs>
<filter id="filter0_b_208_18" x="108" y="-12" width="490.445" height="222.891" filterUnits="userSpaceOnUse" color-interpolation-filters="sRGB">
<feFlood flood-opacity="0" result="BackgroundImageFix"/>
<feGaussianBlur in="BackgroundImageFix" stdDeviation="6"/>
<feComposite in2="SourceAlpha" operator="in" result="effect1_backgroundBlur_208_18"/>
<feBlend mode="normal" in="SourceGraphic" in2="effect1_backgroundBlur_208_18" result="shape"/>
</filter>
<clipPath id="clip0_208_18">
<rect width="31.4453" height="31.4453" fill="white" transform="translate(160 84)"/>
</clipPath>
<clipPath id="clip1_208_18">
<rect width="31.4453" height="31.4453" fill="white" transform="translate(192 127.445)"/>
</clipPath>
</defs>
</svg>
