<svg width="357" height="227" viewBox="0 0 357 227" fill="none" xmlns="http://www.w3.org/2000/svg">
<g filter="url(#filter0_b_101_182)">
<rect width="356.445" height="226.336" rx="10.4818" fill="#F43F5E" fill-opacity="0.85"/>
<path d="M43.4146 39.6092V41.8025H36.4574V46.6372H41.8817V48.8305H36.4574V56H33.7688V39.6092H43.4146ZM47.2741 41.2836C46.7867 41.2836 46.3779 41.1185 46.0477 40.7884C45.7176 40.4582 45.5525 40.0494 45.5525 39.562C45.5525 39.0746 45.7176 38.6658 46.0477 38.3356C46.3779 38.0055 46.7867 37.8404 47.2741 37.8404C47.7458 37.8404 48.1467 38.0055 48.4769 38.3356C48.8071 38.6658 48.9721 39.0746 48.9721 39.562C48.9721 40.0494 48.8071 40.4582 48.4769 40.7884C48.1467 41.1185 47.7458 41.2836 47.2741 41.2836ZM48.5948 43.0052V56H45.9062V43.0052H48.5948ZM57.3603 42.793C58.3665 42.793 59.2549 42.9974 60.0253 43.4062C60.8114 43.7992 61.4246 44.2945 61.8648 44.892V43.0052H64.577V56.2123C64.577 57.4072 64.3254 58.4685 63.8223 59.3961C63.3192 60.3394 62.5881 61.0784 61.629 61.613C60.6856 62.1475 59.5536 62.4148 58.2329 62.4148C56.472 62.4148 55.0098 61.9982 53.8463 61.1649C52.6828 60.3473 52.0225 59.231 51.8652 57.816H54.5302C54.7346 58.492 55.167 59.0345 55.8273 59.4433C56.5034 59.8678 57.3053 60.08 58.2329 60.08C59.3178 60.08 60.1904 59.7498 60.8507 59.0895C61.5268 58.4291 61.8648 57.4701 61.8648 56.2123V54.0425C61.4089 54.6557 60.7878 55.1746 60.0017 55.5991C59.2313 56.0079 58.3508 56.2123 57.3603 56.2123C56.2283 56.2123 55.1906 55.9292 54.2472 55.3632C53.3196 54.7815 52.5806 53.9796 52.0303 52.9577C51.4958 51.92 51.2285 50.7486 51.2285 49.4437C51.2285 48.1387 51.4958 46.9831 52.0303 45.9768C52.5806 44.9706 53.3196 44.1923 54.2472 43.642C55.1906 43.076 56.2283 42.793 57.3603 42.793ZM61.8648 49.4908C61.8648 48.5946 61.6762 47.8164 61.2988 47.156C60.9372 46.4957 60.4576 45.9925 59.8602 45.6466C59.2627 45.3008 58.6181 45.1278 57.9263 45.1278C57.2345 45.1278 56.5899 45.3008 55.9924 45.6466C55.395 45.9768 54.9076 46.4721 54.5302 47.1324C54.1686 47.7771 53.9878 48.5475 53.9878 49.4437C53.9878 50.3399 54.1686 51.126 54.5302 51.8021C54.9076 52.4781 55.395 52.997 55.9924 53.3586C56.6056 53.7045 57.2502 53.8774 57.9263 53.8774C58.6181 53.8774 59.2627 53.7045 59.8602 53.3586C60.4576 53.0127 60.9372 52.5096 61.2988 51.8492C61.6762 51.1732 61.8648 50.387 61.8648 49.4908ZM83.8388 42.793C84.8608 42.793 85.7727 43.0052 86.5745 43.4298C87.3921 43.8543 88.0289 44.4832 88.4848 45.3165C88.9565 46.1498 89.1923 47.156 89.1923 48.3352V56H86.5274V48.7361C86.5274 47.5727 86.2365 46.6843 85.6548 46.0712C85.073 45.4423 84.279 45.1278 83.2728 45.1278C82.2665 45.1278 81.4647 45.4423 80.8672 46.0712C80.2855 46.6843 79.9946 47.5727 79.9946 48.7361V56H77.3296V48.7361C77.3296 47.5727 77.0388 46.6843 76.457 46.0712C75.8753 45.4423 75.0813 45.1278 74.075 45.1278C73.0688 45.1278 72.2669 45.4423 71.6695 46.0712C71.0877 46.6843 70.7969 47.5727 70.7969 48.7361V56H68.1083V43.0052H70.7969V44.491C71.2371 43.9565 71.7953 43.5398 72.4713 43.2411C73.1474 42.9424 73.8706 42.793 74.6411 42.793C75.6787 42.793 76.6064 43.0131 77.424 43.4533C78.2415 43.8936 78.8704 44.5303 79.3107 45.3636C79.7037 44.5775 80.3169 43.9565 81.1502 43.5005C81.9835 43.0288 82.8797 42.793 83.8388 42.793ZM91.7173 49.4437C91.7173 48.1387 91.9846 46.9831 92.5192 45.9768C93.0694 44.9706 93.8084 44.1923 94.736 43.642C95.6794 43.076 96.7171 42.793 97.8491 42.793C98.8711 42.793 99.7594 42.9974 100.514 43.4062C101.285 43.7992 101.898 44.2945 102.354 44.892V43.0052H105.066V56H102.354V54.0661C101.898 54.6793 101.277 55.1903 100.491 55.5991C99.7044 56.0079 98.8082 56.2123 97.802 56.2123C96.6857 56.2123 95.6637 55.9292 94.736 55.3632C93.8084 54.7815 93.0694 53.9796 92.5192 52.9577C91.9846 51.92 91.7173 50.7486 91.7173 49.4437ZM102.354 49.4908C102.354 48.5946 102.165 47.8164 101.788 47.156C101.426 46.4957 100.946 45.9925 100.349 45.6466C99.7516 45.3008 99.1069 45.1278 98.4151 45.1278C97.7233 45.1278 97.0787 45.3008 96.4813 45.6466C95.8838 45.9768 95.3964 46.4721 95.0191 47.1324C94.6574 47.7771 94.4766 48.5475 94.4766 49.4437C94.4766 50.3399 94.6574 51.126 95.0191 51.8021C95.3964 52.4781 95.8838 52.997 96.4813 53.3586C97.0944 53.7045 97.7391 53.8774 98.4151 53.8774C99.1069 53.8774 99.7516 53.7045 100.349 53.3586C100.946 53.0127 101.426 52.5096 101.788 51.8492C102.165 51.1732 102.354 50.387 102.354 49.4908ZM125.313 39.6092V41.8025H120.95V56H118.261V41.8025H113.874V39.6092H125.313ZM127.139 49.4437C127.139 48.1387 127.407 46.9831 127.941 45.9768C128.491 44.9706 129.23 44.1923 130.158 43.642C131.101 43.076 132.139 42.793 133.271 42.793C134.293 42.793 135.181 42.9974 135.936 43.4062C136.706 43.7992 137.32 44.2945 137.776 44.892V43.0052H140.488V56H137.776V54.0661C137.32 54.6793 136.699 55.1903 135.913 55.5991C135.126 56.0079 134.23 56.2123 133.224 56.2123C132.108 56.2123 131.086 55.9292 130.158 55.3632C129.23 54.7815 128.491 53.9796 127.941 52.9577C127.407 51.92 127.139 50.7486 127.139 49.4437ZM137.776 49.4908C137.776 48.5946 137.587 47.8164 137.21 47.156C136.848 46.4957 136.368 45.9925 135.771 45.6466C135.174 45.3008 134.529 45.1278 133.837 45.1278C133.145 45.1278 132.501 45.3008 131.903 45.6466C131.306 45.9768 130.818 46.4721 130.441 47.1324C130.079 47.7771 129.899 48.5475 129.899 49.4437C129.899 50.3399 130.079 51.126 130.441 51.8021C130.818 52.4781 131.306 52.997 131.903 53.3586C132.516 53.7045 133.161 53.8774 133.837 53.8774C134.529 53.8774 135.174 53.7045 135.771 53.3586C136.368 53.0127 136.848 52.5096 137.21 51.8492C137.587 51.1732 137.776 50.387 137.776 49.4908ZM148.736 56.2123C147.714 56.2123 146.794 56.0314 145.977 55.6698C145.175 55.2925 144.538 54.7894 144.066 54.1605C143.595 53.5158 143.343 52.8004 143.312 52.0143H146.094C146.142 52.5646 146.401 53.0284 146.873 53.4058C147.36 53.7674 147.965 53.9482 148.689 53.9482C149.443 53.9482 150.025 53.8067 150.434 53.5237C150.858 53.225 151.071 52.8476 151.071 52.3917C151.071 51.9043 150.835 51.5426 150.363 51.3068C149.907 51.071 149.176 50.8115 148.17 50.5285C147.195 50.2612 146.401 50.0018 145.788 49.7503C145.175 49.4987 144.64 49.1135 144.184 48.5946C143.744 48.0758 143.524 47.3919 143.524 46.5428C143.524 45.851 143.728 45.2221 144.137 44.6561C144.546 44.0744 145.128 43.6184 145.882 43.2883C146.653 42.9581 147.533 42.793 148.524 42.793C150.002 42.793 151.189 43.1703 152.085 43.925C152.997 44.664 153.484 45.6781 153.547 46.9674H150.858C150.811 46.3856 150.575 45.9218 150.151 45.5759C149.726 45.23 149.153 45.0571 148.429 45.0571C147.722 45.0571 147.179 45.1907 146.802 45.458C146.425 45.7253 146.236 46.079 146.236 46.5193C146.236 46.8652 146.362 47.156 146.613 47.3919C146.865 47.6277 147.171 47.8164 147.533 47.9579C147.895 48.0837 148.429 48.2487 149.137 48.4531C150.08 48.7047 150.851 48.9641 151.448 49.2314C152.061 49.483 152.588 49.8603 153.028 50.3634C153.468 50.8666 153.696 51.5348 153.712 52.3681C153.712 53.107 153.508 53.7674 153.099 54.3491C152.69 54.9309 152.108 55.3868 151.354 55.717C150.615 56.0472 149.742 56.2123 148.736 56.2123ZM161.758 49.5144L167.749 56H164.117L159.306 50.4106V56H156.617V38.5479H159.306V48.689L164.023 43.0052H167.749L161.758 49.5144ZM181.203 56.1651C180.102 56.1651 179.112 55.9764 178.231 55.5991C177.351 55.206 176.659 54.6557 176.156 53.9482C175.653 53.2407 175.401 52.4152 175.401 51.4719H178.278C178.341 52.1794 178.617 52.7611 179.104 53.2171C179.607 53.6731 180.307 53.901 181.203 53.901C182.131 53.901 182.854 53.6809 183.373 53.2407C183.891 52.7847 184.151 52.203 184.151 51.4955C184.151 50.9452 183.986 50.4971 183.656 50.1512C183.341 49.8053 182.94 49.538 182.453 49.3493C181.981 49.1607 181.321 48.9563 180.472 48.7361C179.403 48.4531 178.53 48.1701 177.854 47.8871C177.194 47.5884 176.628 47.1324 176.156 46.5193C175.684 45.9061 175.448 45.0885 175.448 44.0665C175.448 43.1232 175.684 42.2977 176.156 41.5902C176.628 40.8827 177.288 40.3403 178.137 39.9629C178.986 39.5856 179.969 39.3969 181.085 39.3969C182.673 39.3969 183.97 39.7978 184.976 40.5997C185.998 41.3858 186.564 42.4707 186.674 43.8543H183.703C183.656 43.2568 183.373 42.7458 182.854 42.3213C182.335 41.8968 181.651 41.6845 180.802 41.6845C180.032 41.6845 179.403 41.8811 178.915 42.2741C178.428 42.6672 178.184 43.2332 178.184 43.9722C178.184 44.4753 178.333 44.892 178.632 45.2221C178.947 45.5366 179.34 45.7882 179.811 45.9768C180.283 46.1655 180.928 46.3699 181.745 46.59C182.83 46.8887 183.711 47.1875 184.387 47.4862C185.079 47.7849 185.66 48.2487 186.132 48.8776C186.619 49.4908 186.863 50.3163 186.863 51.354C186.863 52.1873 186.635 52.9734 186.179 53.7124C185.739 54.4513 185.086 55.0488 184.222 55.5047C183.373 55.945 182.366 56.1651 181.203 56.1651ZM196.757 42.793C197.747 42.793 198.628 43.0052 199.398 43.4298C200.184 43.8543 200.798 44.4832 201.238 45.3165C201.694 46.1498 201.922 47.156 201.922 48.3352V56H199.257V48.7361C199.257 47.5727 198.966 46.6843 198.384 46.0712C197.802 45.4423 197.008 45.1278 196.002 45.1278C194.996 45.1278 194.194 45.4423 193.597 46.0712C193.015 46.6843 192.724 47.5727 192.724 48.7361V56H190.035V38.5479H192.724V44.5146C193.18 43.9643 193.754 43.5398 194.446 43.2411C195.153 42.9424 195.924 42.793 196.757 42.793ZM217.261 49.1842C217.261 49.6716 217.23 50.1119 217.167 50.5049H207.238C207.317 51.5426 207.702 52.3759 208.394 53.0048C209.085 53.6337 209.934 53.9482 210.941 53.9482C212.387 53.9482 213.409 53.3429 214.006 52.1322H216.907C216.514 53.3272 215.799 54.3098 214.761 55.0802C213.739 55.8349 212.466 56.2123 210.941 56.2123C209.698 56.2123 208.582 55.9371 207.592 55.3868C206.617 54.8208 205.846 54.0347 205.28 53.0284C204.73 52.0065 204.455 50.8273 204.455 49.4908C204.455 48.1544 204.722 46.9831 205.257 45.9768C205.807 44.9549 206.57 44.1687 207.544 43.6184C208.535 43.0681 209.667 42.793 210.941 42.793C212.167 42.793 213.26 43.0603 214.219 43.5948C215.178 44.1294 215.925 44.8841 216.459 45.8589C216.994 46.818 217.261 47.9264 217.261 49.1842ZM214.455 48.3352C214.439 47.3447 214.085 46.5507 213.393 45.9532C212.702 45.3558 211.845 45.0571 210.823 45.0571C209.895 45.0571 209.101 45.3558 208.441 45.9532C207.78 46.535 207.387 47.329 207.261 48.3352H214.455ZM231.817 49.1842C231.817 49.6716 231.785 50.1119 231.722 50.5049H221.794C221.872 51.5426 222.257 52.3759 222.949 53.0048C223.641 53.6337 224.49 53.9482 225.496 53.9482C226.943 53.9482 227.965 53.3429 228.562 52.1322H231.463C231.07 53.3272 230.355 54.3098 229.317 55.0802C228.295 55.8349 227.021 56.2123 225.496 56.2123C224.254 56.2123 223.138 55.9371 222.147 55.3868C221.173 54.8208 220.402 54.0347 219.836 53.0284C219.286 52.0065 219.011 50.8273 219.011 49.4908C219.011 48.1544 219.278 46.9831 219.813 45.9768C220.363 44.9549 221.125 44.1687 222.1 43.6184C223.091 43.0681 224.223 42.793 225.496 42.793C226.723 42.793 227.815 43.0603 228.774 43.5948C229.734 44.1294 230.48 44.8841 231.015 45.8589C231.549 46.818 231.817 47.9264 231.817 49.1842ZM229.01 48.3352C228.995 47.3447 228.641 46.5507 227.949 45.9532C227.257 45.3558 226.4 45.0571 225.378 45.0571C224.451 45.0571 223.657 45.3558 222.996 45.9532C222.336 46.535 221.943 47.329 221.817 48.3352H229.01ZM237.599 45.1986V52.3917C237.599 52.8791 237.709 53.2328 237.929 53.4529C238.165 53.6573 238.558 53.7595 239.109 53.7595H240.76V56H238.637C237.426 56 236.499 55.717 235.854 55.151C235.209 54.585 234.887 53.6652 234.887 52.3917V45.1986H233.354V43.0052H234.887V39.7742H237.599V43.0052H240.76V45.1986H237.599Z" fill="white"/>
<g clip-path="url(#clip0_101_182)">
<path d="M63.4453 83.8613C63.4453 81.7764 62.617 79.7768 61.1427 78.3025C59.6684 76.8282 57.6689 76 55.5839 76H39.8613C37.7764 76 35.7768 76.8282 34.3025 78.3025C32.8282 79.7768 32 81.7764 32 83.8613V99.5839C32 101.669 32.8282 103.668 34.3025 105.143C35.7768 106.617 37.7764 107.445 39.8613 107.445H55.5839C57.6689 107.445 59.6684 106.617 61.1427 105.143C62.617 103.668 63.4453 101.669 63.4453 99.5839V83.8613ZM56.0669 84.7867C56.2407 84.9236 56.3858 85.0934 56.4938 85.2865C56.6019 85.4796 56.6707 85.6921 56.6963 85.9119C56.722 86.1316 56.704 86.3543 56.6434 86.5671C56.5828 86.7799 56.4807 86.9786 56.3431 87.1518L47.5115 98.3104C47.2972 98.6378 47.0168 98.9168 46.6883 99.1294C46.3598 99.342 45.9904 99.4835 45.6039 99.5448C45.2175 99.6062 44.8224 99.586 44.4442 99.4856C44.066 99.3852 43.713 99.2067 43.4079 98.9618L39.3941 95.8644C39.0403 95.5916 38.8093 95.1894 38.752 94.7462C38.6947 94.3031 38.8158 93.8554 39.0887 93.5015C39.3615 93.1477 39.7637 92.9167 40.2068 92.8594C40.65 92.8021 41.0977 92.9232 41.4515 93.1961L44.6185 95.6421C44.7364 95.7313 44.8845 95.7708 45.0312 95.7519C45.1778 95.733 45.3111 95.6572 45.4024 95.541L53.7129 85.0585C53.9898 84.7113 54.3928 84.4879 54.8338 84.4369C55.2749 84.386 55.7182 84.5118 56.0669 84.7867Z" fill="white"/>
<path d="M56.4939 85.2865C56.3859 85.0934 56.2408 84.9235 56.067 84.7867C55.7183 84.5118 55.275 84.386 54.8339 84.4369C54.3929 84.4879 53.9899 84.7113 53.7131 85.0585L45.4025 95.541C45.3112 95.6572 45.1779 95.733 45.0313 95.7519C44.8846 95.7708 44.7365 95.7313 44.6186 95.642L41.4517 93.196C41.0978 92.9232 40.6501 92.8021 40.2069 92.8594C39.7638 92.9167 39.3616 93.1477 39.0888 93.5015C38.8159 93.8554 38.6948 94.3031 38.7521 94.7462C38.8094 95.1894 39.0404 95.5916 39.3942 95.8644L43.408 98.9618C43.7131 99.2067 44.0661 99.3852 44.4443 99.4856C44.8226 99.586 45.2176 99.6062 45.604 99.5448C45.9905 99.4835 46.3599 99.342 46.6884 99.1294C47.0169 98.9168 47.2973 98.6378 47.5116 98.3104L56.3432 87.1518C56.4809 86.9786 56.5829 86.7799 56.6435 86.5671C56.7041 86.3543 56.7221 86.1316 56.6965 85.9119C56.6708 85.6921 56.602 85.4796 56.4939 85.2865Z" fill="#F43F5E"/>
</g>
<path d="M90.8284 88.8876C90.8284 90.1035 90.4092 91.1168 89.5706 91.9274C88.7461 92.724 87.4813 93.1223 85.7762 93.1223H82.9671V99.2227H81.0594V84.6111H85.7762C87.4254 84.6111 88.6762 85.0094 89.5287 85.806C90.3952 86.6026 90.8284 87.6298 90.8284 88.8876ZM85.7762 91.55C86.8384 91.55 87.621 91.3194 88.1241 90.8582C88.6273 90.397 88.8788 89.7402 88.8788 88.8876C88.8788 87.0848 87.8446 86.1834 85.7762 86.1834H82.9671V91.55H85.7762ZM95.1071 89.6004C95.4425 88.9436 95.9177 88.4334 96.5326 88.0701C97.1615 87.7067 97.9232 87.525 98.8177 87.525V89.4956H98.3145C96.1763 89.4956 95.1071 90.6556 95.1071 92.9755V99.2227H93.1994V87.7347H95.1071V89.6004ZM111.502 93.0384C111.502 93.4018 111.481 93.7861 111.439 94.1914H102.257C102.327 95.3234 102.711 96.2109 103.41 96.8538C104.122 97.4827 104.982 97.7971 105.988 97.7971C106.813 97.7971 107.498 97.6085 108.043 97.2311C108.602 96.8398 108.993 96.3227 109.217 95.6798H111.271C110.963 96.7839 110.349 97.6853 109.426 98.3841C108.504 99.0689 107.358 99.4113 105.988 99.4113C104.898 99.4113 103.92 99.1668 103.053 98.6776C102.201 98.1885 101.53 97.4967 101.041 96.6022C100.552 95.6938 100.307 94.6456 100.307 93.4577C100.307 92.2698 100.545 91.2286 101.02 90.3341C101.495 89.4397 102.159 88.7549 103.011 88.2797C103.878 87.7906 104.87 87.546 105.988 87.546C107.078 87.546 108.043 87.7836 108.881 88.2587C109.72 88.7339 110.363 89.3908 110.81 90.2293C111.271 91.0539 111.502 91.9902 111.502 93.0384ZM109.531 92.6401C109.531 91.9134 109.37 91.2915 109.049 90.7744C108.727 90.2433 108.287 89.845 107.728 89.5794C107.183 89.2999 106.575 89.1602 105.904 89.1602C104.94 89.1602 104.115 89.4676 103.431 90.0826C102.76 90.6975 102.375 91.55 102.278 92.6401H109.531ZM115.927 89.852C116.305 89.1951 116.864 88.6501 117.604 88.2168C118.359 87.7696 119.233 87.546 120.225 87.546C121.245 87.546 122.167 87.7906 122.992 88.2797C123.831 88.7689 124.487 89.4607 124.963 90.3551C125.438 91.2356 125.675 92.2628 125.675 93.4367C125.675 94.5967 125.438 95.6309 124.963 96.5393C124.487 97.4477 123.831 98.1535 122.992 98.6566C122.167 99.1598 121.245 99.4113 120.225 99.4113C119.247 99.4113 118.38 99.1947 117.625 98.7615C116.885 98.3142 116.319 97.7622 115.927 97.1053V104.673H114.02V87.7347H115.927V89.852ZM123.726 93.4367C123.726 92.5702 123.551 91.8156 123.202 91.1727C122.852 90.5298 122.377 90.0406 121.776 89.7052C121.189 89.3698 120.539 89.2021 119.827 89.2021C119.128 89.2021 118.478 89.3768 117.877 89.7262C117.29 90.0616 116.815 90.5577 116.451 91.2146C116.102 91.8575 115.927 92.6052 115.927 93.4577C115.927 94.3242 116.102 95.0859 116.451 95.7427C116.815 96.3856 117.29 96.8817 117.877 97.2311C118.478 97.5665 119.128 97.7342 119.827 97.7342C120.539 97.7342 121.189 97.5665 121.776 97.2311C122.377 96.8817 122.852 96.3856 123.202 95.7427C123.551 95.0859 123.726 94.3172 123.726 93.4367ZM127.474 93.4367C127.474 92.2628 127.711 91.2356 128.186 90.3551C128.662 89.4607 129.311 88.7689 130.136 88.2797C130.975 87.7906 131.904 87.546 132.924 87.546C133.93 87.546 134.804 87.7626 135.545 88.1959C136.285 88.6291 136.837 89.1741 137.201 89.831V87.7347H139.129V99.2227H137.201V97.0844C136.823 97.7552 136.257 98.3142 135.503 98.7615C134.762 99.1947 133.895 99.4113 132.903 99.4113C131.883 99.4113 130.961 99.1598 130.136 98.6566C129.311 98.1535 128.662 97.4477 128.186 96.5393C127.711 95.6309 127.474 94.5967 127.474 93.4367ZM137.201 93.4577C137.201 92.5912 137.026 91.8365 136.677 91.1936C136.327 90.5508 135.852 90.0616 135.251 89.7262C134.664 89.3768 134.014 89.2021 133.301 89.2021C132.589 89.2021 131.939 89.3698 131.352 89.7052C130.765 90.0406 130.297 90.5298 129.947 91.1727C129.598 91.8156 129.423 92.5702 129.423 93.4367C129.423 94.3172 129.598 95.0859 129.947 95.7427C130.297 96.3856 130.765 96.8817 131.352 97.2311C131.939 97.5665 132.589 97.7342 133.301 97.7342C134.014 97.7342 134.664 97.5665 135.251 97.2311C135.852 96.8817 136.327 96.3856 136.677 95.7427C137.026 95.0859 137.201 94.3242 137.201 93.4577ZM144.261 89.6004C144.596 88.9436 145.071 88.4334 145.686 88.0701C146.315 87.7067 147.077 87.525 147.971 87.525V89.4956H147.468C145.33 89.4956 144.261 90.6556 144.261 92.9755V99.2227H142.353V87.7347H144.261V89.6004ZM160.655 93.0384C160.655 93.4018 160.634 93.7861 160.592 94.1914H151.41C151.48 95.3234 151.865 96.2109 152.563 96.8538C153.276 97.4827 154.136 97.7971 155.142 97.7971C155.966 97.7971 156.651 97.6085 157.196 97.2311C157.755 96.8398 158.147 96.3227 158.37 95.6798H160.425C160.117 96.7839 159.502 97.6853 158.58 98.3841C157.657 99.0689 156.511 99.4113 155.142 99.4113C154.052 99.4113 153.073 99.1668 152.207 98.6776C151.354 98.1885 150.684 97.4967 150.194 96.6022C149.705 95.6938 149.461 94.6456 149.461 93.4577C149.461 92.2698 149.698 91.2286 150.173 90.3341C150.649 89.4397 151.313 88.7549 152.165 88.2797C153.032 87.7906 154.024 87.546 155.142 87.546C156.232 87.546 157.196 87.7836 158.035 88.2587C158.873 88.7339 159.516 89.3908 159.963 90.2293C160.425 91.0539 160.655 91.9902 160.655 93.0384ZM158.685 92.6401C158.685 91.9134 158.524 91.2915 158.203 90.7744C157.881 90.2433 157.441 89.845 156.882 89.5794C156.337 89.2999 155.729 89.1602 155.058 89.1602C154.094 89.1602 153.269 89.4676 152.584 90.0826C151.913 90.6975 151.529 91.55 151.431 92.6401H158.685ZM170.67 97.6714H175.785V99.2227H168.762V84.6111H170.67V97.6714ZM177.098 93.4367C177.098 92.2628 177.336 91.2356 177.811 90.3551C178.286 89.4607 178.936 88.7689 179.761 88.2797C180.599 87.7906 181.528 87.546 182.549 87.546C183.555 87.546 184.428 87.7626 185.169 88.1959C185.91 88.6291 186.462 89.1741 186.825 89.831V87.7347H188.754V99.2227H186.825V97.0844C186.448 97.7552 185.882 98.3142 185.127 98.7615C184.386 99.1947 183.52 99.4113 182.528 99.4113C181.507 99.4113 180.585 99.1598 179.761 98.6566C178.936 98.1535 178.286 97.4477 177.811 96.5393C177.336 95.6309 177.098 94.5967 177.098 93.4367ZM186.825 93.4577C186.825 92.5912 186.651 91.8365 186.301 91.1936C185.952 90.5508 185.477 90.0616 184.876 89.7262C184.289 89.3768 183.639 89.2021 182.926 89.2021C182.213 89.2021 181.563 89.3698 180.976 89.7052C180.389 90.0406 179.921 90.5298 179.572 91.1727C179.222 91.8156 179.048 92.5702 179.048 93.4367C179.048 94.3172 179.222 95.0859 179.572 95.7427C179.921 96.3856 180.389 96.8817 180.976 97.2311C181.563 97.5665 182.213 97.7342 182.926 97.7342C183.639 97.7342 184.289 97.5665 184.876 97.2311C185.477 96.8817 185.952 96.3856 186.301 95.7427C186.651 95.0859 186.825 94.3242 186.825 93.4577ZM197.575 87.525C198.972 87.525 200.105 87.9513 200.971 88.8038C201.837 89.6423 202.271 90.8582 202.271 92.4514V99.2227H200.384V92.724C200.384 91.578 200.098 90.7045 199.525 90.1035C198.952 89.4886 198.169 89.1811 197.177 89.1811C196.17 89.1811 195.367 89.4956 194.766 90.1245C194.179 90.7534 193.885 91.6688 193.885 92.8707V99.2227H191.978V87.7347H193.885V89.3698C194.263 88.7828 194.773 88.3286 195.416 88.0072C196.073 87.6857 196.792 87.525 197.575 87.525ZM204.674 93.4367C204.674 92.2628 204.912 91.2356 205.387 90.3551C205.862 89.4607 206.512 88.7689 207.337 88.2797C208.175 87.7906 209.111 87.546 210.146 87.546C211.04 87.546 211.872 87.7556 212.64 88.1749C213.409 88.5802 213.996 89.1182 214.401 89.7891V83.7097H216.33V99.2227H214.401V97.0634C214.024 97.7482 213.465 98.3142 212.724 98.7615C211.983 99.1947 211.117 99.4113 210.125 99.4113C209.104 99.4113 208.175 99.1598 207.337 98.6566C206.512 98.1535 205.862 97.4477 205.387 96.5393C204.912 95.6309 204.674 94.5967 204.674 93.4367ZM214.401 93.4577C214.401 92.5912 214.227 91.8365 213.877 91.1936C213.528 90.5508 213.053 90.0616 212.452 89.7262C211.865 89.3768 211.215 89.2021 210.502 89.2021C209.789 89.2021 209.139 89.3698 208.552 89.7052C207.965 90.0406 207.497 90.5298 207.148 91.1727C206.798 91.8156 206.624 92.5702 206.624 93.4367C206.624 94.3172 206.798 95.0859 207.148 95.7427C207.497 96.3856 207.965 96.8817 208.552 97.2311C209.139 97.5665 209.789 97.7342 210.502 97.7342C211.215 97.7342 211.865 97.5665 212.452 97.2311C213.053 96.8817 213.528 96.3856 213.877 95.7427C214.227 95.0859 214.401 94.3242 214.401 93.4577ZM220.539 85.8689C220.176 85.8689 219.868 85.7431 219.617 85.4916C219.365 85.24 219.239 84.9325 219.239 84.5692C219.239 84.2058 219.365 83.8983 219.617 83.6468C219.868 83.3952 220.176 83.2694 220.539 83.2694C220.888 83.2694 221.182 83.3952 221.419 83.6468C221.671 83.8983 221.797 84.2058 221.797 84.5692C221.797 84.9325 221.671 85.24 221.419 85.4916C221.182 85.7431 220.888 85.8689 220.539 85.8689ZM221.461 87.7347V99.2227H219.554V87.7347H221.461ZM230.31 87.525C231.707 87.525 232.84 87.9513 233.706 88.8038C234.573 89.6423 235.006 90.8582 235.006 92.4514V99.2227H233.119V92.724C233.119 91.578 232.833 90.7045 232.26 90.1035C231.687 89.4886 230.904 89.1811 229.912 89.1811C228.905 89.1811 228.102 89.4956 227.501 90.1245C226.914 90.7534 226.62 91.6688 226.62 92.8707V99.2227H224.713V87.7347H226.62V89.3698C226.998 88.7828 227.508 88.3286 228.151 88.0072C228.808 87.6857 229.527 87.525 230.31 87.525ZM242.86 87.546C243.852 87.546 244.718 87.7626 245.459 88.1959C246.214 88.6291 246.773 89.1741 247.136 89.831V87.7347H249.065V99.4742C249.065 100.522 248.841 101.452 248.394 102.262C247.947 103.087 247.304 103.73 246.465 104.191C245.641 104.652 244.677 104.883 243.572 104.883C242.063 104.883 240.805 104.526 239.799 103.814C238.793 103.101 238.199 102.13 238.017 100.9H239.904C240.113 101.599 240.547 102.158 241.204 102.577C241.86 103.01 242.65 103.227 243.572 103.227C244.621 103.227 245.473 102.898 246.13 102.241C246.801 101.585 247.136 100.662 247.136 99.4742V97.0634C246.759 97.7342 246.2 98.2933 245.459 98.7405C244.718 99.1877 243.852 99.4113 242.86 99.4113C241.839 99.4113 240.91 99.1598 240.072 98.6566C239.247 98.1535 238.597 97.4477 238.122 96.5393C237.647 95.6309 237.409 94.5967 237.409 93.4367C237.409 92.2628 237.647 91.2356 238.122 90.3551C238.597 89.4607 239.247 88.7689 240.072 88.2797C240.91 87.7906 241.839 87.546 242.86 87.546ZM247.136 93.4577C247.136 92.5912 246.962 91.8365 246.612 91.1936C246.263 90.5508 245.788 90.0616 245.187 89.7262C244.6 89.3768 243.95 89.2021 243.237 89.2021C242.524 89.2021 241.874 89.3698 241.287 89.7052C240.7 90.0406 240.232 90.5298 239.883 91.1727C239.533 91.8156 239.359 92.5702 239.359 93.4367C239.359 94.3172 239.533 95.0859 239.883 95.7427C240.232 96.3856 240.7 96.8817 241.287 97.2311C241.874 97.5665 242.524 97.7342 243.237 97.7342C243.95 97.7342 244.6 97.5665 245.187 97.2311C245.788 96.8817 246.263 96.3856 246.612 95.7427C246.962 95.0859 247.136 94.3242 247.136 93.4577ZM259.785 84.6111V99.2227H257.878V84.6111H259.785ZM276.852 87.525C277.746 87.525 278.543 87.7137 279.241 88.091C279.94 88.4544 280.492 89.0064 280.897 89.7472C281.303 90.4879 281.505 91.3893 281.505 92.4514V99.2227H279.619V92.724C279.619 91.578 279.332 90.7045 278.759 90.1035C278.2 89.4886 277.438 89.1811 276.474 89.1811C275.482 89.1811 274.692 89.5026 274.105 90.1455C273.518 90.7744 273.225 91.6898 273.225 92.8917V99.2227H271.338V92.724C271.338 91.578 271.052 90.7045 270.479 90.1035C269.92 89.4886 269.158 89.1811 268.194 89.1811C267.201 89.1811 266.412 89.5026 265.825 90.1455C265.238 90.7744 264.944 91.6898 264.944 92.8917V99.2227H263.037V87.7347H264.944V89.3908C265.322 88.7898 265.825 88.3286 266.454 88.0072C267.097 87.6857 267.802 87.525 268.571 87.525C269.535 87.525 270.388 87.7416 271.128 88.1749C271.869 88.6081 272.421 89.244 272.785 90.0826C273.106 89.272 273.637 88.6431 274.378 88.1959C275.119 87.7486 275.943 87.525 276.852 87.525ZM283.922 93.4367C283.922 92.2628 284.16 91.2356 284.635 90.3551C285.11 89.4607 285.76 88.7689 286.584 88.2797C287.423 87.7906 288.352 87.546 289.372 87.546C290.379 87.546 291.252 87.7626 291.993 88.1959C292.734 88.6291 293.286 89.1741 293.649 89.831V87.7347H295.578V99.2227H293.649V97.0844C293.272 97.7552 292.706 98.3142 291.951 98.7615C291.21 99.1947 290.344 99.4113 289.352 99.4113C288.331 99.4113 287.409 99.1598 286.584 98.6566C285.76 98.1535 285.11 97.4477 284.635 96.5393C284.16 95.6309 283.922 94.5967 283.922 93.4367ZM293.649 93.4577C293.649 92.5912 293.474 91.8365 293.125 91.1936C292.776 90.5508 292.3 90.0616 291.699 89.7262C291.112 89.3768 290.463 89.2021 289.75 89.2021C289.037 89.2021 288.387 89.3698 287.8 89.7052C287.213 90.0406 286.745 90.5298 286.396 91.1727C286.046 91.8156 285.872 92.5702 285.872 93.4367C285.872 94.3172 286.046 95.0859 286.396 95.7427C286.745 96.3856 287.213 96.8817 287.8 97.2311C288.387 97.5665 289.037 97.7342 289.75 97.7342C290.463 97.7342 291.112 97.5665 291.699 97.2311C292.3 96.8817 292.776 96.3856 293.125 95.7427C293.474 95.0859 293.649 94.3242 293.649 93.4577ZM303.539 87.546C304.531 87.546 305.398 87.7626 306.139 88.1959C306.893 88.6291 307.452 89.1741 307.816 89.831V87.7347H309.744V99.4742C309.744 100.522 309.521 101.452 309.074 102.262C308.626 103.087 307.983 103.73 307.145 104.191C306.32 104.652 305.356 104.883 304.252 104.883C302.743 104.883 301.485 104.526 300.479 103.814C299.472 103.101 298.878 102.13 298.697 100.9H300.583C300.793 101.599 301.226 102.158 301.883 102.577C302.54 103.01 303.33 103.227 304.252 103.227C305.3 103.227 306.153 102.898 306.81 102.241C307.48 101.585 307.816 100.662 307.816 99.4742V97.0634C307.438 97.7342 306.879 98.2933 306.139 98.7405C305.398 99.1877 304.531 99.4113 303.539 99.4113C302.519 99.4113 301.59 99.1598 300.751 98.6566C299.926 98.1535 299.277 97.4477 298.801 96.5393C298.326 95.6309 298.089 94.5967 298.089 93.4367C298.089 92.2628 298.326 91.2356 298.801 90.3551C299.277 89.4607 299.926 88.7689 300.751 88.2797C301.59 87.7906 302.519 87.546 303.539 87.546ZM307.816 93.4577C307.816 92.5912 307.641 91.8365 307.292 91.1936C306.942 90.5508 306.467 90.0616 305.866 89.7262C305.279 89.3768 304.629 89.2021 303.917 89.2021C303.204 89.2021 302.554 89.3698 301.967 89.7052C301.38 90.0406 300.912 90.5298 300.562 91.1727C300.213 91.8156 300.038 92.5702 300.038 93.4367C300.038 94.3172 300.213 95.0859 300.562 95.7427C300.912 96.3856 301.38 96.8817 301.967 97.2311C302.554 97.5665 303.204 97.7342 303.917 97.7342C304.629 97.7342 305.279 97.5665 305.866 97.2311C306.467 96.8817 306.942 96.3856 307.292 95.7427C307.641 95.0859 307.816 94.3242 307.816 93.4577ZM323.45 93.0384C323.45 93.4018 323.429 93.7861 323.387 94.1914H314.205C314.275 95.3234 314.659 96.2109 315.358 96.8538C316.071 97.4827 316.93 97.7971 317.937 97.7971C318.761 97.7971 319.446 97.6085 319.991 97.2311C320.55 96.8398 320.941 96.3227 321.165 95.6798H323.219C322.912 96.7839 322.297 97.6853 321.375 98.3841C320.452 99.0689 319.306 99.4113 317.937 99.4113C316.846 99.4113 315.868 99.1668 315.002 98.6776C314.149 98.1885 313.478 97.4967 312.989 96.6022C312.5 95.6938 312.255 94.6456 312.255 93.4577C312.255 92.2698 312.493 91.2286 312.968 90.3341C313.443 89.4397 314.107 88.7549 314.96 88.2797C315.826 87.7906 316.818 87.546 317.937 87.546C319.027 87.546 319.991 87.7836 320.83 88.2587C321.668 88.7339 322.311 89.3908 322.758 90.2293C323.219 91.0539 323.45 91.9902 323.45 93.0384ZM321.479 92.6401C321.479 91.9134 321.319 91.2915 320.997 90.7744C320.676 90.2433 320.236 89.845 319.677 89.5794C319.131 89.2999 318.524 89.1602 317.853 89.1602C316.888 89.1602 316.064 89.4676 315.379 90.0826C314.708 90.6975 314.324 91.55 314.226 92.6401H321.479Z" fill="white"/>
<path d="M79.4453 92.3466H324.351V93.3948H79.4453V92.3466Z" fill="white"/>
<g clip-path="url(#clip1_101_182)">
<path d="M92.4479 122.443C93.7379 123.733 94.4626 125.482 94.4626 127.307V143.029C94.4626 144.854 93.7379 146.603 92.4479 147.893C91.1579 149.183 89.4083 149.908 87.5839 149.908H71.8613C70.037 149.908 68.2874 149.183 66.9974 147.893C65.7074 146.603 64.9827 144.854 64.9827 143.029V127.307C64.9827 125.482 65.7074 123.733 66.9974 122.443C68.2874 121.153 70.037 120.428 71.8613 120.428H87.5839C89.4083 120.428 91.1579 121.153 92.4479 122.443Z" stroke="white" stroke-width="1.96533" stroke-linecap="round" stroke-linejoin="round"/>
</g>
<path d="M125.134 128.056L119.621 142.668H117.42L111.906 128.056H113.94L118.531 140.655L123.122 128.056H125.134ZM137.414 131.18V142.668H135.507V140.97C135.143 141.557 134.633 142.018 133.976 142.353C133.334 142.675 132.621 142.836 131.838 142.836C130.944 142.836 130.14 142.654 129.427 142.291C128.715 141.913 128.149 141.354 127.729 140.613C127.324 139.873 127.121 138.971 127.121 137.909V131.18H129.008V137.658C129.008 138.79 129.295 139.663 129.868 140.278C130.441 140.879 131.223 141.179 132.215 141.179C133.236 141.179 134.039 140.865 134.626 140.236C135.213 139.607 135.507 138.692 135.507 137.49V131.18H137.414ZM151.117 136.484C151.117 136.847 151.096 137.231 151.054 137.637H141.872C141.942 138.769 142.327 139.656 143.025 140.299C143.738 140.928 144.598 141.242 145.604 141.242C146.428 141.242 147.113 141.054 147.658 140.676C148.217 140.285 148.609 139.768 148.832 139.125H150.887C150.579 140.229 149.964 141.131 149.042 141.829C148.119 142.514 146.973 142.857 145.604 142.857C144.514 142.857 143.535 142.612 142.669 142.123C141.816 141.634 141.146 140.942 140.656 140.047C140.167 139.139 139.923 138.091 139.923 136.903C139.923 135.715 140.16 134.674 140.635 133.779C141.111 132.885 141.774 132.2 142.627 131.725C143.493 131.236 144.486 130.991 145.604 130.991C146.694 130.991 147.658 131.229 148.497 131.704C149.335 132.179 149.978 132.836 150.425 133.675C150.887 134.499 151.117 135.435 151.117 136.484ZM149.147 136.085C149.147 135.359 148.986 134.737 148.664 134.22C148.343 133.689 147.903 133.29 147.344 133.025C146.799 132.745 146.191 132.605 145.52 132.605C144.556 132.605 143.731 132.913 143.046 133.528C142.375 134.143 141.991 134.995 141.893 136.085H149.147ZM152.923 136.882C152.923 135.708 153.16 134.681 153.635 133.8C154.11 132.906 154.76 132.214 155.585 131.725C156.423 131.236 157.36 130.991 158.394 130.991C159.288 130.991 160.12 131.201 160.889 131.62C161.657 132.025 162.244 132.563 162.65 133.234V127.155H164.578V142.668H162.65V140.509C162.272 141.193 161.713 141.759 160.973 142.207C160.232 142.64 159.365 142.857 158.373 142.857C157.353 142.857 156.423 142.605 155.585 142.102C154.76 141.599 154.11 140.893 153.635 139.985C153.16 139.076 152.923 138.042 152.923 136.882ZM162.65 136.903C162.65 136.036 162.475 135.282 162.126 134.639C161.776 133.996 161.301 133.507 160.7 133.171C160.113 132.822 159.463 132.647 158.75 132.647C158.038 132.647 157.388 132.815 156.801 133.15C156.214 133.486 155.746 133.975 155.396 134.618C155.047 135.261 154.872 136.015 154.872 136.882C154.872 137.762 155.047 138.531 155.396 139.188C155.746 139.831 156.214 140.327 156.801 140.676C157.388 141.012 158.038 141.179 158.75 141.179C159.463 141.179 160.113 141.012 160.7 140.676C161.301 140.327 161.776 139.831 162.126 139.188C162.475 138.531 162.65 137.769 162.65 136.903ZM172.812 142.857C171.736 142.857 170.758 142.612 169.877 142.123C169.011 141.634 168.326 140.942 167.823 140.047C167.334 139.139 167.089 138.091 167.089 136.903C167.089 135.729 167.341 134.695 167.844 133.8C168.361 132.892 169.06 132.2 169.94 131.725C170.821 131.236 171.806 130.991 172.896 130.991C173.986 130.991 174.972 131.236 175.852 131.725C176.732 132.2 177.424 132.885 177.927 133.779C178.444 134.674 178.703 135.715 178.703 136.903C178.703 138.091 178.438 139.139 177.906 140.047C177.389 140.942 176.684 141.634 175.789 142.123C174.895 142.612 173.902 142.857 172.812 142.857ZM172.812 141.179C173.497 141.179 174.14 141.019 174.741 140.697C175.342 140.376 175.824 139.894 176.187 139.251C176.565 138.608 176.753 137.825 176.753 136.903C176.753 135.981 176.572 135.198 176.208 134.555C175.845 133.912 175.37 133.437 174.783 133.13C174.196 132.808 173.56 132.647 172.875 132.647C172.176 132.647 171.534 132.808 170.947 133.13C170.374 133.437 169.912 133.912 169.563 134.555C169.214 135.198 169.039 135.981 169.039 136.903C169.039 137.839 169.207 138.629 169.542 139.272C169.891 139.915 170.353 140.397 170.926 140.718C171.499 141.026 172.127 141.179 172.812 141.179ZM195.794 128.056V129.608H191.81V142.668H189.903V129.608H185.899V128.056H195.794ZM197.429 136.882C197.429 135.708 197.667 134.681 198.142 133.8C198.617 132.906 199.267 132.214 200.091 131.725C200.93 131.236 201.859 130.991 202.88 130.991C203.886 130.991 204.759 131.208 205.5 131.641C206.241 132.074 206.793 132.619 207.156 133.276V131.18H209.085V142.668H207.156V140.53C206.779 141.2 206.213 141.759 205.458 142.207C204.717 142.64 203.851 142.857 202.859 142.857C201.838 142.857 200.916 142.605 200.091 142.102C199.267 141.599 198.617 140.893 198.142 139.985C197.667 139.076 197.429 138.042 197.429 136.882ZM207.156 136.903C207.156 136.036 206.981 135.282 206.632 134.639C206.283 133.996 205.807 133.507 205.206 133.171C204.62 132.822 203.97 132.647 203.257 132.647C202.544 132.647 201.894 132.815 201.307 133.15C200.72 133.486 200.252 133.975 199.903 134.618C199.553 135.261 199.379 136.015 199.379 136.882C199.379 137.762 199.553 138.531 199.903 139.188C200.252 139.831 200.72 140.327 201.307 140.676C201.894 141.012 202.544 141.179 203.257 141.179C203.97 141.179 204.62 141.012 205.206 140.676C205.807 140.327 206.283 139.831 206.632 139.188C206.981 138.531 207.156 137.769 207.156 136.903ZM216.375 142.857C215.495 142.857 214.705 142.71 214.007 142.416C213.308 142.109 212.756 141.69 212.35 141.159C211.945 140.613 211.722 139.992 211.68 139.293H213.65C213.706 139.866 213.972 140.334 214.447 140.697C214.936 141.061 215.572 141.242 216.354 141.242C217.081 141.242 217.654 141.082 218.073 140.76C218.493 140.439 218.702 140.033 218.702 139.544C218.702 139.041 218.479 138.671 218.032 138.433C217.584 138.182 216.893 137.937 215.956 137.7C215.104 137.476 214.405 137.252 213.86 137.029C213.329 136.791 212.868 136.449 212.476 136.002C212.099 135.54 211.91 134.939 211.91 134.199C211.91 133.612 212.085 133.074 212.434 132.584C212.784 132.095 213.28 131.711 213.923 131.431C214.566 131.138 215.299 130.991 216.124 130.991C217.396 130.991 218.423 131.313 219.206 131.956C219.988 132.598 220.407 133.479 220.463 134.597H218.556C218.514 133.996 218.269 133.514 217.822 133.15C217.389 132.787 216.802 132.605 216.061 132.605C215.376 132.605 214.831 132.752 214.426 133.046C214.021 133.339 213.818 133.723 213.818 134.199C213.818 134.576 213.937 134.89 214.174 135.142C214.426 135.38 214.733 135.575 215.097 135.729C215.474 135.869 215.991 136.029 216.648 136.211C217.473 136.435 218.143 136.658 218.66 136.882C219.178 137.092 219.618 137.413 219.981 137.846C220.359 138.28 220.554 138.846 220.568 139.544C220.568 140.173 220.393 140.739 220.044 141.242C219.695 141.746 219.199 142.144 218.556 142.437C217.927 142.717 217.2 142.857 216.375 142.857ZM229.676 142.668L225.169 137.595V142.668H223.261V127.155H225.169V136.274L229.592 131.18H232.254L226.846 136.903L232.275 142.668H229.676ZM239.324 134.932C239.324 132.529 239.716 130.656 240.498 129.314C241.281 127.959 242.651 127.281 244.607 127.281C246.55 127.281 247.912 127.959 248.695 129.314C249.478 130.656 249.869 132.529 249.869 134.932C249.869 137.378 249.478 139.279 248.695 140.634C247.912 141.99 246.55 142.668 244.607 142.668C242.651 142.668 241.281 141.99 240.498 140.634C239.716 139.279 239.324 137.378 239.324 134.932ZM247.982 134.932C247.982 133.716 247.898 132.689 247.731 131.851C247.577 130.998 247.249 130.313 246.745 129.796C246.256 129.279 245.544 129.021 244.607 129.021C243.657 129.021 242.93 129.279 242.427 129.796C241.938 130.313 241.609 130.998 241.442 131.851C241.288 132.689 241.211 133.716 241.211 134.932C241.211 136.19 241.288 137.245 241.442 138.098C241.609 138.95 241.938 139.635 242.427 140.152C242.93 140.669 243.657 140.928 244.607 140.928C245.544 140.928 246.256 140.669 246.745 140.152C247.249 139.635 247.577 138.95 247.731 138.098C247.898 137.245 247.982 136.19 247.982 134.932ZM251.985 129.251V127.511H255.926V142.668H253.997V129.251H251.985Z" fill="white"/>
<g clip-path="url(#clip2_101_182)">
<path d="M60.4479 165.888C61.7379 167.178 62.4626 168.927 62.4626 170.752V186.474C62.4626 188.299 61.7379 190.048 60.4479 191.338C59.1579 192.628 57.4083 193.353 55.5839 193.353H39.8613C38.037 193.353 36.2874 192.628 34.9974 191.338C33.7074 190.048 32.9827 188.299 32.9827 186.474V170.752C32.9827 168.927 33.7074 167.178 34.9974 165.888C36.2874 164.598 38.037 163.873 39.8613 163.873H55.5839C57.4083 163.873 59.1579 164.598 60.4479 165.888Z" stroke="white" stroke-width="1.96533" stroke-linecap="round" stroke-linejoin="round"/>
</g>
<path d="M85.6924 186.26C84.7281 186.26 83.8616 186.092 83.0929 185.757C82.3382 185.407 81.7442 184.932 81.311 184.331C80.8778 183.716 80.6541 183.011 80.6402 182.214H82.6736C82.7435 182.899 83.023 183.479 83.5122 183.954C84.0153 184.415 84.742 184.646 85.6924 184.646C86.6008 184.646 87.3136 184.422 87.8307 183.975C88.3617 183.514 88.6273 182.927 88.6273 182.214C88.6273 181.655 88.4735 181.201 88.1661 180.851C87.8586 180.502 87.4743 180.236 87.0131 180.055C86.5519 179.873 85.93 179.677 85.1473 179.468C84.183 179.216 83.4074 178.965 82.8204 178.713C82.2474 178.461 81.7512 178.07 81.332 177.539C80.9267 176.994 80.724 176.267 80.724 175.359C80.724 174.562 80.9267 173.856 81.332 173.242C81.7373 172.627 82.3033 172.151 83.03 171.816C83.7707 171.481 84.6162 171.313 85.5666 171.313C86.9362 171.313 88.0543 171.655 88.9208 172.34C89.8012 173.025 90.2974 173.933 90.4092 175.065H88.3128C88.2429 174.506 87.9494 174.017 87.4323 173.598C86.9152 173.165 86.2304 172.948 85.3779 172.948C84.5813 172.948 83.9314 173.158 83.4283 173.577C82.9252 173.982 82.6736 174.555 82.6736 175.296C82.6736 175.827 82.8204 176.26 83.1139 176.596C83.4213 176.931 83.7917 177.19 84.2249 177.371C84.6722 177.539 85.2941 177.735 86.0907 177.958C87.055 178.224 87.8307 178.489 88.4176 178.755C89.0046 179.007 89.5077 179.405 89.927 179.95C90.3463 180.481 90.5559 181.208 90.5559 182.13C90.5559 182.843 90.3672 183.514 89.9899 184.143C89.6126 184.771 89.0535 185.282 88.3128 185.673C87.5721 186.064 86.6986 186.26 85.6924 186.26ZM108.667 174.625L105.082 186.113H103.111L100.344 176.994L97.5769 186.113H95.6063L92.0006 174.625H93.9502L96.5916 184.268L99.4426 174.625H101.392L104.18 184.289L106.78 174.625H108.667ZM111.545 172.759C111.182 172.759 110.874 172.634 110.623 172.382C110.371 172.131 110.245 171.823 110.245 171.46C110.245 171.096 110.371 170.789 110.623 170.537C110.874 170.286 111.182 170.16 111.545 170.16C111.895 170.16 112.188 170.286 112.426 170.537C112.677 170.789 112.803 171.096 112.803 171.46C112.803 171.823 112.677 172.131 112.426 172.382C112.188 172.634 111.895 172.759 111.545 172.759ZM112.468 174.625V186.113H110.56V174.625H112.468ZM118.046 176.197V182.969C118.046 183.528 118.165 183.926 118.402 184.164C118.64 184.387 119.052 184.499 119.639 184.499H121.044V186.113H119.325C118.262 186.113 117.466 185.869 116.935 185.379C116.404 184.89 116.138 184.087 116.138 182.969V176.197H114.65V174.625H116.138V171.732H118.046V174.625H121.044V176.197H118.046ZM122.642 180.348C122.642 179.16 122.88 178.126 123.355 177.246C123.83 176.351 124.487 175.659 125.326 175.17C126.178 174.681 127.149 174.436 128.239 174.436C129.651 174.436 130.811 174.779 131.719 175.464C132.642 176.149 133.25 177.099 133.543 178.315H131.489C131.293 177.616 130.909 177.064 130.336 176.659C129.777 176.253 129.078 176.051 128.239 176.051C127.149 176.051 126.269 176.428 125.598 177.183C124.927 177.923 124.592 178.979 124.592 180.348C124.592 181.732 124.927 182.801 125.598 183.556C126.269 184.31 127.149 184.688 128.239 184.688C129.078 184.688 129.777 184.492 130.336 184.101C130.895 183.709 131.279 183.15 131.489 182.424H133.543C133.236 183.598 132.621 184.541 131.698 185.254C130.776 185.952 129.623 186.302 128.239 186.302C127.149 186.302 126.178 186.057 125.326 185.568C124.487 185.079 123.83 184.387 123.355 183.493C122.88 182.598 122.642 181.55 122.642 180.348ZM141.791 174.416C142.657 174.416 143.44 174.604 144.139 174.982C144.837 175.345 145.382 175.897 145.774 176.638C146.179 177.378 146.382 178.28 146.382 179.342V186.113H144.495V179.614C144.495 178.468 144.208 177.595 143.635 176.994C143.062 176.379 142.28 176.072 141.288 176.072C140.281 176.072 139.478 176.386 138.877 177.015C138.29 177.644 137.996 178.559 137.996 179.761V186.113H136.089V170.6H137.996V176.26C138.374 175.673 138.891 175.219 139.548 174.898C140.218 174.576 140.966 174.416 141.791 174.416ZM164.856 175.778C164.856 176.994 164.437 178.007 163.598 178.818C162.773 179.614 161.509 180.013 159.804 180.013H156.994V186.113H155.087V171.502H159.804C161.453 171.502 162.704 171.9 163.556 172.697C164.423 173.493 164.856 174.52 164.856 175.778ZM159.804 178.441C160.866 178.441 161.648 178.21 162.152 177.749C162.655 177.288 162.906 176.631 162.906 175.778C162.906 173.975 161.872 173.074 159.804 173.074H156.994V178.441H159.804ZM169.134 176.491C169.47 175.834 169.945 175.324 170.56 174.961C171.189 174.597 171.951 174.416 172.845 174.416V176.386H172.342C170.204 176.386 169.134 177.546 169.134 179.866V186.113H167.227V174.625H169.134V176.491ZM180.057 186.302C178.981 186.302 178.003 186.057 177.123 185.568C176.256 185.079 175.571 184.387 175.068 183.493C174.579 182.584 174.334 181.536 174.334 180.348C174.334 179.174 174.586 178.14 175.089 177.246C175.606 176.337 176.305 175.645 177.185 175.17C178.066 174.681 179.051 174.436 180.141 174.436C181.231 174.436 182.217 174.681 183.097 175.17C183.978 175.645 184.669 176.33 185.173 177.225C185.69 178.119 185.948 179.16 185.948 180.348C185.948 181.536 185.683 182.584 185.152 183.493C184.634 184.387 183.929 185.079 183.034 185.568C182.14 186.057 181.148 186.302 180.057 186.302ZM180.057 184.625C180.742 184.625 181.385 184.464 181.986 184.143C182.587 183.821 183.069 183.339 183.433 182.696C183.81 182.053 183.999 181.271 183.999 180.348C183.999 179.426 183.817 178.643 183.454 178C183.09 177.357 182.615 176.882 182.028 176.575C181.441 176.253 180.805 176.093 180.12 176.093C179.422 176.093 178.779 176.253 178.192 176.575C177.619 176.882 177.158 177.357 176.808 178C176.459 178.643 176.284 179.426 176.284 180.348C176.284 181.285 176.452 182.074 176.787 182.717C177.137 183.36 177.598 183.842 178.171 184.164C178.744 184.471 179.373 184.625 180.057 184.625ZM189.484 172.759C189.12 172.759 188.813 172.634 188.561 172.382C188.324 172.131 188.205 171.823 188.205 171.46C188.205 171.096 188.324 170.789 188.561 170.537C188.813 170.286 189.12 170.16 189.484 170.16C189.847 170.16 190.148 170.286 190.385 170.537C190.637 170.789 190.762 171.096 190.762 171.46C190.762 171.823 190.637 172.131 190.385 172.382C190.148 172.634 189.847 172.759 189.484 172.759ZM190.427 188.608C190.427 189.628 190.168 190.376 189.651 190.851C189.134 191.326 188.38 191.564 187.387 191.564H186.276V189.949H187.073C187.604 189.949 187.974 189.845 188.184 189.635C188.408 189.425 188.519 189.069 188.519 188.566V174.625H190.427V188.608ZM204.138 179.929C204.138 180.292 204.117 180.677 204.075 181.082H194.893C194.963 182.214 195.347 183.101 196.046 183.744C196.759 184.373 197.618 184.688 198.625 184.688C199.449 184.688 200.134 184.499 200.679 184.122C201.238 183.73 201.629 183.213 201.853 182.57H203.908C203.6 183.674 202.985 184.576 202.063 185.275C201.14 185.959 199.994 186.302 198.625 186.302C197.535 186.302 196.556 186.057 195.69 185.568C194.837 185.079 194.166 184.387 193.677 183.493C193.188 182.584 192.944 181.536 192.944 180.348C192.944 179.16 193.181 178.119 193.656 177.225C194.132 176.33 194.795 175.645 195.648 175.17C196.514 174.681 197.507 174.436 198.625 174.436C199.715 174.436 200.679 174.674 201.518 175.149C202.356 175.624 202.999 176.281 203.446 177.12C203.908 177.944 204.138 178.881 204.138 179.929ZM202.168 179.531C202.168 178.804 202.007 178.182 201.685 177.665C201.364 177.134 200.924 176.735 200.365 176.47C199.82 176.19 199.212 176.051 198.541 176.051C197.577 176.051 196.752 176.358 196.067 176.973C195.396 177.588 195.012 178.441 194.914 179.531H202.168ZM205.943 180.348C205.943 179.16 206.181 178.126 206.656 177.246C207.131 176.351 207.788 175.659 208.627 175.17C209.479 174.681 210.451 174.436 211.541 174.436C212.952 174.436 214.112 174.779 215.021 175.464C215.943 176.149 216.551 177.099 216.844 178.315H214.79C214.594 177.616 214.21 177.064 213.637 176.659C213.078 176.253 212.379 176.051 211.541 176.051C210.451 176.051 209.57 176.428 208.899 177.183C208.228 177.923 207.893 178.979 207.893 180.348C207.893 181.732 208.228 182.801 208.899 183.556C209.57 184.31 210.451 184.688 211.541 184.688C212.379 184.688 213.078 184.492 213.637 184.101C214.196 183.709 214.58 183.15 214.79 182.424H216.844C216.537 183.598 215.922 184.541 215 185.254C214.077 185.952 212.924 186.302 211.541 186.302C210.451 186.302 209.479 186.057 208.627 185.568C207.788 185.079 207.131 184.387 206.656 183.493C206.181 182.598 205.943 181.55 205.943 180.348ZM221.717 176.197V182.969C221.717 183.528 221.836 183.926 222.073 184.164C222.311 184.387 222.723 184.499 223.31 184.499H224.715V186.113H222.996C221.933 186.113 221.137 185.869 220.606 185.379C220.075 184.89 219.809 184.087 219.809 182.969V176.197H218.321V174.625H219.809V171.732H221.717V174.625H224.715V176.197H221.717Z" fill="white"/>
</g>
<defs>
<filter id="filter0_b_101_182" x="-12" y="-12" width="380.445" height="250.336" filterUnits="userSpaceOnUse" color-interpolation-filters="sRGB">
<feFlood flood-opacity="0" result="BackgroundImageFix"/>
<feGaussianBlur in="BackgroundImageFix" stdDeviation="6"/>
<feComposite in2="SourceAlpha" operator="in" result="effect1_backgroundBlur_101_182"/>
<feBlend mode="normal" in="SourceGraphic" in2="effect1_backgroundBlur_101_182" result="shape"/>
</filter>
<clipPath id="clip0_101_182">
<rect width="31.4453" height="31.4453" fill="white" transform="translate(32 76)"/>
</clipPath>
<clipPath id="clip1_101_182">
<rect width="31.4453" height="31.4453" fill="white" transform="translate(64 119.445)"/>
</clipPath>
<clipPath id="clip2_101_182">
<rect width="31.4453" height="31.4453" fill="white" transform="translate(32 162.891)"/>
</clipPath>
</defs>
</svg>
