<svg xmlns="http://www.w3.org/2000/svg" xmlns:xlink="http://www.w3.org/1999/xlink" viewBox="0 0 128 27.82"><defs><style>.cls-1{fill:url(#linear-gradient);}</style><linearGradient id="linear-gradient" x1="48.17" y1="45.61" x2="78.93" y2="-20.36" gradientUnits="userSpaceOnUse"><stop offset="0" stop-color="#845cf6"/><stop offset="1" stop-color="#f43f5e"/></linearGradient></defs><g id="Layer_2" data-name="Layer 2"><g id="Layer_4" data-name="Layer 4"><g id="vd-combologo-transparent"><path class="cls-1" d="M100.18,8.83V7a7,7,0,0,1,7-6.95h13.91a7,7,0,0,1,5.46,2.65.87.87,0,0,1-.26,1.29l-17.12,9.88a.88.88,0,0,1-1-.11l-5.84-5.18a.88.88,0,0,0-1.13,0,5.81,5.81,0,0,0-.5.49A.26.26,0,0,1,100.18,8.83Z"/><path class="cls-1" d="M128,7V21.38a6.44,6.44,0,0,1-6.44,6.44H106.62a6.44,6.44,0,0,1-6.44-6.44V15.31a.35.35,0,0,1,.66-.18l1.5,2.6,3.3,5.71a1.75,1.75,0,0,0,2.63.48l14-11.53a19.07,19.07,0,0,0,5.46-7.34A6.66,6.66,0,0,1,128,7Z"/><path class="cls-1" d="M15.74,26a2,2,0,0,1-.68,1,1.84,1.84,0,0,1-1.11.36H9.36A1.7,1.7,0,0,1,7.62,26L0,.51H0A6.56,6.56,0,0,1,6.33,5.34l4.16,15.29.7,3h1c.16-.83.4-1.82.74-3L17,5.35A6.54,6.54,0,0,1,23.31.51h0Z"/><path class="cls-1" d="M47,16.57A17.36,17.36,0,0,1,46,23a6.44,6.44,0,0,1-3.16,3.48A13.49,13.49,0,0,1,37,27.57a14.4,14.4,0,0,1-6.14-1.09A6.65,6.65,0,0,1,27.57,23a16.45,16.45,0,0,1-1-6.43V.25h0a4.86,4.86,0,0,1,4.85,4.86V16.57a12.92,12.92,0,0,0,.51,4.08,3.63,3.63,0,0,0,1.67,2.12,6.73,6.73,0,0,0,3.23.64A6.48,6.48,0,0,0,40,22.77a3.6,3.6,0,0,0,1.65-2.12,12.92,12.92,0,0,0,.51-4.08V5.15A4.9,4.9,0,0,1,47,.25h0Z"/><path class="cls-1" d="M70.13,27.08h0c-1.55.13-3.24.22-5,.25s-4.07.06-6.76.06A6.08,6.08,0,0,1,54.14,26a4.85,4.85,0,0,1-1.57-3.73V5.52a4.85,4.85,0,0,1,1.57-3.73A6.08,6.08,0,0,1,58.32.43c2.69,0,5,0,6.76.06s3.5.12,5,.25h0a4,4,0,0,1-4,3.73H59.41a2,2,0,0,0-1.5.5,2.65,2.65,0,0,0-.45,1.75v4.7h11a3.73,3.73,0,0,1-3.73,3.73H57.46v6a2.6,2.6,0,0,0,.45,1.74,1.91,1.91,0,0,0,1.5.51H66.2A3.94,3.94,0,0,1,70.13,27.08Z"/><path class="cls-1" d="M91.37,1.42a7.44,7.44,0,0,1,3.42,4.23,25.42,25.42,0,0,1,1.06,8.26,25.46,25.46,0,0,1-1.06,8.26,7.44,7.44,0,0,1-3.42,4.23,13.84,13.84,0,0,1-6.47,1.26c-3.14,0-6.48-.11-10-.35V.51q5.32-.36,10-.36A13.83,13.83,0,0,1,91.37,1.42Zm-3,21.27a5,5,0,0,0,1.79-3,24.3,24.3,0,0,0,.54-5.83,24.55,24.55,0,0,0-.54-5.85,5.09,5.09,0,0,0-1.79-3A5.87,5.87,0,0,0,84.9,4.2l-5.17,0V23.51c2,0,3.74.08,5.17.08A5.87,5.87,0,0,0,88.39,22.69Z"/></g></g></g></svg>
