<svg xmlns="http://www.w3.org/2000/svg" xmlns:xlink="http://www.w3.org/1999/xlink" viewBox="0 0 24 24"><defs><style>.cls-1{fill:url(#linear-gradient);}</style><linearGradient id="linear-gradient" x1="6.1" y1="24.83" x2="17.97" y2="-0.63" gradientUnits="userSpaceOnUse"><stop offset="0" stop-color="#845cf6"/><stop offset="1" stop-color="#f43f5e"/></linearGradient></defs><g id="Layer_2" data-name="Layer 2"><g id="Layer_4" data-name="Layer 4"><g id="vd-logomark-transparent"><path class="cls-1" d="M0,7.62V6A6,6,0,0,1,6,0H18a6,6,0,0,1,4.72,2.29.76.76,0,0,1-.23,1.11L7.72,11.92a.74.74,0,0,1-.87-.09l-5-4.47a.76.76,0,0,0-1,0,4.16,4.16,0,0,0-.42.42A.23.23,0,0,1,0,7.62Z"/><path class="cls-1" d="M24,6V18.45A5.56,5.56,0,0,1,18.45,24H5.55A5.56,5.56,0,0,1,0,18.45V13.2a.31.31,0,0,1,.57-.15L1.86,15.3l2.85,4.92A1.51,1.51,0,0,0,7,20.63l12.07-9.94a16.53,16.53,0,0,0,4.72-6.33A5.91,5.91,0,0,1,24,6Z"/></g></g></g></svg>