<svg width="333" height="314" viewBox="0 0 333 314" fill="none" xmlns="http://www.w3.org/2000/svg">
<g filter="url(#filter0_b_101_141)">
<rect width="332.445" height="313.226" rx="10.4818" fill="#845CF6" fill-opacity="0.85"/>
<path d="M47.8956 39.6092L41.7402 56H38.6271L32.4481 39.6092H35.3253L40.1836 53.2407L45.0655 39.6092H47.8956ZM61.9124 43.0052V56H59.2238V54.467C58.7993 55.0016 58.2411 55.4261 57.5493 55.7406C56.8733 56.0393 56.15 56.1887 55.3796 56.1887C54.3576 56.1887 53.4379 55.9764 52.6203 55.5519C51.8184 55.1274 51.1817 54.4985 50.71 53.6652C50.254 52.8319 50.0261 51.8256 50.0261 50.6464V43.0052H52.691V50.2455C52.691 51.409 52.9819 52.3052 53.5636 52.9341C54.1454 53.5473 54.9394 53.8539 55.9456 53.8539C56.9519 53.8539 57.7459 53.5473 58.3276 52.9341C58.9251 52.3052 59.2238 51.409 59.2238 50.2455V43.0052H61.9124ZM77.3696 49.1842C77.3696 49.6716 77.3382 50.1119 77.2753 50.5049H67.3464C67.425 51.5426 67.8102 52.3759 68.502 53.0048C69.1938 53.6337 70.0429 53.9482 71.0491 53.9482C72.4956 53.9482 73.5176 53.3429 74.115 52.1322H77.0158C76.6228 53.3272 75.9074 54.3098 74.8697 55.0802C73.8477 55.8349 72.5742 56.2123 71.0491 56.2123C69.807 56.2123 68.6907 55.9371 67.7002 55.3868C66.7254 54.8208 65.955 54.0347 65.389 53.0284C64.8387 52.0065 64.5635 50.8273 64.5635 49.4908C64.5635 48.1544 64.8308 46.9831 65.3654 45.9768C65.9157 44.9549 66.6782 44.1687 67.653 43.6184C68.6435 43.0681 69.7756 42.793 71.0491 42.793C72.2755 42.793 73.3682 43.0603 74.3273 43.5948C75.2864 44.1294 76.0332 44.8841 76.5678 45.8589C77.1023 46.818 77.3696 47.9264 77.3696 49.1842ZM74.5631 48.3352C74.5474 47.3447 74.1936 46.5507 73.5018 45.9532C72.81 45.3558 71.9532 45.0571 70.9312 45.0571C70.0036 45.0571 69.2096 45.3558 68.5492 45.9532C67.8889 46.535 67.4958 47.329 67.37 48.3352H74.5631ZM85.369 39.6092C87.1142 39.6092 88.6393 39.9472 89.9443 40.6233C91.265 41.2836 92.2791 42.2427 92.9866 43.5005C93.7098 44.7426 94.0715 46.1969 94.0715 47.8635C94.0715 49.5301 93.7098 50.9766 92.9866 52.203C92.2791 53.4294 91.265 54.3727 89.9443 55.0331C88.6393 55.6777 87.1142 56 85.369 56H80.0154V39.6092H85.369ZM85.369 53.8067C87.2871 53.8067 88.7572 53.2878 89.7792 52.2502C90.8012 51.2125 91.3121 49.7503 91.3121 47.8635C91.3121 45.9611 90.8012 44.4753 89.7792 43.4062C88.7572 42.337 87.2871 41.8025 85.369 41.8025H82.704V53.8067H85.369ZM102.373 56.2123C101.146 56.2123 100.038 55.9371 99.0473 55.3868C98.0568 54.8208 97.2785 54.0347 96.7125 53.0284C96.1465 52.0065 95.8635 50.8273 95.8635 49.4908C95.8635 48.1701 96.1543 46.9988 96.7361 45.9768C97.3178 44.9549 98.1118 44.1687 99.1181 43.6184C100.124 43.0681 101.248 42.793 102.491 42.793C103.733 42.793 104.857 43.0681 105.863 43.6184C106.869 44.1687 107.663 44.9549 108.245 45.9768C108.827 46.9988 109.118 48.1701 109.118 49.4908C109.118 50.8115 108.819 51.9829 108.221 53.0048C107.624 54.0268 106.806 54.8208 105.769 55.3868C104.747 55.9371 103.615 56.2123 102.373 56.2123ZM102.373 53.8774C103.064 53.8774 103.709 53.7124 104.307 53.3822C104.92 53.052 105.415 52.5567 105.792 51.8964C106.17 51.236 106.358 50.4342 106.358 49.4908C106.358 48.5475 106.178 47.7535 105.816 47.1089C105.454 46.4485 104.975 45.9532 104.377 45.6231C103.78 45.2929 103.135 45.1278 102.443 45.1278C101.752 45.1278 101.107 45.2929 100.51 45.6231C99.9278 45.9532 99.4639 46.4485 99.1181 47.1089C98.7722 47.7535 98.5992 48.5475 98.5992 49.4908C98.5992 50.8901 98.953 51.975 99.6605 52.7454C100.384 53.5001 101.288 53.8774 102.373 53.8774ZM128.491 39.6092V41.8025H124.128V56H121.439V41.8025H117.053V39.6092H128.491ZM130.318 49.4437C130.318 48.1387 130.585 46.9831 131.119 45.9768C131.67 44.9706 132.409 44.1923 133.336 43.642C134.28 43.076 135.317 42.793 136.449 42.793C137.471 42.793 138.36 42.9974 139.114 43.4062C139.885 43.7992 140.498 44.2945 140.954 44.892V43.0052H143.666V56H140.954V54.0661C140.498 54.6793 139.877 55.1903 139.091 55.5991C138.305 56.0079 137.408 56.2123 136.402 56.2123C135.286 56.2123 134.264 55.9292 133.336 55.3632C132.409 54.7815 131.67 53.9796 131.119 52.9577C130.585 51.92 130.318 50.7486 130.318 49.4437ZM140.954 49.4908C140.954 48.5946 140.765 47.8164 140.388 47.156C140.026 46.4957 139.547 45.9925 138.949 45.6466C138.352 45.3008 137.707 45.1278 137.015 45.1278C136.324 45.1278 135.679 45.3008 135.082 45.6466C134.484 45.9768 133.997 46.4721 133.619 47.1324C133.258 47.7771 133.077 48.5475 133.077 49.4437C133.077 50.3399 133.258 51.126 133.619 51.8021C133.997 52.4781 134.484 52.997 135.082 53.3586C135.695 53.7045 136.339 53.8774 137.015 53.8774C137.707 53.8774 138.352 53.7045 138.949 53.3586C139.547 53.0127 140.026 52.5096 140.388 51.8492C140.765 51.1732 140.954 50.387 140.954 49.4908ZM151.914 56.2123C150.892 56.2123 149.972 56.0314 149.155 55.6698C148.353 55.2925 147.716 54.7894 147.245 54.1605C146.773 53.5158 146.521 52.8004 146.49 52.0143H149.273C149.32 52.5646 149.579 53.0284 150.051 53.4058C150.538 53.7674 151.144 53.9482 151.867 53.9482C152.622 53.9482 153.203 53.8067 153.612 53.5237C154.037 53.225 154.249 52.8476 154.249 52.3917C154.249 51.9043 154.013 51.5426 153.541 51.3068C153.086 51.071 152.354 50.8115 151.348 50.5285C150.373 50.2612 149.579 50.0018 148.966 49.7503C148.353 49.4987 147.818 49.1135 147.363 48.5946C146.922 48.0758 146.702 47.3919 146.702 46.5428C146.702 45.851 146.907 45.2221 147.315 44.6561C147.724 44.0744 148.306 43.6184 149.061 43.2883C149.831 42.9581 150.711 42.793 151.702 42.793C153.18 42.793 154.367 43.1703 155.263 43.925C156.175 44.664 156.662 45.6781 156.725 46.9674H154.037C153.99 46.3856 153.754 45.9218 153.329 45.5759C152.905 45.23 152.331 45.0571 151.608 45.0571C150.9 45.0571 150.358 45.1907 149.98 45.458C149.603 45.7253 149.414 46.079 149.414 46.5193C149.414 46.8652 149.54 47.156 149.792 47.3919C150.043 47.6277 150.35 47.8164 150.711 47.9579C151.073 48.0837 151.608 48.2487 152.315 48.4531C153.258 48.7047 154.029 48.9641 154.626 49.2314C155.24 49.483 155.766 49.8603 156.206 50.3634C156.647 50.8666 156.875 51.5348 156.89 52.3681C156.89 53.107 156.686 53.7674 156.277 54.3491C155.868 54.9309 155.287 55.3868 154.532 55.717C153.793 56.0472 152.92 56.2123 151.914 56.2123ZM164.937 49.5144L170.927 56H167.295L162.484 50.4106V56H159.795V38.5479H162.484V48.689L167.201 43.0052H170.927L164.937 49.5144ZM181.669 53.8303H187.211V56H178.98V39.6092H181.669V53.8303ZM190.828 41.2836C190.34 41.2836 189.931 41.1185 189.601 40.7884C189.271 40.4582 189.106 40.0494 189.106 39.562C189.106 39.0746 189.271 38.6658 189.601 38.3356C189.931 38.0055 190.34 37.8404 190.828 37.8404C191.299 37.8404 191.7 38.0055 192.03 38.3356C192.36 38.6658 192.526 39.0746 192.526 39.562C192.526 40.0494 192.36 40.4582 192.03 40.7884C191.7 41.1185 191.299 41.2836 190.828 41.2836ZM192.148 43.0052V56H189.46V43.0052H192.148ZM200.395 56.2123C199.373 56.2123 198.453 56.0314 197.636 55.6698C196.834 55.2925 196.197 54.7894 195.725 54.1605C195.254 53.5158 195.002 52.8004 194.971 52.0143H197.753C197.801 52.5646 198.06 53.0284 198.532 53.4058C199.019 53.7674 199.624 53.9482 200.348 53.9482C201.102 53.9482 201.684 53.8067 202.093 53.5237C202.517 53.225 202.73 52.8476 202.73 52.3917C202.73 51.9043 202.494 51.5426 202.022 51.3068C201.566 51.071 200.835 50.8115 199.829 50.5285C198.854 50.2612 198.06 50.0018 197.447 49.7503C196.834 49.4987 196.299 49.1135 195.843 48.5946C195.403 48.0758 195.183 47.3919 195.183 46.5428C195.183 45.851 195.387 45.2221 195.796 44.6561C196.205 44.0744 196.787 43.6184 197.541 43.2883C198.312 42.9581 199.192 42.793 200.183 42.793C201.661 42.793 202.848 43.1703 203.744 43.925C204.656 44.664 205.143 45.6781 205.206 46.9674H202.517C202.47 46.3856 202.234 45.9218 201.81 45.5759C201.385 45.23 200.812 45.0571 200.088 45.0571C199.381 45.0571 198.838 45.1907 198.461 45.458C198.084 45.7253 197.895 46.079 197.895 46.5193C197.895 46.8652 198.021 47.156 198.272 47.3919C198.524 47.6277 198.83 47.8164 199.192 47.9579C199.554 48.0837 200.088 48.2487 200.796 48.4531C201.739 48.7047 202.51 48.9641 203.107 49.2314C203.72 49.483 204.247 49.8603 204.687 50.3634C205.127 50.8666 205.355 51.5348 205.371 52.3681C205.371 53.107 205.167 53.7674 204.758 54.3491C204.349 54.9309 203.767 55.3868 203.013 55.717C202.274 56.0472 201.401 56.2123 200.395 56.2123ZM211.413 45.1986V52.3917C211.413 52.8791 211.523 53.2328 211.743 53.4529C211.979 53.6573 212.372 53.7595 212.922 53.7595H214.573V56H212.45C211.24 56 210.312 55.717 209.668 55.151C209.023 54.585 208.701 53.6652 208.701 52.3917V45.1986H207.168V43.0052H208.701V39.7742H211.413V43.0052H214.573V45.1986H211.413Z" fill="white"/>
<g clip-path="url(#clip0_101_141)">
<path d="M63.4453 83.8613C63.4453 81.7764 62.617 79.7768 61.1427 78.3025C59.6684 76.8282 57.6689 76 55.5839 76H39.8613C37.7764 76 35.7768 76.8282 34.3025 78.3025C32.8282 79.7768 32 81.7764 32 83.8613V99.5839C32 101.669 32.8282 103.668 34.3025 105.143C35.7768 106.617 37.7764 107.445 39.8613 107.445H55.5839C57.6689 107.445 59.6684 106.617 61.1427 105.143C62.617 103.668 63.4453 101.669 63.4453 99.5839V83.8613ZM56.0669 84.7867C56.2407 84.9236 56.3858 85.0934 56.4938 85.2865C56.6019 85.4796 56.6707 85.6921 56.6963 85.9119C56.722 86.1316 56.704 86.3543 56.6434 86.5671C56.5828 86.7799 56.4807 86.9786 56.3431 87.1518L47.5115 98.3104C47.2972 98.6378 47.0168 98.9168 46.6883 99.1294C46.3598 99.342 45.9904 99.4835 45.6039 99.5448C45.2175 99.6062 44.8224 99.586 44.4442 99.4856C44.066 99.3852 43.713 99.2067 43.4079 98.9618L39.3941 95.8644C39.0403 95.5916 38.8093 95.1894 38.752 94.7462C38.6947 94.3031 38.8158 93.8554 39.0887 93.5015C39.3615 93.1477 39.7637 92.9167 40.2068 92.8594C40.65 92.8021 41.0977 92.9232 41.4515 93.1961L44.6185 95.6421C44.7364 95.7313 44.8845 95.7708 45.0312 95.7519C45.1778 95.733 45.3111 95.6572 45.4024 95.541L53.7129 85.0585C53.9898 84.7113 54.3928 84.4879 54.8338 84.4369C55.2749 84.386 55.7182 84.5118 56.0669 84.7867Z" fill="white"/>
<path d="M56.4939 85.2865C56.3859 85.0934 56.2408 84.9236 56.067 84.7867C55.7183 84.5118 55.275 84.386 54.8339 84.437C54.3929 84.4879 53.9899 84.7113 53.7131 85.0585L45.4025 95.541C45.3112 95.6572 45.1779 95.733 45.0313 95.7519C44.8846 95.7708 44.7365 95.7313 44.6186 95.6421L41.4517 93.1961C41.0978 92.9232 40.6501 92.8021 40.2069 92.8594C39.7638 92.9167 39.3616 93.1477 39.0888 93.5015C38.8159 93.8554 38.6948 94.3031 38.7521 94.7462C38.8094 95.1894 39.0404 95.5916 39.3942 95.8644L43.408 98.9618C43.7131 99.2067 44.0661 99.3852 44.4444 99.4856C44.8226 99.586 45.2176 99.6062 45.604 99.5448C45.9905 99.4835 46.3599 99.342 46.6884 99.1294C47.0169 98.9168 47.2973 98.6378 47.5116 98.3104L56.3432 87.1518C56.4809 86.9786 56.5829 86.7799 56.6435 86.5671C56.7041 86.3543 56.7221 86.1316 56.6965 85.9119C56.6708 85.6921 56.602 85.4796 56.4939 85.2865Z" fill="#845CF6"/>
</g>
<path d="M85.6924 99.3694C84.7281 99.3694 83.8616 99.2017 83.0929 98.8662C82.3382 98.5169 81.7443 98.0417 81.311 97.4407C80.8778 96.8258 80.6542 96.12 80.6402 95.3234H82.6736C82.7435 96.0082 83.023 96.5882 83.5122 97.0634C84.0153 97.5246 84.742 97.7552 85.6924 97.7552C86.6008 97.7552 87.3136 97.5316 87.8307 97.0843C88.3617 96.6232 88.6273 96.0362 88.6273 95.3234C88.6273 94.7644 88.4735 94.3102 88.1661 93.9608C87.8586 93.6114 87.4743 93.3459 87.0131 93.1642C86.5519 92.9825 85.93 92.7868 85.1473 92.5772C84.183 92.3256 83.4074 92.0741 82.8204 91.8225C82.2474 91.5709 81.7512 91.1796 81.332 90.6486C80.9267 90.1035 80.724 89.3768 80.724 88.4683C80.724 87.6717 80.9267 86.966 81.332 86.351C81.7373 85.7361 82.3033 85.2609 83.03 84.9255C83.7707 84.5901 84.6163 84.4224 85.5666 84.4224C86.9362 84.4224 88.0543 84.7648 88.9208 85.4496C89.8012 86.1344 90.2974 87.0428 90.4092 88.1749H88.3128C88.2429 87.6158 87.9494 87.1267 87.4324 86.7074C86.9153 86.2742 86.2304 86.0575 85.3779 86.0575C84.5813 86.0575 83.9314 86.2672 83.4283 86.6864C82.9252 87.0917 82.6736 87.6647 82.6736 88.4055C82.6736 88.9365 82.8204 89.3698 83.1139 89.7052C83.4213 90.0406 83.7917 90.2992 84.2249 90.4808C84.6722 90.6486 85.2941 90.8442 86.0907 91.0678C87.055 91.3334 87.8307 91.5989 88.4176 91.8644C89.0046 92.116 89.5077 92.5143 89.927 93.0594C90.3463 93.5904 90.5559 94.3172 90.5559 95.2396C90.5559 95.9523 90.3672 96.6232 89.9899 97.2521C89.6126 97.881 89.0535 98.3911 88.3128 98.7824C87.5721 99.1737 86.6986 99.3694 85.6924 99.3694ZM92.6505 93.4577C92.6505 92.2697 92.888 91.2355 93.3632 90.3551C93.8384 89.4606 94.4952 88.7688 95.3338 88.2797C96.1863 87.7905 97.1576 87.546 98.2477 87.546C99.6593 87.546 100.819 87.8884 101.728 88.5732C102.65 89.258 103.258 90.2083 103.551 91.4242H101.497C101.301 90.7254 100.917 90.1734 100.344 89.7681C99.785 89.3628 99.0863 89.1601 98.2477 89.1601C97.1576 89.1601 96.2771 89.5375 95.6063 90.2922C94.9355 91.0329 94.6001 92.088 94.6001 93.4577C94.6001 94.8413 94.9355 95.9104 95.6063 96.6651C96.2771 97.4198 97.1576 97.7971 98.2477 97.7971C99.0863 97.7971 99.785 97.6014 100.344 97.2101C100.903 96.8188 101.287 96.2598 101.497 95.533H103.551C103.244 96.707 102.629 97.6504 101.707 98.3631C100.784 99.0619 99.6313 99.4113 98.2477 99.4113C97.1576 99.4113 96.1863 99.1667 95.3338 98.6776C94.4952 98.1884 93.8384 97.4966 93.3632 96.6022C92.888 95.7077 92.6505 94.6596 92.6505 93.4577ZM105.384 93.4367C105.384 92.2627 105.622 91.2355 106.097 90.3551C106.572 89.4606 107.222 88.7688 108.047 88.2797C108.885 87.7905 109.814 87.546 110.835 87.546C111.841 87.546 112.714 87.7626 113.455 88.1958C114.196 88.6291 114.748 89.1741 115.111 89.831V87.7346H117.04V99.2226H115.111V97.0843C114.734 97.7552 114.168 98.3142 113.413 98.7614C112.672 99.1947 111.806 99.4113 110.814 99.4113C109.793 99.4113 108.871 99.1597 108.047 98.6566C107.222 98.1535 106.572 97.4477 106.097 96.5393C105.622 95.6309 105.384 94.5967 105.384 93.4367ZM115.111 93.4577C115.111 92.5912 114.937 91.8365 114.587 91.1936C114.238 90.5507 113.763 90.0616 113.162 89.7262C112.575 89.3768 111.925 89.2021 111.212 89.2021C110.499 89.2021 109.849 89.3698 109.262 89.7052C108.675 90.0406 108.207 90.5298 107.858 91.1726C107.508 91.8155 107.334 92.5702 107.334 93.4367C107.334 94.3172 107.508 95.0858 107.858 95.7427C108.207 96.3856 108.675 96.8817 109.262 97.2311C109.849 97.5665 110.499 97.7342 111.212 97.7342C111.925 97.7342 112.575 97.5665 113.162 97.2311C113.763 96.8817 114.238 96.3856 114.587 95.7427C114.937 95.0858 115.111 94.3242 115.111 93.4577ZM122.171 83.7096V99.2226H120.264V83.7096H122.171ZM130.097 89.3069H127.687V99.2226H125.779V89.3069H124.291V87.7346H125.779V86.917C125.779 85.6313 126.107 84.6949 126.764 84.1079C127.435 83.507 128.504 83.2065 129.972 83.2065V84.7997C129.133 84.7997 128.539 84.9674 128.19 85.3029C127.854 85.6243 127.687 86.1624 127.687 86.917V87.7346H130.097V89.3069ZM137.332 99.4113C136.256 99.4113 135.278 99.1667 134.397 98.6776C133.531 98.1884 132.846 97.4966 132.343 96.6022C131.854 95.6938 131.609 94.6456 131.609 93.4577C131.609 92.2837 131.861 91.2495 132.364 90.3551C132.881 89.4466 133.58 88.7548 134.46 88.2797C135.341 87.7905 136.326 87.546 137.416 87.546C138.506 87.546 139.491 87.7905 140.372 88.2797C141.252 88.7548 141.944 89.4397 142.447 90.3341C142.964 91.2285 143.223 92.2697 143.223 93.4577C143.223 94.6456 142.957 95.6938 142.426 96.6022C141.909 97.4966 141.203 98.1884 140.309 98.6776C139.414 99.1667 138.422 99.4113 137.332 99.4113ZM137.332 97.7342C138.017 97.7342 138.66 97.5735 139.261 97.2521C139.862 96.9306 140.344 96.4485 140.707 95.8056C141.085 95.1627 141.273 94.3801 141.273 93.4577C141.273 92.5353 141.091 91.7526 140.728 91.1097C140.365 90.4669 139.89 89.9917 139.303 89.6842C138.716 89.3628 138.08 89.2021 137.395 89.2021C136.696 89.2021 136.053 89.3628 135.466 89.6842C134.893 89.9917 134.432 90.4669 134.083 91.1097C133.733 91.7526 133.559 92.5353 133.559 93.4577C133.559 94.394 133.726 95.1837 134.062 95.8265C134.411 96.4694 134.872 96.9516 135.445 97.273C136.018 97.5805 136.647 97.7342 137.332 97.7342ZM147.639 83.7096V99.2226H145.731V83.7096H147.639ZM150.177 93.4367C150.177 92.2627 150.415 91.2355 150.89 90.3551C151.365 89.4606 152.015 88.7688 152.84 88.2797C153.678 87.7905 154.615 87.546 155.649 87.546C156.543 87.546 157.375 87.7556 158.143 88.1749C158.912 88.5802 159.499 89.1182 159.904 89.789V83.7096H161.833V99.2226H159.904V97.0634C159.527 97.7482 158.968 98.3142 158.227 98.7614C157.487 99.1947 156.62 99.4113 155.628 99.4113C154.608 99.4113 153.678 99.1597 152.84 98.6566C152.015 98.1535 151.365 97.4477 150.89 96.5393C150.415 95.6309 150.177 94.5967 150.177 93.4367ZM159.904 93.4577C159.904 92.5912 159.73 91.8365 159.38 91.1936C159.031 90.5507 158.556 90.0616 157.955 89.7262C157.368 89.3768 156.718 89.2021 156.005 89.2021C155.292 89.2021 154.642 89.3698 154.056 89.7052C153.469 90.0406 153 90.5298 152.651 91.1726C152.302 91.8155 152.127 92.5702 152.127 93.4367C152.127 94.3172 152.302 95.0858 152.651 95.7427C153 96.3856 153.469 96.8817 154.056 97.2311C154.642 97.5665 155.292 97.7342 156.005 97.7342C156.718 97.7342 157.368 97.5665 157.955 97.2311C158.556 96.8817 159.031 96.3856 159.38 95.7427C159.73 95.0858 159.904 94.3242 159.904 93.4577Z" fill="white"/>
<path d="M79.4453 92.3466H163.447V93.3948H79.4453V92.3466Z" fill="white"/>
<g clip-path="url(#clip1_101_141)">
<path d="M60.4479 122.443C61.7379 123.733 62.4626 125.482 62.4626 127.307V143.029C62.4626 144.854 61.7379 146.603 60.4479 147.893C59.1579 149.183 57.4083 149.908 55.5839 149.908H39.8613C38.037 149.908 36.2874 149.183 34.9974 147.893C33.7074 146.603 32.9827 144.854 32.9827 143.029V127.307C32.9827 125.482 33.7074 123.733 34.9974 122.443C36.2874 121.153 38.037 120.428 39.8613 120.428H55.5839C57.4083 120.428 59.1579 121.153 60.4479 122.443Z" stroke="white" stroke-width="1.96533" stroke-linecap="round" stroke-linejoin="round"/>
</g>
<path d="M85.6924 142.815C84.7281 142.815 83.8616 142.647 83.0929 142.311C82.3382 141.962 81.7443 141.487 81.311 140.886C80.8778 140.271 80.6542 139.565 80.6402 138.769H82.6736C82.7435 139.453 83.023 140.033 83.5122 140.509C84.0153 140.97 84.742 141.2 85.6924 141.2C86.6008 141.2 87.3136 140.977 87.8307 140.53C88.3617 140.068 88.6273 139.481 88.6273 138.769C88.6273 138.21 88.4735 137.755 88.1661 137.406C87.8586 137.057 87.4743 136.791 87.0131 136.609C86.5519 136.428 85.93 136.232 85.1473 136.022C84.183 135.771 83.4074 135.519 82.8204 135.268C82.2474 135.016 81.7512 134.625 81.332 134.094C80.9267 133.549 80.724 132.822 80.724 131.914C80.724 131.117 80.9267 130.411 81.332 129.796C81.7373 129.181 82.3033 128.706 83.03 128.371C83.7707 128.035 84.6163 127.868 85.5666 127.868C86.9362 127.868 88.0543 128.21 88.9208 128.895C89.8012 129.58 90.2974 130.488 90.4092 131.62H88.3128C88.2429 131.061 87.9494 130.572 87.4324 130.153C86.9153 129.719 86.2304 129.503 85.3779 129.503C84.5813 129.503 83.9314 129.712 83.4283 130.132C82.9252 130.537 82.6736 131.11 82.6736 131.851C82.6736 132.382 82.8204 132.815 83.1139 133.15C83.4213 133.486 83.7917 133.744 84.2249 133.926C84.6722 134.094 85.2941 134.289 86.0907 134.513C87.055 134.779 87.8307 135.044 88.4176 135.31C89.0046 135.561 89.5077 135.96 89.927 136.505C90.3463 137.036 90.5559 137.762 90.5559 138.685C90.5559 139.398 90.3672 140.068 89.9899 140.697C89.6126 141.326 89.0535 141.836 88.3128 142.228C87.5721 142.619 86.6986 142.815 85.6924 142.815ZM103.845 136.484C103.845 136.847 103.824 137.231 103.782 137.637H94.6001C94.6699 138.769 95.0543 139.656 95.7531 140.299C96.4658 140.928 97.3253 141.242 98.3316 141.242C99.1561 141.242 99.8409 141.054 100.386 140.676C100.945 140.285 101.336 139.768 101.56 139.125H103.614C103.307 140.229 102.692 141.131 101.77 141.829C100.847 142.514 99.7012 142.857 98.3316 142.857C97.2415 142.857 96.2632 142.612 95.3967 142.123C94.5442 141.634 93.8733 140.942 93.3842 140.047C92.895 139.139 92.6505 138.091 92.6505 136.903C92.6505 135.715 92.888 134.674 93.3632 133.779C93.8384 132.885 94.5022 132.2 95.3548 131.725C96.2212 131.236 97.2135 130.991 98.3316 130.991C99.4217 130.991 100.386 131.229 101.225 131.704C102.063 132.179 102.706 132.836 103.153 133.675C103.614 134.499 103.845 135.435 103.845 136.484ZM101.874 136.085C101.874 135.359 101.714 134.737 101.392 134.22C101.071 133.689 100.631 133.29 100.072 133.025C99.5265 132.745 98.9185 132.605 98.2477 132.605C97.2834 132.605 96.4588 132.913 95.774 133.528C95.1032 134.143 94.7189 134.995 94.621 136.085H101.874ZM108.69 132.752V139.523C108.69 140.082 108.809 140.481 109.046 140.718C109.284 140.942 109.696 141.054 110.283 141.054H111.688V142.668H109.969C108.907 142.668 108.11 142.423 107.579 141.934C107.048 141.445 106.782 140.641 106.782 139.523V132.752H105.294V131.18H106.782V128.287H108.69V131.18H111.688V132.752H108.69ZM124.187 131.18V142.668H122.28V140.97C121.916 141.557 121.406 142.018 120.749 142.353C120.107 142.675 119.394 142.836 118.611 142.836C117.717 142.836 116.913 142.654 116.2 142.291C115.488 141.913 114.922 141.354 114.502 140.613C114.097 139.873 113.894 138.971 113.894 137.909V131.18H115.781V137.658C115.781 138.79 116.068 139.663 116.641 140.278C117.214 140.879 117.996 141.179 118.988 141.179C120.009 141.179 120.812 140.865 121.399 140.236C121.986 139.607 122.28 138.692 122.28 137.49V131.18H124.187ZM129.316 133.297C129.693 132.64 130.252 132.095 130.993 131.662C131.748 131.215 132.621 130.991 133.614 130.991C134.634 130.991 135.556 131.236 136.381 131.725C137.219 132.214 137.876 132.906 138.351 133.8C138.827 134.681 139.064 135.708 139.064 136.882C139.064 138.042 138.827 139.076 138.351 139.985C137.876 140.893 137.219 141.599 136.381 142.102C135.556 142.605 134.634 142.857 133.614 142.857C132.635 142.857 131.769 142.64 131.014 142.207C130.273 141.759 129.707 141.207 129.316 140.551V148.118H127.408V131.18H129.316V133.297ZM137.115 136.882C137.115 136.015 136.94 135.261 136.59 134.618C136.241 133.975 135.766 133.486 135.165 133.15C134.578 132.815 133.928 132.647 133.215 132.647C132.517 132.647 131.867 132.822 131.266 133.171C130.679 133.507 130.204 134.003 129.84 134.66C129.491 135.303 129.316 136.05 129.316 136.903C129.316 137.769 129.491 138.531 129.84 139.188C130.204 139.831 130.679 140.327 131.266 140.676C131.867 141.012 132.517 141.179 133.215 141.179C133.928 141.179 134.578 141.012 135.165 140.676C135.766 140.327 136.241 139.831 136.59 139.188C136.94 138.531 137.115 137.762 137.115 136.882ZM155.424 128.056V129.608H149.072V134.534H154.229V136.085H149.072V142.668H147.164V128.056H155.424ZM158.713 129.314C158.35 129.314 158.042 129.188 157.791 128.937C157.539 128.685 157.413 128.378 157.413 128.014C157.413 127.651 157.539 127.344 157.791 127.092C158.042 126.84 158.35 126.715 158.713 126.715C159.062 126.715 159.356 126.84 159.593 127.092C159.845 127.344 159.971 127.651 159.971 128.014C159.971 128.378 159.845 128.685 159.593 128.937C159.356 129.188 159.062 129.314 158.713 129.314ZM159.635 131.18V142.668H157.728V131.18H159.635ZM164.794 133.046C165.13 132.389 165.605 131.879 166.22 131.515C166.849 131.152 167.61 130.97 168.505 130.97V132.941H168.002C165.864 132.941 164.794 134.101 164.794 136.421V142.668H162.887V131.18H164.794V133.046ZM181.189 136.484C181.189 136.847 181.168 137.231 181.126 137.637H171.944C172.014 138.769 172.398 139.656 173.097 140.299C173.81 140.928 174.669 141.242 175.675 141.242C176.5 141.242 177.185 141.054 177.73 140.676C178.289 140.285 178.68 139.768 178.904 139.125H180.958C180.651 140.229 180.036 141.131 179.113 141.829C178.191 142.514 177.045 142.857 175.675 142.857C174.585 142.857 173.607 142.612 172.741 142.123C171.888 141.634 171.217 140.942 170.728 140.047C170.239 139.139 169.994 138.091 169.994 136.903C169.994 135.715 170.232 134.674 170.707 133.779C171.182 132.885 171.846 132.2 172.699 131.725C173.565 131.236 174.557 130.991 175.675 130.991C176.766 130.991 177.73 131.229 178.568 131.704C179.407 132.179 180.05 132.836 180.497 133.675C180.958 134.499 181.189 135.435 181.189 136.484ZM179.218 136.085C179.218 135.359 179.058 134.737 178.736 134.22C178.415 133.689 177.974 133.29 177.415 133.025C176.87 132.745 176.262 132.605 175.592 132.605C174.627 132.605 173.803 132.913 173.118 133.528C172.447 134.143 172.063 134.995 171.965 136.085H179.218ZM185.615 133.318C186.006 132.633 186.579 132.074 187.334 131.641C188.088 131.208 188.948 130.991 189.912 130.991C190.946 130.991 191.876 131.236 192.7 131.725C193.525 132.214 194.175 132.906 194.65 133.8C195.125 134.681 195.363 135.708 195.363 136.882C195.363 138.042 195.125 139.076 194.65 139.985C194.175 140.893 193.518 141.599 192.679 142.102C191.855 142.605 190.932 142.857 189.912 142.857C188.92 142.857 188.046 142.64 187.292 142.207C186.551 141.773 185.992 141.221 185.615 140.551V142.668H183.707V127.155H185.615V133.318ZM193.413 136.882C193.413 136.015 193.238 135.261 192.889 134.618C192.54 133.975 192.064 133.486 191.463 133.15C190.876 132.815 190.227 132.647 189.514 132.647C188.815 132.647 188.165 132.822 187.564 133.171C186.977 133.507 186.502 134.003 186.139 134.66C185.789 135.303 185.615 136.05 185.615 136.903C185.615 137.769 185.789 138.531 186.139 139.188C186.502 139.831 186.977 140.327 187.564 140.676C188.165 141.012 188.815 141.179 189.514 141.179C190.227 141.179 190.876 141.012 191.463 140.676C192.064 140.327 192.54 139.831 192.889 139.188C193.238 138.531 193.413 137.762 193.413 136.882ZM197.161 136.882C197.161 135.708 197.398 134.681 197.874 133.8C198.349 132.906 198.999 132.214 199.823 131.725C200.662 131.236 201.591 130.991 202.611 130.991C203.618 130.991 204.491 131.208 205.232 131.641C205.973 132.074 206.525 132.619 206.888 133.276V131.18H208.817V142.668H206.888V140.53C206.511 141.2 205.945 141.759 205.19 142.207C204.449 142.64 203.583 142.857 202.59 142.857C201.57 142.857 200.648 142.605 199.823 142.102C198.999 141.599 198.349 140.893 197.874 139.985C197.398 139.076 197.161 138.042 197.161 136.882ZM206.888 136.903C206.888 136.036 206.713 135.282 206.364 134.639C206.014 133.996 205.539 133.507 204.938 133.171C204.351 132.822 203.702 132.647 202.989 132.647C202.276 132.647 201.626 132.815 201.039 133.15C200.452 133.486 199.984 133.975 199.635 134.618C199.285 135.261 199.111 136.015 199.111 136.882C199.111 137.762 199.285 138.531 199.635 139.188C199.984 139.831 200.452 140.327 201.039 140.676C201.626 141.012 202.276 141.179 202.989 141.179C203.702 141.179 204.351 141.012 204.938 140.676C205.539 140.327 206.014 139.831 206.364 139.188C206.713 138.531 206.888 137.769 206.888 136.903ZM216.107 142.857C215.227 142.857 214.437 142.71 213.738 142.416C213.04 142.109 212.488 141.69 212.082 141.159C211.677 140.613 211.453 139.992 211.411 139.293H213.382C213.438 139.866 213.704 140.334 214.179 140.697C214.668 141.061 215.304 141.242 216.086 141.242C216.813 141.242 217.386 141.082 217.805 140.76C218.225 140.439 218.434 140.033 218.434 139.544C218.434 139.041 218.211 138.671 217.763 138.433C217.316 138.182 216.624 137.937 215.688 137.7C214.836 137.476 214.137 137.252 213.592 137.029C213.061 136.791 212.599 136.449 212.208 136.001C211.831 135.54 211.642 134.939 211.642 134.199C211.642 133.612 211.817 133.074 212.166 132.584C212.516 132.095 213.012 131.711 213.655 131.431C214.297 131.138 215.031 130.991 215.856 130.991C217.128 130.991 218.155 131.313 218.937 131.956C219.72 132.598 220.139 133.479 220.195 134.597H218.288C218.246 133.996 218.001 133.514 217.554 133.15C217.121 132.787 216.534 132.605 215.793 132.605C215.108 132.605 214.563 132.752 214.158 133.046C213.752 133.339 213.55 133.723 213.55 134.199C213.55 134.576 213.669 134.89 213.906 135.142C214.158 135.38 214.465 135.575 214.829 135.729C215.206 135.869 215.723 136.029 216.38 136.211C217.204 136.435 217.875 136.658 218.392 136.882C218.909 137.092 219.35 137.413 219.713 137.846C220.09 138.28 220.286 138.846 220.3 139.544C220.3 140.173 220.125 140.739 219.776 141.242C219.427 141.745 218.93 142.144 218.288 142.437C217.659 142.717 216.932 142.857 216.107 142.857ZM233.475 136.484C233.475 136.847 233.454 137.231 233.412 137.637H224.23C224.3 138.769 224.684 139.656 225.383 140.299C226.096 140.928 226.955 141.242 227.961 141.242C228.786 141.242 229.471 141.054 230.016 140.676C230.575 140.285 230.966 139.768 231.19 139.125H233.244C232.937 140.229 232.322 141.131 231.399 141.829C230.477 142.514 229.331 142.857 227.961 142.857C226.871 142.857 225.893 142.612 225.026 142.123C224.174 141.634 223.503 140.942 223.014 140.047C222.525 139.139 222.28 138.091 222.28 136.903C222.28 135.715 222.518 134.674 222.993 133.779C223.468 132.885 224.132 132.2 224.985 131.725C225.851 131.236 226.843 130.991 227.961 130.991C229.051 130.991 230.016 131.229 230.854 131.704C231.693 132.179 232.336 132.836 232.783 133.675C233.244 134.499 233.475 135.435 233.475 136.484ZM231.504 136.085C231.504 135.359 231.343 134.737 231.022 134.22C230.701 133.689 230.26 133.29 229.701 133.025C229.156 132.745 228.548 132.605 227.878 132.605C226.913 132.605 226.089 132.913 225.404 133.528C224.733 134.143 224.349 134.995 224.251 136.085H231.504Z" fill="white"/>
<g clip-path="url(#clip2_101_141)">
<path d="M92.4479 165.888C93.7379 167.178 94.4626 168.927 94.4626 170.752V186.474C94.4626 188.299 93.7379 190.048 92.4479 191.338C91.1579 192.628 89.4083 193.353 87.5839 193.353H71.8613C70.037 193.353 68.2874 192.628 66.9974 191.338C65.7074 190.048 64.9827 188.299 64.9827 186.474V170.752C64.9827 168.927 65.7074 167.178 66.9974 165.888C68.2874 164.598 70.037 163.873 71.8613 163.873H87.5839C89.4083 163.873 91.1579 164.598 92.4479 165.888Z" stroke="white" stroke-width="1.96533" stroke-linecap="round" stroke-linejoin="round"/>
</g>
<path d="M114.967 171.502V186.113H113.059V171.502H114.967ZM123.816 174.415C125.213 174.415 126.345 174.842 127.212 175.694C128.078 176.533 128.512 177.749 128.512 179.342V186.113H126.625V179.614C126.625 178.468 126.338 177.595 125.765 176.994C125.192 176.379 124.41 176.072 123.417 176.072C122.411 176.072 121.608 176.386 121.007 177.015C120.42 177.644 120.126 178.559 120.126 179.761V186.113H118.218V174.625H120.126V176.26C120.503 175.673 121.014 175.219 121.656 174.898C122.313 174.576 123.033 174.415 123.816 174.415ZM133.955 176.197V182.969C133.955 183.528 134.073 183.926 134.311 184.164C134.549 184.387 134.961 184.499 135.548 184.499H136.952V186.113H135.233C134.171 186.113 133.375 185.869 132.844 185.379C132.313 184.89 132.047 184.087 132.047 182.969V176.197H130.559V174.625H132.047V171.732H133.955V174.625H136.952V176.197H133.955ZM149.746 179.929C149.746 180.292 149.725 180.677 149.683 181.082H140.501C140.571 182.214 140.955 183.101 141.654 183.744C142.366 184.373 143.226 184.688 144.232 184.688C145.057 184.688 145.742 184.499 146.287 184.122C146.846 183.73 147.237 183.213 147.461 182.57H149.515C149.208 183.674 148.593 184.576 147.67 185.275C146.748 185.959 145.602 186.302 144.232 186.302C143.142 186.302 142.164 186.057 141.297 185.568C140.445 185.079 139.774 184.387 139.285 183.493C138.796 182.584 138.551 181.536 138.551 180.348C138.551 179.16 138.789 178.119 139.264 177.225C139.739 176.33 140.403 175.645 141.255 175.17C142.122 174.681 143.114 174.436 144.232 174.436C145.322 174.436 146.287 174.674 147.125 175.149C147.964 175.624 148.607 176.281 149.054 177.12C149.515 177.944 149.746 178.881 149.746 179.929ZM147.775 179.531C147.775 178.804 147.614 178.182 147.293 177.665C146.971 177.134 146.531 176.735 145.972 176.47C145.427 176.19 144.819 176.051 144.148 176.051C143.184 176.051 142.359 176.358 141.675 176.973C141.004 177.588 140.619 178.44 140.522 179.531H147.775ZM157.001 174.436C157.994 174.436 158.86 174.653 159.601 175.086C160.356 175.52 160.915 176.065 161.278 176.721V174.625H163.207V186.365C163.207 187.413 162.983 188.342 162.536 189.153C162.089 189.977 161.446 190.62 160.607 191.081C159.783 191.543 158.818 191.773 157.714 191.773C156.205 191.773 154.947 191.417 153.941 190.704C152.934 189.991 152.341 189.02 152.159 187.79H154.046C154.255 188.489 154.688 189.048 155.345 189.467C156.002 189.901 156.792 190.117 157.714 190.117C158.762 190.117 159.615 189.789 160.272 189.132C160.943 188.475 161.278 187.553 161.278 186.365V183.954C160.901 184.625 160.342 185.184 159.601 185.631C158.86 186.078 157.994 186.302 157.001 186.302C155.981 186.302 155.052 186.05 154.213 185.547C153.389 185.044 152.739 184.338 152.264 183.43C151.788 182.521 151.551 181.487 151.551 180.327C151.551 179.153 151.788 178.126 152.264 177.246C152.739 176.351 153.389 175.659 154.213 175.17C155.052 174.681 155.981 174.436 157.001 174.436ZM161.278 180.348C161.278 179.482 161.103 178.727 160.754 178.084C160.404 177.441 159.929 176.952 159.328 176.617C158.741 176.267 158.092 176.093 157.379 176.093C156.666 176.093 156.016 176.26 155.429 176.596C154.842 176.931 154.374 177.42 154.025 178.063C153.675 178.706 153.5 179.461 153.5 180.327C153.5 181.208 153.675 181.976 154.025 182.633C154.374 183.276 154.842 183.772 155.429 184.122C156.016 184.457 156.666 184.625 157.379 184.625C158.092 184.625 158.741 184.457 159.328 184.122C159.929 183.772 160.404 183.276 160.754 182.633C161.103 181.976 161.278 181.215 161.278 180.348ZM168.338 176.491C168.673 175.834 169.149 175.324 169.764 174.961C170.392 174.597 171.154 174.415 172.049 174.415V176.386H171.545C169.407 176.386 168.338 177.546 168.338 179.866V186.113H166.43V174.625H168.338V176.491ZM173.538 180.327C173.538 179.153 173.776 178.126 174.251 177.246C174.726 176.351 175.376 175.659 176.2 175.17C177.039 174.681 177.968 174.436 178.989 174.436C179.995 174.436 180.868 174.653 181.609 175.086C182.35 175.52 182.902 176.065 183.265 176.721V174.625H185.194V186.113H183.265V183.975C182.888 184.646 182.322 185.205 181.567 185.652C180.826 186.085 179.96 186.302 178.968 186.302C177.947 186.302 177.025 186.05 176.2 185.547C175.376 185.044 174.726 184.338 174.251 183.43C173.776 182.521 173.538 181.487 173.538 180.327ZM183.265 180.348C183.265 179.482 183.09 178.727 182.741 178.084C182.392 177.441 181.916 176.952 181.315 176.617C180.728 176.267 180.079 176.093 179.366 176.093C178.653 176.093 178.003 176.26 177.416 176.596C176.829 176.931 176.361 177.42 176.012 178.063C175.662 178.706 175.488 179.461 175.488 180.327C175.488 181.208 175.662 181.976 176.012 182.633C176.361 183.276 176.829 183.772 177.416 184.122C178.003 184.457 178.653 184.625 179.366 184.625C180.079 184.625 180.728 184.457 181.315 184.122C181.916 183.772 182.392 183.276 182.741 182.633C183.09 181.976 183.265 181.215 183.265 180.348ZM190.744 176.197V182.969C190.744 183.528 190.863 183.926 191.101 184.164C191.338 184.387 191.751 184.499 192.338 184.499H193.742V186.113H192.023C190.961 186.113 190.164 185.869 189.633 185.379C189.102 184.89 188.837 184.087 188.837 182.969V176.197H187.348V174.625H188.837V171.732H190.744V174.625H193.742V176.197H190.744ZM206.535 179.929C206.535 180.292 206.514 180.677 206.472 181.082H197.29C197.36 182.214 197.745 183.101 198.443 183.744C199.156 184.373 200.016 184.688 201.022 184.688C201.847 184.688 202.531 184.499 203.076 184.122C203.635 183.73 204.027 183.213 204.25 182.57H206.305C205.997 183.674 205.382 184.576 204.46 185.275C203.538 185.959 202.392 186.302 201.022 186.302C199.932 186.302 198.954 186.057 198.087 185.568C197.235 185.079 196.564 184.387 196.075 183.493C195.585 182.584 195.341 181.536 195.341 180.348C195.341 179.16 195.578 178.119 196.054 177.225C196.529 176.33 197.193 175.645 198.045 175.17C198.912 174.681 199.904 174.436 201.022 174.436C202.112 174.436 203.076 174.674 203.915 175.149C204.753 175.624 205.396 176.281 205.844 177.12C206.305 177.944 206.535 178.881 206.535 179.929ZM204.565 179.531C204.565 178.804 204.404 178.182 204.083 177.665C203.761 177.134 203.321 176.735 202.762 176.47C202.217 176.19 201.609 176.051 200.938 176.051C199.974 176.051 199.149 176.358 198.464 176.973C197.794 177.588 197.409 178.44 197.311 179.531H204.565ZM223.279 182.864H216.906L215.732 186.113H213.72L219.003 171.585H221.204L226.466 186.113H224.453L223.279 182.864ZM222.734 181.312L220.093 173.933L217.451 181.312H222.734ZM238.956 174.625V186.113H237.049V184.415C236.685 185.002 236.175 185.463 235.518 185.799C234.876 186.12 234.163 186.281 233.38 186.281C232.486 186.281 231.682 186.099 230.969 185.736C230.257 185.358 229.691 184.799 229.271 184.059C228.866 183.318 228.663 182.417 228.663 181.354V174.625H230.55V181.103C230.55 182.235 230.837 183.108 231.41 183.723C231.983 184.324 232.765 184.625 233.757 184.625C234.778 184.625 235.581 184.31 236.168 183.681C236.755 183.052 237.049 182.137 237.049 180.935V174.625H238.956ZM244.504 176.197V182.969C244.504 183.528 244.623 183.926 244.861 184.164C245.098 184.387 245.511 184.499 246.098 184.499H247.502V186.113H245.783C244.721 186.113 243.924 185.869 243.393 185.379C242.862 184.89 242.597 184.087 242.597 182.969V176.197H241.108V174.625H242.597V171.732H244.504V174.625H247.502V176.197H244.504ZM255.516 174.415C256.382 174.415 257.165 174.604 257.864 174.982C258.562 175.345 259.107 175.897 259.499 176.638C259.904 177.378 260.107 178.28 260.107 179.342V186.113H258.22V179.614C258.22 178.468 257.933 177.595 257.36 176.994C256.787 176.379 256.005 176.072 255.012 176.072C254.006 176.072 253.203 176.386 252.602 177.015C252.015 177.644 251.721 178.559 251.721 179.761V186.113H249.814V170.6H251.721V176.26C252.099 175.673 252.616 175.219 253.273 174.898C253.943 174.576 254.691 174.415 255.516 174.415Z" fill="white"/>
<g clip-path="url(#clip3_101_141)">
<path d="M92.4479 209.333C93.7379 210.623 94.4626 212.373 94.4626 214.197V229.92C94.4626 231.744 93.7379 233.494 92.4479 234.784C91.1579 236.074 89.4083 236.798 87.5839 236.798H71.8613C70.037 236.798 68.2874 236.074 66.9974 234.784C65.7074 233.494 64.9827 231.744 64.9827 229.92V214.197C64.9827 212.373 65.7074 210.623 66.9974 209.333C68.2874 208.043 70.037 207.318 71.8613 207.318H87.5839C89.4083 207.318 91.1579 208.043 92.4479 209.333Z" stroke="white" stroke-width="1.96533" stroke-linecap="round" stroke-linejoin="round"/>
</g>
<path d="M117.609 214.947C119.202 214.947 120.578 215.247 121.738 215.848C122.912 216.435 123.807 217.281 124.422 218.385C125.051 219.489 125.365 220.789 125.365 222.284C125.365 223.779 125.051 225.079 124.422 226.183C123.807 227.273 122.912 228.112 121.738 228.699C120.578 229.272 119.202 229.558 117.609 229.558H113.059V214.947H117.609ZM117.609 227.986C119.495 227.986 120.935 227.49 121.927 226.498C122.919 225.491 123.415 224.087 123.415 222.284C123.415 220.467 122.912 219.049 121.906 218.028C120.914 217.008 119.481 216.498 117.609 216.498H114.967V227.986H117.609ZM138.363 223.374C138.363 223.738 138.342 224.122 138.3 224.527H129.118C129.188 225.659 129.572 226.547 130.271 227.19C130.984 227.818 131.843 228.133 132.85 228.133C133.674 228.133 134.359 227.944 134.904 227.567C135.463 227.176 135.854 226.658 136.078 226.016H138.132C137.825 227.12 137.21 228.021 136.288 228.72C135.365 229.405 134.219 229.747 132.85 229.747C131.76 229.747 130.781 229.502 129.915 229.013C129.062 228.524 128.391 227.832 127.902 226.938C127.413 226.03 127.169 224.981 127.169 223.793C127.169 222.605 127.406 221.564 127.881 220.67C128.356 219.775 129.02 219.091 129.873 218.615C130.739 218.126 131.732 217.882 132.85 217.882C133.94 217.882 134.904 218.119 135.743 218.594C136.581 219.07 137.224 219.726 137.671 220.565C138.132 221.39 138.363 222.326 138.363 223.374ZM136.392 222.976C136.392 222.249 136.232 221.627 135.91 221.11C135.589 220.579 135.149 220.181 134.59 219.915C134.045 219.636 133.437 219.496 132.766 219.496C131.801 219.496 130.977 219.803 130.292 220.418C129.621 221.033 129.237 221.886 129.139 222.976H136.392ZM145.556 219.643H143.145V229.558H141.238V219.643H139.749V218.07H141.238V217.253C141.238 215.967 141.566 215.031 142.223 214.444C142.894 213.843 143.963 213.542 145.43 213.542V215.135C144.592 215.135 143.998 215.303 143.648 215.639C143.313 215.96 143.145 216.498 143.145 217.253V218.07H145.556V219.643ZM148.766 216.205C148.402 216.205 148.095 216.079 147.843 215.827C147.592 215.576 147.466 215.268 147.466 214.905C147.466 214.542 147.592 214.234 147.843 213.982C148.095 213.731 148.402 213.605 148.766 213.605C149.115 213.605 149.408 213.731 149.646 213.982C149.898 214.234 150.023 214.542 150.023 214.905C150.023 215.268 149.898 215.576 149.646 215.827C149.408 216.079 149.115 216.205 148.766 216.205ZM149.688 218.07V229.558H147.78V218.07H149.688ZM158.536 217.861C159.934 217.861 161.066 218.287 161.933 219.14C162.799 219.978 163.232 221.194 163.232 222.787V229.558H161.346V223.06C161.346 221.914 161.059 221.04 160.486 220.439C159.913 219.824 159.13 219.517 158.138 219.517C157.132 219.517 156.328 219.831 155.727 220.46C155.14 221.089 154.847 222.005 154.847 223.206V229.558H152.939V218.07H154.847V219.706C155.224 219.119 155.734 218.664 156.377 218.343C157.034 218.021 157.754 217.861 158.536 217.861ZM176.83 223.374C176.83 223.738 176.809 224.122 176.767 224.527H167.585C167.655 225.659 168.04 226.547 168.738 227.19C169.451 227.818 170.311 228.133 171.317 228.133C172.141 228.133 172.826 227.944 173.371 227.567C173.93 227.176 174.322 226.658 174.545 226.016H176.6C176.292 227.12 175.677 228.021 174.755 228.72C173.832 229.405 172.686 229.747 171.317 229.747C170.227 229.747 169.248 229.502 168.382 229.013C167.529 228.524 166.859 227.832 166.369 226.938C165.88 226.03 165.636 224.981 165.636 223.793C165.636 222.605 165.873 221.564 166.349 220.67C166.824 219.775 167.488 219.091 168.34 218.615C169.207 218.126 170.199 217.882 171.317 217.882C172.407 217.882 173.371 218.119 174.21 218.594C175.048 219.07 175.691 219.726 176.138 220.565C176.6 221.39 176.83 222.326 176.83 223.374ZM174.86 222.976C174.86 222.249 174.699 221.627 174.378 221.11C174.056 220.579 173.616 220.181 173.057 219.915C172.512 219.636 171.904 219.496 171.233 219.496C170.269 219.496 169.444 219.803 168.759 220.418C168.088 221.033 167.704 221.886 167.606 222.976H174.86ZM184.224 222.242C184.224 220.817 184.546 219.538 185.189 218.406C185.832 217.26 186.705 216.365 187.809 215.722C188.927 215.08 190.164 214.758 191.52 214.758C193.113 214.758 194.504 215.142 195.692 215.911C196.879 216.68 197.746 217.77 198.291 219.181H196.006C195.601 218.301 195.014 217.623 194.245 217.148C193.49 216.673 192.582 216.435 191.52 216.435C190.5 216.435 189.584 216.673 188.774 217.148C187.963 217.623 187.327 218.301 186.866 219.181C186.405 220.048 186.174 221.068 186.174 222.242C186.174 223.402 186.405 224.422 186.866 225.303C187.327 226.169 187.963 226.84 188.774 227.315C189.584 227.79 190.5 228.028 191.52 228.028C192.582 228.028 193.49 227.797 194.245 227.336C195.014 226.861 195.601 226.183 196.006 225.303H198.291C197.746 226.7 196.879 227.783 195.692 228.552C194.504 229.307 193.113 229.684 191.52 229.684C190.164 229.684 188.927 229.37 187.809 228.741C186.705 228.098 185.832 227.21 185.189 226.078C184.546 224.946 184.224 223.668 184.224 222.242ZM206.141 229.747C205.065 229.747 204.087 229.502 203.206 229.013C202.34 228.524 201.655 227.832 201.152 226.938C200.663 226.03 200.418 224.981 200.418 223.793C200.418 222.619 200.67 221.585 201.173 220.691C201.69 219.782 202.389 219.091 203.269 218.615C204.149 218.126 205.135 217.882 206.225 217.882C207.315 217.882 208.3 218.126 209.181 218.615C210.061 219.091 210.753 219.775 211.256 220.67C211.773 221.564 212.032 222.605 212.032 223.793C212.032 224.981 211.766 226.03 211.235 226.938C210.718 227.832 210.012 228.524 209.118 229.013C208.223 229.502 207.231 229.747 206.141 229.747ZM206.141 228.07C206.826 228.07 207.469 227.909 208.07 227.588C208.671 227.266 209.153 226.784 209.516 226.141C209.893 225.498 210.082 224.716 210.082 223.793C210.082 222.871 209.9 222.088 209.537 221.446C209.174 220.803 208.699 220.327 208.112 220.02C207.525 219.699 206.889 219.538 206.204 219.538C205.505 219.538 204.862 219.699 204.275 220.02C203.702 220.327 203.241 220.803 202.892 221.446C202.542 222.088 202.368 222.871 202.368 223.793C202.368 224.73 202.535 225.519 202.871 226.162C203.22 226.805 203.681 227.287 204.254 227.609C204.827 227.916 205.456 228.07 206.141 228.07ZM216.448 214.045V229.558H214.54V214.045H216.448ZM221.607 214.045V229.558H219.699V214.045H221.607ZM235.34 223.374C235.34 223.738 235.319 224.122 235.277 224.527H226.095C226.165 225.659 226.549 226.547 227.248 227.19C227.961 227.818 228.82 228.133 229.826 228.133C230.651 228.133 231.336 227.944 231.881 227.567C232.44 227.176 232.831 226.658 233.055 226.016H235.109C234.802 227.12 234.187 228.021 233.264 228.72C232.342 229.405 231.196 229.747 229.826 229.747C228.736 229.747 227.758 229.502 226.891 229.013C226.039 228.524 225.368 227.832 224.879 226.938C224.39 226.03 224.145 224.981 224.145 223.793C224.145 222.605 224.383 221.564 224.858 220.67C225.333 219.775 225.997 219.091 226.849 218.615C227.716 218.126 228.708 217.882 229.826 217.882C230.916 217.882 231.881 218.119 232.719 218.594C233.558 219.07 234.201 219.726 234.648 220.565C235.109 221.39 235.34 222.326 235.34 223.374ZM233.369 222.976C233.369 222.249 233.208 221.627 232.887 221.11C232.566 220.579 232.125 220.181 231.566 219.915C231.021 219.636 230.413 219.496 229.742 219.496C228.778 219.496 227.954 219.803 227.269 220.418C226.598 221.033 226.214 221.886 226.116 222.976H233.369ZM237.145 223.793C237.145 222.605 237.383 221.571 237.858 220.691C238.333 219.796 238.99 219.105 239.828 218.615C240.681 218.126 241.652 217.882 242.742 217.882C244.154 217.882 245.314 218.224 246.222 218.909C247.145 219.594 247.753 220.544 248.046 221.76H245.992C245.796 221.061 245.412 220.509 244.839 220.104C244.28 219.699 243.581 219.496 242.742 219.496C241.652 219.496 240.772 219.873 240.101 220.628C239.43 221.369 239.095 222.424 239.095 223.793C239.095 225.177 239.43 226.246 240.101 227.001C240.772 227.756 241.652 228.133 242.742 228.133C243.581 228.133 244.28 227.937 244.839 227.546C245.398 227.155 245.782 226.596 245.992 225.869H248.046C247.739 227.043 247.124 227.986 246.201 228.699C245.279 229.398 244.126 229.747 242.742 229.747C241.652 229.747 240.681 229.502 239.828 229.013C238.99 228.524 238.333 227.832 237.858 226.938C237.383 226.043 237.145 224.995 237.145 223.793ZM252.918 219.643V226.414C252.918 226.973 253.037 227.371 253.275 227.609C253.512 227.832 253.925 227.944 254.512 227.944H255.916V229.558H254.197C253.135 229.558 252.338 229.314 251.807 228.825C251.276 228.336 251.011 227.532 251.011 226.414V219.643H249.522V218.07H251.011V215.177H252.918V218.07H255.916V219.643H252.918ZM259.213 216.205C258.85 216.205 258.542 216.079 258.29 215.827C258.039 215.576 257.913 215.268 257.913 214.905C257.913 214.542 258.039 214.234 258.29 213.982C258.542 213.731 258.85 213.605 259.213 213.605C259.562 213.605 259.856 213.731 260.093 213.982C260.345 214.234 260.471 214.542 260.471 214.905C260.471 215.268 260.345 215.576 260.093 215.827C259.856 216.079 259.562 216.205 259.213 216.205ZM260.135 218.07V229.558H258.228V218.07H260.135ZM268.397 229.747C267.321 229.747 266.342 229.502 265.462 229.013C264.595 228.524 263.911 227.832 263.408 226.938C262.918 226.03 262.674 224.981 262.674 223.793C262.674 222.619 262.925 221.585 263.429 220.691C263.946 219.782 264.644 219.091 265.525 218.615C266.405 218.126 267.391 217.882 268.481 217.882C269.571 217.882 270.556 218.126 271.437 218.615C272.317 219.091 273.009 219.775 273.512 220.67C274.029 221.564 274.288 222.605 274.288 223.793C274.288 224.981 274.022 226.03 273.491 226.938C272.974 227.832 272.268 228.524 271.374 229.013C270.479 229.502 269.487 229.747 268.397 229.747ZM268.397 228.07C269.082 228.07 269.725 227.909 270.326 227.588C270.926 227.266 271.409 226.784 271.772 226.141C272.149 225.498 272.338 224.716 272.338 223.793C272.338 222.871 272.156 222.088 271.793 221.446C271.43 220.803 270.954 220.327 270.367 220.02C269.78 219.699 269.145 219.538 268.46 219.538C267.761 219.538 267.118 219.699 266.531 220.02C265.958 220.327 265.497 220.803 265.148 221.446C264.798 222.088 264.623 222.871 264.623 223.793C264.623 224.73 264.791 225.519 265.127 226.162C265.476 226.805 265.937 227.287 266.51 227.609C267.083 227.916 267.712 228.07 268.397 228.07ZM282.393 217.861C283.791 217.861 284.923 218.287 285.789 219.14C286.656 219.978 287.089 221.194 287.089 222.787V229.558H285.202V223.06C285.202 221.914 284.916 221.04 284.343 220.439C283.77 219.824 282.987 219.517 281.995 219.517C280.989 219.517 280.185 219.831 279.584 220.46C278.997 221.089 278.704 222.005 278.704 223.206V229.558H276.796V218.07H278.704V219.706C279.081 219.119 279.591 218.664 280.234 218.343C280.891 218.021 281.61 217.861 282.393 217.861ZM294.272 229.747C293.392 229.747 292.602 229.6 291.903 229.307C291.204 228.999 290.652 228.58 290.247 228.049C289.842 227.504 289.618 226.882 289.576 226.183H291.547C291.603 226.756 291.868 227.224 292.343 227.588C292.833 227.951 293.468 228.133 294.251 228.133C294.978 228.133 295.551 227.972 295.97 227.651C296.389 227.329 296.599 226.924 296.599 226.435C296.599 225.932 296.375 225.561 295.928 225.324C295.481 225.072 294.789 224.828 293.853 224.59C293 224.366 292.301 224.143 291.756 223.919C291.225 223.682 290.764 223.339 290.373 222.892C289.995 222.431 289.807 221.83 289.807 221.089C289.807 220.502 289.982 219.964 290.331 219.475C290.68 218.986 291.176 218.601 291.819 218.322C292.462 218.028 293.196 217.882 294.02 217.882C295.292 217.882 296.319 218.203 297.102 218.846C297.885 219.489 298.304 220.369 298.36 221.487H296.452C296.41 220.886 296.166 220.404 295.719 220.041C295.285 219.678 294.698 219.496 293.958 219.496C293.273 219.496 292.728 219.643 292.322 219.936C291.917 220.23 291.715 220.614 291.715 221.089C291.715 221.466 291.833 221.781 292.071 222.032C292.322 222.27 292.63 222.466 292.993 222.619C293.371 222.759 293.888 222.92 294.545 223.102C295.369 223.325 296.04 223.549 296.557 223.772C297.074 223.982 297.514 224.304 297.878 224.737C298.255 225.17 298.451 225.736 298.465 226.435C298.465 227.064 298.29 227.63 297.941 228.133C297.591 228.636 297.095 229.034 296.452 229.328C295.823 229.607 295.097 229.747 294.272 229.747Z" fill="white"/>
<g clip-path="url(#clip4_101_141)">
<path d="M60.4479 252.778C61.7379 254.068 62.4626 255.818 62.4626 257.642V273.365C62.4626 275.189 61.7379 276.939 60.4479 278.229C59.1579 279.519 57.4083 280.244 55.5839 280.244H39.8613C38.037 280.244 36.2874 279.519 34.9974 278.229C33.7074 276.939 32.9827 275.189 32.9827 273.365V257.642C32.9827 255.818 33.7074 254.068 34.9974 252.778C36.2874 251.488 38.037 250.764 39.8613 250.764H55.5839C57.4083 250.764 59.1579 251.488 60.4479 252.778Z" stroke="white" stroke-width="1.96533" stroke-linecap="round" stroke-linejoin="round"/>
</g>
<path d="M89.6964 269.754H83.3235L82.1495 273.004H80.1371L85.4199 258.476H87.621L92.8829 273.004H90.8704L89.6964 269.754ZM89.1514 268.203L86.51 260.824L83.8686 268.203H89.1514ZM94.4725 267.218C94.4725 266.044 94.7101 265.017 95.1852 264.136C95.6604 263.242 96.3103 262.55 97.1348 262.061C97.9734 261.572 98.9098 261.327 99.944 261.327C100.838 261.327 101.67 261.537 102.439 261.956C103.207 262.361 103.794 262.899 104.2 263.57V257.491H106.128V273.004H104.2V270.844C103.822 271.529 103.263 272.095 102.522 272.542C101.782 272.976 100.915 273.192 99.923 273.192C98.9028 273.192 97.9734 272.941 97.1348 272.438C96.3103 271.934 95.6604 271.229 95.1852 270.32C94.7101 269.412 94.4725 268.378 94.4725 267.218ZM104.2 267.239C104.2 266.372 104.025 265.617 103.675 264.975C103.326 264.332 102.851 263.843 102.25 263.507C101.663 263.158 101.013 262.983 100.3 262.983C99.5876 262.983 98.9377 263.151 98.3507 263.486C97.7638 263.822 97.2956 264.311 96.9462 264.954C96.5968 265.597 96.4221 266.351 96.4221 267.218C96.4221 268.098 96.5968 268.867 96.9462 269.524C97.2956 270.167 97.7638 270.663 98.3507 271.012C98.9377 271.348 99.5876 271.515 100.3 271.515C101.013 271.515 101.663 271.348 102.25 271.012C102.851 270.663 103.326 270.167 103.675 269.524C104.025 268.867 104.2 268.105 104.2 267.239ZM108.639 267.218C108.639 266.044 108.877 265.017 109.352 264.136C109.827 263.242 110.477 262.55 111.302 262.061C112.14 261.572 113.077 261.327 114.111 261.327C115.005 261.327 115.837 261.537 116.605 261.956C117.374 262.361 117.961 262.899 118.366 263.57V257.491H120.295V273.004H118.366V270.844C117.989 271.529 117.43 272.095 116.689 272.542C115.949 272.976 115.082 273.192 114.09 273.192C113.07 273.192 112.14 272.941 111.302 272.438C110.477 271.934 109.827 271.229 109.352 270.32C108.877 269.412 108.639 268.378 108.639 267.218ZM118.366 267.239C118.366 266.372 118.192 265.617 117.842 264.975C117.493 264.332 117.018 263.843 116.417 263.507C115.83 263.158 115.18 262.983 114.467 262.983C113.754 262.983 113.104 263.151 112.517 263.486C111.93 263.822 111.462 264.311 111.113 264.954C110.764 265.597 110.589 266.351 110.589 267.218C110.589 268.098 110.764 268.867 111.113 269.524C111.462 270.167 111.93 270.663 112.517 271.012C113.104 271.348 113.754 271.515 114.467 271.515C115.18 271.515 115.83 271.348 116.417 271.012C117.018 270.663 117.493 270.167 117.842 269.524C118.192 268.867 118.366 268.105 118.366 267.239ZM138.877 262.669C138.877 263.885 138.457 264.898 137.619 265.708C136.794 266.505 135.529 266.903 133.824 266.903H131.015V273.004H129.108V258.392H133.824C135.474 258.392 136.724 258.79 137.577 259.587C138.443 260.384 138.877 261.411 138.877 262.669ZM133.824 265.331C134.887 265.331 135.669 265.1 136.172 264.639C136.675 264.178 136.927 263.521 136.927 262.669C136.927 260.866 135.893 259.964 133.824 259.964H131.015V265.331H133.824ZM142.233 259.65C141.87 259.65 141.562 259.524 141.311 259.273C141.059 259.021 140.933 258.714 140.933 258.35C140.933 257.987 141.059 257.679 141.311 257.428C141.562 257.176 141.87 257.05 142.233 257.05C142.582 257.05 142.876 257.176 143.113 257.428C143.365 257.679 143.491 257.987 143.491 258.35C143.491 258.714 143.365 259.021 143.113 259.273C142.876 259.524 142.582 259.65 142.233 259.65ZM143.155 261.516V273.004H141.248V261.516H143.155ZM152.004 261.306C153.401 261.306 154.533 261.732 155.4 262.585C156.266 263.423 156.7 264.639 156.7 266.232V273.004H154.813V266.505C154.813 265.359 154.526 264.485 153.953 263.885C153.38 263.27 152.598 262.962 151.606 262.962C150.599 262.962 149.796 263.277 149.195 263.905C148.608 264.534 148.314 265.45 148.314 266.652V273.004H146.407V261.516H148.314V263.151C148.692 262.564 149.202 262.11 149.845 261.788C150.501 261.467 151.221 261.306 152.004 261.306ZM160.801 259.65C160.438 259.65 160.13 259.524 159.879 259.273C159.627 259.021 159.501 258.714 159.501 258.35C159.501 257.987 159.627 257.679 159.879 257.428C160.13 257.176 160.438 257.05 160.801 257.05C161.151 257.05 161.444 257.176 161.682 257.428C161.933 257.679 162.059 257.987 162.059 258.35C162.059 258.714 161.933 259.021 161.682 259.273C161.444 259.524 161.151 259.65 160.801 259.65ZM161.724 261.516V273.004H159.816V261.516H161.724ZM164.262 267.218C164.262 266.044 164.5 265.017 164.975 264.136C165.45 263.242 166.1 262.55 166.924 262.061C167.763 261.572 168.692 261.327 169.713 261.327C170.719 261.327 171.592 261.544 172.333 261.977C173.074 262.41 173.626 262.955 173.989 263.612V261.516H175.918V273.004H173.989V270.865C173.612 271.536 173.046 272.095 172.291 272.542C171.55 272.976 170.684 273.192 169.692 273.192C168.671 273.192 167.749 272.941 166.924 272.438C166.1 271.934 165.45 271.229 164.975 270.32C164.5 269.412 164.262 268.378 164.262 267.218ZM173.989 267.239C173.989 266.372 173.814 265.617 173.465 264.975C173.116 264.332 172.641 263.843 172.04 263.507C171.453 263.158 170.803 262.983 170.09 262.983C169.377 262.983 168.727 263.151 168.14 263.486C167.553 263.822 167.085 264.311 166.736 264.954C166.386 265.597 166.212 266.351 166.212 267.218C166.212 268.098 166.386 268.867 166.736 269.524C167.085 270.167 167.553 270.663 168.14 271.012C168.727 271.348 169.377 271.515 170.09 271.515C170.803 271.515 171.453 271.348 172.04 271.012C172.641 270.663 173.116 270.167 173.465 269.524C173.814 268.867 173.989 268.105 173.989 267.239Z" fill="white"/>
</g>
<defs>
<filter id="filter0_b_101_141" x="-12" y="-12" width="356.445" height="337.226" filterUnits="userSpaceOnUse" color-interpolation-filters="sRGB">
<feFlood flood-opacity="0" result="BackgroundImageFix"/>
<feGaussianBlur in="BackgroundImageFix" stdDeviation="6"/>
<feComposite in2="SourceAlpha" operator="in" result="effect1_backgroundBlur_101_141"/>
<feBlend mode="normal" in="SourceGraphic" in2="effect1_backgroundBlur_101_141" result="shape"/>
</filter>
<clipPath id="clip0_101_141">
<rect width="31.4453" height="31.4453" fill="white" transform="translate(32 76)"/>
</clipPath>
<clipPath id="clip1_101_141">
<rect width="31.4453" height="31.4453" fill="white" transform="translate(32 119.445)"/>
</clipPath>
<clipPath id="clip2_101_141">
<rect width="31.4453" height="31.4453" fill="white" transform="translate(64 162.891)"/>
</clipPath>
<clipPath id="clip3_101_141">
<rect width="31.4453" height="31.4453" fill="white" transform="translate(64 206.336)"/>
</clipPath>
<clipPath id="clip4_101_141">
<rect width="31.4453" height="31.4453" fill="white" transform="translate(32 249.781)"/>
</clipPath>
</defs>
</svg>
